%TF.GenerationSoftware,KiCad,Pcbnew,9.0.7*%
%TF.CreationDate,2026-05-21T19:34:22+01:00*%
%TF.ProjectId,Pointy R1 Flight controller,506f696e-7479-4205-9231-20466c696768,rev?*%
%TF.SameCoordinates,Original*%
%TF.FileFunction,Drillmap*%
%TF.FilePolarity,Positive*%
%FSLAX45Y45*%
G04 Gerber Fmt 4.5, Leading zero omitted, Abs format (unit mm)*
G04 Created by KiCad (PCBNEW 9.0.7) date 2026-05-21 19:34:22*
%MOMM*%
%LPD*%
G01*
G04 APERTURE LIST*
%ADD10C,0.050000*%
%ADD11C,0.200000*%
%ADD12C,0.320000*%
G04 APERTURE END LIST*
D10*
X11425000Y-6075000D02*
X17425000Y-6075000D01*
X17425000Y-16075000D01*
X11425000Y-16075000D01*
X11425000Y-6075000D01*
D11*
D12*
X15259000Y-9922000D02*
X15579000Y-10242000D01*
X15579000Y-9922000D02*
X15259000Y-10242000D01*
X16871000Y-9922000D02*
X17191000Y-10242000D01*
X17191000Y-9922000D02*
X16871000Y-10242000D01*
D11*
X11683277Y-16388984D02*
X11683277Y-16188984D01*
X11683277Y-16188984D02*
X11730896Y-16188984D01*
X11730896Y-16188984D02*
X11759467Y-16198508D01*
X11759467Y-16198508D02*
X11778515Y-16217555D01*
X11778515Y-16217555D02*
X11788039Y-16236603D01*
X11788039Y-16236603D02*
X11797562Y-16274698D01*
X11797562Y-16274698D02*
X11797562Y-16303269D01*
X11797562Y-16303269D02*
X11788039Y-16341365D01*
X11788039Y-16341365D02*
X11778515Y-16360412D01*
X11778515Y-16360412D02*
X11759467Y-16379460D01*
X11759467Y-16379460D02*
X11730896Y-16388984D01*
X11730896Y-16388984D02*
X11683277Y-16388984D01*
X11883277Y-16388984D02*
X11883277Y-16255650D01*
X11883277Y-16293746D02*
X11892801Y-16274698D01*
X11892801Y-16274698D02*
X11902324Y-16265174D01*
X11902324Y-16265174D02*
X11921372Y-16255650D01*
X11921372Y-16255650D02*
X11940420Y-16255650D01*
X12007086Y-16388984D02*
X12007086Y-16255650D01*
X12007086Y-16188984D02*
X11997562Y-16198508D01*
X11997562Y-16198508D02*
X12007086Y-16208031D01*
X12007086Y-16208031D02*
X12016610Y-16198508D01*
X12016610Y-16198508D02*
X12007086Y-16188984D01*
X12007086Y-16188984D02*
X12007086Y-16208031D01*
X12130896Y-16388984D02*
X12111848Y-16379460D01*
X12111848Y-16379460D02*
X12102324Y-16360412D01*
X12102324Y-16360412D02*
X12102324Y-16188984D01*
X12235658Y-16388984D02*
X12216610Y-16379460D01*
X12216610Y-16379460D02*
X12207086Y-16360412D01*
X12207086Y-16360412D02*
X12207086Y-16188984D01*
X12464229Y-16388984D02*
X12464229Y-16188984D01*
X12464229Y-16188984D02*
X12530896Y-16331841D01*
X12530896Y-16331841D02*
X12597562Y-16188984D01*
X12597562Y-16188984D02*
X12597562Y-16388984D01*
X12778515Y-16388984D02*
X12778515Y-16284222D01*
X12778515Y-16284222D02*
X12768991Y-16265174D01*
X12768991Y-16265174D02*
X12749943Y-16255650D01*
X12749943Y-16255650D02*
X12711848Y-16255650D01*
X12711848Y-16255650D02*
X12692801Y-16265174D01*
X12778515Y-16379460D02*
X12759467Y-16388984D01*
X12759467Y-16388984D02*
X12711848Y-16388984D01*
X12711848Y-16388984D02*
X12692801Y-16379460D01*
X12692801Y-16379460D02*
X12683277Y-16360412D01*
X12683277Y-16360412D02*
X12683277Y-16341365D01*
X12683277Y-16341365D02*
X12692801Y-16322317D01*
X12692801Y-16322317D02*
X12711848Y-16312793D01*
X12711848Y-16312793D02*
X12759467Y-16312793D01*
X12759467Y-16312793D02*
X12778515Y-16303269D01*
X12873753Y-16255650D02*
X12873753Y-16455650D01*
X12873753Y-16265174D02*
X12892801Y-16255650D01*
X12892801Y-16255650D02*
X12930896Y-16255650D01*
X12930896Y-16255650D02*
X12949943Y-16265174D01*
X12949943Y-16265174D02*
X12959467Y-16274698D01*
X12959467Y-16274698D02*
X12968991Y-16293746D01*
X12968991Y-16293746D02*
X12968991Y-16350888D01*
X12968991Y-16350888D02*
X12959467Y-16369936D01*
X12959467Y-16369936D02*
X12949943Y-16379460D01*
X12949943Y-16379460D02*
X12930896Y-16388984D01*
X12930896Y-16388984D02*
X12892801Y-16388984D01*
X12892801Y-16388984D02*
X12873753Y-16379460D01*
X13054705Y-16369936D02*
X13064229Y-16379460D01*
X13064229Y-16379460D02*
X13054705Y-16388984D01*
X13054705Y-16388984D02*
X13045182Y-16379460D01*
X13045182Y-16379460D02*
X13054705Y-16369936D01*
X13054705Y-16369936D02*
X13054705Y-16388984D01*
X13054705Y-16265174D02*
X13064229Y-16274698D01*
X13064229Y-16274698D02*
X13054705Y-16284222D01*
X13054705Y-16284222D02*
X13045182Y-16274698D01*
X13045182Y-16274698D02*
X13054705Y-16265174D01*
X13054705Y-16265174D02*
X13054705Y-16284222D01*
X11222500Y-16617500D02*
X11422500Y-16817500D01*
X11422500Y-16617500D02*
X11222500Y-16817500D01*
X11664229Y-16608984D02*
X11788039Y-16608984D01*
X11788039Y-16608984D02*
X11721372Y-16685174D01*
X11721372Y-16685174D02*
X11749943Y-16685174D01*
X11749943Y-16685174D02*
X11768991Y-16694698D01*
X11768991Y-16694698D02*
X11778515Y-16704222D01*
X11778515Y-16704222D02*
X11788039Y-16723269D01*
X11788039Y-16723269D02*
X11788039Y-16770888D01*
X11788039Y-16770888D02*
X11778515Y-16789936D01*
X11778515Y-16789936D02*
X11768991Y-16799460D01*
X11768991Y-16799460D02*
X11749943Y-16808984D01*
X11749943Y-16808984D02*
X11692801Y-16808984D01*
X11692801Y-16808984D02*
X11673753Y-16799460D01*
X11673753Y-16799460D02*
X11664229Y-16789936D01*
X11873753Y-16789936D02*
X11883277Y-16799460D01*
X11883277Y-16799460D02*
X11873753Y-16808984D01*
X11873753Y-16808984D02*
X11864229Y-16799460D01*
X11864229Y-16799460D02*
X11873753Y-16789936D01*
X11873753Y-16789936D02*
X11873753Y-16808984D01*
X11959467Y-16628031D02*
X11968991Y-16618508D01*
X11968991Y-16618508D02*
X11988039Y-16608984D01*
X11988039Y-16608984D02*
X12035658Y-16608984D01*
X12035658Y-16608984D02*
X12054705Y-16618508D01*
X12054705Y-16618508D02*
X12064229Y-16628031D01*
X12064229Y-16628031D02*
X12073753Y-16647079D01*
X12073753Y-16647079D02*
X12073753Y-16666127D01*
X12073753Y-16666127D02*
X12064229Y-16694698D01*
X12064229Y-16694698D02*
X11949943Y-16808984D01*
X11949943Y-16808984D02*
X12073753Y-16808984D01*
X12197562Y-16608984D02*
X12216610Y-16608984D01*
X12216610Y-16608984D02*
X12235658Y-16618508D01*
X12235658Y-16618508D02*
X12245182Y-16628031D01*
X12245182Y-16628031D02*
X12254705Y-16647079D01*
X12254705Y-16647079D02*
X12264229Y-16685174D01*
X12264229Y-16685174D02*
X12264229Y-16732793D01*
X12264229Y-16732793D02*
X12254705Y-16770888D01*
X12254705Y-16770888D02*
X12245182Y-16789936D01*
X12245182Y-16789936D02*
X12235658Y-16799460D01*
X12235658Y-16799460D02*
X12216610Y-16808984D01*
X12216610Y-16808984D02*
X12197562Y-16808984D01*
X12197562Y-16808984D02*
X12178515Y-16799460D01*
X12178515Y-16799460D02*
X12168991Y-16789936D01*
X12168991Y-16789936D02*
X12159467Y-16770888D01*
X12159467Y-16770888D02*
X12149943Y-16732793D01*
X12149943Y-16732793D02*
X12149943Y-16685174D01*
X12149943Y-16685174D02*
X12159467Y-16647079D01*
X12159467Y-16647079D02*
X12168991Y-16628031D01*
X12168991Y-16628031D02*
X12178515Y-16618508D01*
X12178515Y-16618508D02*
X12197562Y-16608984D01*
X12388039Y-16608984D02*
X12407086Y-16608984D01*
X12407086Y-16608984D02*
X12426134Y-16618508D01*
X12426134Y-16618508D02*
X12435658Y-16628031D01*
X12435658Y-16628031D02*
X12445182Y-16647079D01*
X12445182Y-16647079D02*
X12454705Y-16685174D01*
X12454705Y-16685174D02*
X12454705Y-16732793D01*
X12454705Y-16732793D02*
X12445182Y-16770888D01*
X12445182Y-16770888D02*
X12435658Y-16789936D01*
X12435658Y-16789936D02*
X12426134Y-16799460D01*
X12426134Y-16799460D02*
X12407086Y-16808984D01*
X12407086Y-16808984D02*
X12388039Y-16808984D01*
X12388039Y-16808984D02*
X12368991Y-16799460D01*
X12368991Y-16799460D02*
X12359467Y-16789936D01*
X12359467Y-16789936D02*
X12349943Y-16770888D01*
X12349943Y-16770888D02*
X12340420Y-16732793D01*
X12340420Y-16732793D02*
X12340420Y-16685174D01*
X12340420Y-16685174D02*
X12349943Y-16647079D01*
X12349943Y-16647079D02*
X12359467Y-16628031D01*
X12359467Y-16628031D02*
X12368991Y-16618508D01*
X12368991Y-16618508D02*
X12388039Y-16608984D01*
X12540420Y-16808984D02*
X12540420Y-16675650D01*
X12540420Y-16694698D02*
X12549943Y-16685174D01*
X12549943Y-16685174D02*
X12568991Y-16675650D01*
X12568991Y-16675650D02*
X12597563Y-16675650D01*
X12597563Y-16675650D02*
X12616610Y-16685174D01*
X12616610Y-16685174D02*
X12626134Y-16704222D01*
X12626134Y-16704222D02*
X12626134Y-16808984D01*
X12626134Y-16704222D02*
X12635658Y-16685174D01*
X12635658Y-16685174D02*
X12654705Y-16675650D01*
X12654705Y-16675650D02*
X12683277Y-16675650D01*
X12683277Y-16675650D02*
X12702324Y-16685174D01*
X12702324Y-16685174D02*
X12711848Y-16704222D01*
X12711848Y-16704222D02*
X12711848Y-16808984D01*
X12807086Y-16808984D02*
X12807086Y-16675650D01*
X12807086Y-16694698D02*
X12816610Y-16685174D01*
X12816610Y-16685174D02*
X12835658Y-16675650D01*
X12835658Y-16675650D02*
X12864229Y-16675650D01*
X12864229Y-16675650D02*
X12883277Y-16685174D01*
X12883277Y-16685174D02*
X12892801Y-16704222D01*
X12892801Y-16704222D02*
X12892801Y-16808984D01*
X12892801Y-16704222D02*
X12902324Y-16685174D01*
X12902324Y-16685174D02*
X12921372Y-16675650D01*
X12921372Y-16675650D02*
X12949943Y-16675650D01*
X12949943Y-16675650D02*
X12968991Y-16685174D01*
X12968991Y-16685174D02*
X12978515Y-16704222D01*
X12978515Y-16704222D02*
X12978515Y-16808984D01*
X13368991Y-16599460D02*
X13197563Y-16856603D01*
X13626134Y-16608984D02*
X13645182Y-16608984D01*
X13645182Y-16608984D02*
X13664229Y-16618508D01*
X13664229Y-16618508D02*
X13673753Y-16628031D01*
X13673753Y-16628031D02*
X13683277Y-16647079D01*
X13683277Y-16647079D02*
X13692801Y-16685174D01*
X13692801Y-16685174D02*
X13692801Y-16732793D01*
X13692801Y-16732793D02*
X13683277Y-16770888D01*
X13683277Y-16770888D02*
X13673753Y-16789936D01*
X13673753Y-16789936D02*
X13664229Y-16799460D01*
X13664229Y-16799460D02*
X13645182Y-16808984D01*
X13645182Y-16808984D02*
X13626134Y-16808984D01*
X13626134Y-16808984D02*
X13607086Y-16799460D01*
X13607086Y-16799460D02*
X13597563Y-16789936D01*
X13597563Y-16789936D02*
X13588039Y-16770888D01*
X13588039Y-16770888D02*
X13578515Y-16732793D01*
X13578515Y-16732793D02*
X13578515Y-16685174D01*
X13578515Y-16685174D02*
X13588039Y-16647079D01*
X13588039Y-16647079D02*
X13597563Y-16628031D01*
X13597563Y-16628031D02*
X13607086Y-16618508D01*
X13607086Y-16618508D02*
X13626134Y-16608984D01*
X13778515Y-16789936D02*
X13788039Y-16799460D01*
X13788039Y-16799460D02*
X13778515Y-16808984D01*
X13778515Y-16808984D02*
X13768991Y-16799460D01*
X13768991Y-16799460D02*
X13778515Y-16789936D01*
X13778515Y-16789936D02*
X13778515Y-16808984D01*
X13978515Y-16808984D02*
X13864229Y-16808984D01*
X13921372Y-16808984D02*
X13921372Y-16608984D01*
X13921372Y-16608984D02*
X13902325Y-16637555D01*
X13902325Y-16637555D02*
X13883277Y-16656603D01*
X13883277Y-16656603D02*
X13864229Y-16666127D01*
X14054706Y-16628031D02*
X14064229Y-16618508D01*
X14064229Y-16618508D02*
X14083277Y-16608984D01*
X14083277Y-16608984D02*
X14130896Y-16608984D01*
X14130896Y-16608984D02*
X14149944Y-16618508D01*
X14149944Y-16618508D02*
X14159467Y-16628031D01*
X14159467Y-16628031D02*
X14168991Y-16647079D01*
X14168991Y-16647079D02*
X14168991Y-16666127D01*
X14168991Y-16666127D02*
X14159467Y-16694698D01*
X14159467Y-16694698D02*
X14045182Y-16808984D01*
X14045182Y-16808984D02*
X14168991Y-16808984D01*
X14340420Y-16608984D02*
X14302325Y-16608984D01*
X14302325Y-16608984D02*
X14283277Y-16618508D01*
X14283277Y-16618508D02*
X14273753Y-16628031D01*
X14273753Y-16628031D02*
X14254706Y-16656603D01*
X14254706Y-16656603D02*
X14245182Y-16694698D01*
X14245182Y-16694698D02*
X14245182Y-16770888D01*
X14245182Y-16770888D02*
X14254706Y-16789936D01*
X14254706Y-16789936D02*
X14264229Y-16799460D01*
X14264229Y-16799460D02*
X14283277Y-16808984D01*
X14283277Y-16808984D02*
X14321372Y-16808984D01*
X14321372Y-16808984D02*
X14340420Y-16799460D01*
X14340420Y-16799460D02*
X14349944Y-16789936D01*
X14349944Y-16789936D02*
X14359467Y-16770888D01*
X14359467Y-16770888D02*
X14359467Y-16723269D01*
X14359467Y-16723269D02*
X14349944Y-16704222D01*
X14349944Y-16704222D02*
X14340420Y-16694698D01*
X14340420Y-16694698D02*
X14321372Y-16685174D01*
X14321372Y-16685174D02*
X14283277Y-16685174D01*
X14283277Y-16685174D02*
X14264229Y-16694698D01*
X14264229Y-16694698D02*
X14254706Y-16704222D01*
X14254706Y-16704222D02*
X14245182Y-16723269D01*
X14483277Y-16608984D02*
X14502325Y-16608984D01*
X14502325Y-16608984D02*
X14521372Y-16618508D01*
X14521372Y-16618508D02*
X14530896Y-16628031D01*
X14530896Y-16628031D02*
X14540420Y-16647079D01*
X14540420Y-16647079D02*
X14549944Y-16685174D01*
X14549944Y-16685174D02*
X14549944Y-16732793D01*
X14549944Y-16732793D02*
X14540420Y-16770888D01*
X14540420Y-16770888D02*
X14530896Y-16789936D01*
X14530896Y-16789936D02*
X14521372Y-16799460D01*
X14521372Y-16799460D02*
X14502325Y-16808984D01*
X14502325Y-16808984D02*
X14483277Y-16808984D01*
X14483277Y-16808984D02*
X14464229Y-16799460D01*
X14464229Y-16799460D02*
X14454706Y-16789936D01*
X14454706Y-16789936D02*
X14445182Y-16770888D01*
X14445182Y-16770888D02*
X14435658Y-16732793D01*
X14435658Y-16732793D02*
X14435658Y-16685174D01*
X14435658Y-16685174D02*
X14445182Y-16647079D01*
X14445182Y-16647079D02*
X14454706Y-16628031D01*
X14454706Y-16628031D02*
X14464229Y-16618508D01*
X14464229Y-16618508D02*
X14483277Y-16608984D01*
X14626134Y-16608984D02*
X14626134Y-16647079D01*
X14702325Y-16608984D02*
X14702325Y-16647079D01*
X14997563Y-16885174D02*
X14988039Y-16875650D01*
X14988039Y-16875650D02*
X14968991Y-16847079D01*
X14968991Y-16847079D02*
X14959468Y-16828031D01*
X14959468Y-16828031D02*
X14949944Y-16799460D01*
X14949944Y-16799460D02*
X14940420Y-16751841D01*
X14940420Y-16751841D02*
X14940420Y-16713746D01*
X14940420Y-16713746D02*
X14949944Y-16666127D01*
X14949944Y-16666127D02*
X14959468Y-16637555D01*
X14959468Y-16637555D02*
X14968991Y-16618508D01*
X14968991Y-16618508D02*
X14988039Y-16589936D01*
X14988039Y-16589936D02*
X14997563Y-16580412D01*
X15064229Y-16628031D02*
X15073753Y-16618508D01*
X15073753Y-16618508D02*
X15092801Y-16608984D01*
X15092801Y-16608984D02*
X15140420Y-16608984D01*
X15140420Y-16608984D02*
X15159468Y-16618508D01*
X15159468Y-16618508D02*
X15168991Y-16628031D01*
X15168991Y-16628031D02*
X15178515Y-16647079D01*
X15178515Y-16647079D02*
X15178515Y-16666127D01*
X15178515Y-16666127D02*
X15168991Y-16694698D01*
X15168991Y-16694698D02*
X15054706Y-16808984D01*
X15054706Y-16808984D02*
X15178515Y-16808984D01*
X15416610Y-16808984D02*
X15416610Y-16608984D01*
X15502325Y-16808984D02*
X15502325Y-16704222D01*
X15502325Y-16704222D02*
X15492801Y-16685174D01*
X15492801Y-16685174D02*
X15473753Y-16675650D01*
X15473753Y-16675650D02*
X15445182Y-16675650D01*
X15445182Y-16675650D02*
X15426134Y-16685174D01*
X15426134Y-16685174D02*
X15416610Y-16694698D01*
X15626134Y-16808984D02*
X15607087Y-16799460D01*
X15607087Y-16799460D02*
X15597563Y-16789936D01*
X15597563Y-16789936D02*
X15588039Y-16770888D01*
X15588039Y-16770888D02*
X15588039Y-16713746D01*
X15588039Y-16713746D02*
X15597563Y-16694698D01*
X15597563Y-16694698D02*
X15607087Y-16685174D01*
X15607087Y-16685174D02*
X15626134Y-16675650D01*
X15626134Y-16675650D02*
X15654706Y-16675650D01*
X15654706Y-16675650D02*
X15673753Y-16685174D01*
X15673753Y-16685174D02*
X15683277Y-16694698D01*
X15683277Y-16694698D02*
X15692801Y-16713746D01*
X15692801Y-16713746D02*
X15692801Y-16770888D01*
X15692801Y-16770888D02*
X15683277Y-16789936D01*
X15683277Y-16789936D02*
X15673753Y-16799460D01*
X15673753Y-16799460D02*
X15654706Y-16808984D01*
X15654706Y-16808984D02*
X15626134Y-16808984D01*
X15807087Y-16808984D02*
X15788039Y-16799460D01*
X15788039Y-16799460D02*
X15778515Y-16780412D01*
X15778515Y-16780412D02*
X15778515Y-16608984D01*
X15959468Y-16799460D02*
X15940420Y-16808984D01*
X15940420Y-16808984D02*
X15902325Y-16808984D01*
X15902325Y-16808984D02*
X15883277Y-16799460D01*
X15883277Y-16799460D02*
X15873753Y-16780412D01*
X15873753Y-16780412D02*
X15873753Y-16704222D01*
X15873753Y-16704222D02*
X15883277Y-16685174D01*
X15883277Y-16685174D02*
X15902325Y-16675650D01*
X15902325Y-16675650D02*
X15940420Y-16675650D01*
X15940420Y-16675650D02*
X15959468Y-16685174D01*
X15959468Y-16685174D02*
X15968991Y-16704222D01*
X15968991Y-16704222D02*
X15968991Y-16723269D01*
X15968991Y-16723269D02*
X15873753Y-16742317D01*
X16045182Y-16799460D02*
X16064230Y-16808984D01*
X16064230Y-16808984D02*
X16102325Y-16808984D01*
X16102325Y-16808984D02*
X16121372Y-16799460D01*
X16121372Y-16799460D02*
X16130896Y-16780412D01*
X16130896Y-16780412D02*
X16130896Y-16770888D01*
X16130896Y-16770888D02*
X16121372Y-16751841D01*
X16121372Y-16751841D02*
X16102325Y-16742317D01*
X16102325Y-16742317D02*
X16073753Y-16742317D01*
X16073753Y-16742317D02*
X16054706Y-16732793D01*
X16054706Y-16732793D02*
X16045182Y-16713746D01*
X16045182Y-16713746D02*
X16045182Y-16704222D01*
X16045182Y-16704222D02*
X16054706Y-16685174D01*
X16054706Y-16685174D02*
X16073753Y-16675650D01*
X16073753Y-16675650D02*
X16102325Y-16675650D01*
X16102325Y-16675650D02*
X16121372Y-16685174D01*
X16197563Y-16885174D02*
X16207087Y-16875650D01*
X16207087Y-16875650D02*
X16226134Y-16847079D01*
X16226134Y-16847079D02*
X16235658Y-16828031D01*
X16235658Y-16828031D02*
X16245182Y-16799460D01*
X16245182Y-16799460D02*
X16254706Y-16751841D01*
X16254706Y-16751841D02*
X16254706Y-16713746D01*
X16254706Y-16713746D02*
X16245182Y-16666127D01*
X16245182Y-16666127D02*
X16235658Y-16637555D01*
X16235658Y-16637555D02*
X16226134Y-16618508D01*
X16226134Y-16618508D02*
X16207087Y-16589936D01*
X16207087Y-16589936D02*
X16197563Y-16580412D01*
X16559468Y-16885174D02*
X16549944Y-16875650D01*
X16549944Y-16875650D02*
X16530896Y-16847079D01*
X16530896Y-16847079D02*
X16521372Y-16828031D01*
X16521372Y-16828031D02*
X16511849Y-16799460D01*
X16511849Y-16799460D02*
X16502325Y-16751841D01*
X16502325Y-16751841D02*
X16502325Y-16713746D01*
X16502325Y-16713746D02*
X16511849Y-16666127D01*
X16511849Y-16666127D02*
X16521372Y-16637555D01*
X16521372Y-16637555D02*
X16530896Y-16618508D01*
X16530896Y-16618508D02*
X16549944Y-16589936D01*
X16549944Y-16589936D02*
X16559468Y-16580412D01*
X16635658Y-16675650D02*
X16635658Y-16808984D01*
X16635658Y-16694698D02*
X16645182Y-16685174D01*
X16645182Y-16685174D02*
X16664230Y-16675650D01*
X16664230Y-16675650D02*
X16692801Y-16675650D01*
X16692801Y-16675650D02*
X16711849Y-16685174D01*
X16711849Y-16685174D02*
X16721372Y-16704222D01*
X16721372Y-16704222D02*
X16721372Y-16808984D01*
X16845182Y-16808984D02*
X16826134Y-16799460D01*
X16826134Y-16799460D02*
X16816611Y-16789936D01*
X16816611Y-16789936D02*
X16807087Y-16770888D01*
X16807087Y-16770888D02*
X16807087Y-16713746D01*
X16807087Y-16713746D02*
X16816611Y-16694698D01*
X16816611Y-16694698D02*
X16826134Y-16685174D01*
X16826134Y-16685174D02*
X16845182Y-16675650D01*
X16845182Y-16675650D02*
X16873754Y-16675650D01*
X16873754Y-16675650D02*
X16892801Y-16685174D01*
X16892801Y-16685174D02*
X16902325Y-16694698D01*
X16902325Y-16694698D02*
X16911849Y-16713746D01*
X16911849Y-16713746D02*
X16911849Y-16770888D01*
X16911849Y-16770888D02*
X16902325Y-16789936D01*
X16902325Y-16789936D02*
X16892801Y-16799460D01*
X16892801Y-16799460D02*
X16873754Y-16808984D01*
X16873754Y-16808984D02*
X16845182Y-16808984D01*
X16968992Y-16675650D02*
X17045182Y-16675650D01*
X16997563Y-16608984D02*
X16997563Y-16780412D01*
X16997563Y-16780412D02*
X17007087Y-16799460D01*
X17007087Y-16799460D02*
X17026134Y-16808984D01*
X17026134Y-16808984D02*
X17045182Y-16808984D01*
X17264230Y-16675650D02*
X17264230Y-16875650D01*
X17264230Y-16685174D02*
X17283277Y-16675650D01*
X17283277Y-16675650D02*
X17321373Y-16675650D01*
X17321373Y-16675650D02*
X17340420Y-16685174D01*
X17340420Y-16685174D02*
X17349944Y-16694698D01*
X17349944Y-16694698D02*
X17359468Y-16713746D01*
X17359468Y-16713746D02*
X17359468Y-16770888D01*
X17359468Y-16770888D02*
X17349944Y-16789936D01*
X17349944Y-16789936D02*
X17340420Y-16799460D01*
X17340420Y-16799460D02*
X17321373Y-16808984D01*
X17321373Y-16808984D02*
X17283277Y-16808984D01*
X17283277Y-16808984D02*
X17264230Y-16799460D01*
X17473754Y-16808984D02*
X17454706Y-16799460D01*
X17454706Y-16799460D02*
X17445182Y-16780412D01*
X17445182Y-16780412D02*
X17445182Y-16608984D01*
X17635658Y-16808984D02*
X17635658Y-16704222D01*
X17635658Y-16704222D02*
X17626135Y-16685174D01*
X17626135Y-16685174D02*
X17607087Y-16675650D01*
X17607087Y-16675650D02*
X17568992Y-16675650D01*
X17568992Y-16675650D02*
X17549944Y-16685174D01*
X17635658Y-16799460D02*
X17616611Y-16808984D01*
X17616611Y-16808984D02*
X17568992Y-16808984D01*
X17568992Y-16808984D02*
X17549944Y-16799460D01*
X17549944Y-16799460D02*
X17540420Y-16780412D01*
X17540420Y-16780412D02*
X17540420Y-16761365D01*
X17540420Y-16761365D02*
X17549944Y-16742317D01*
X17549944Y-16742317D02*
X17568992Y-16732793D01*
X17568992Y-16732793D02*
X17616611Y-16732793D01*
X17616611Y-16732793D02*
X17635658Y-16723269D01*
X17702325Y-16675650D02*
X17778515Y-16675650D01*
X17730896Y-16608984D02*
X17730896Y-16780412D01*
X17730896Y-16780412D02*
X17740420Y-16799460D01*
X17740420Y-16799460D02*
X17759468Y-16808984D01*
X17759468Y-16808984D02*
X17778515Y-16808984D01*
X17921373Y-16799460D02*
X17902325Y-16808984D01*
X17902325Y-16808984D02*
X17864230Y-16808984D01*
X17864230Y-16808984D02*
X17845182Y-16799460D01*
X17845182Y-16799460D02*
X17835658Y-16780412D01*
X17835658Y-16780412D02*
X17835658Y-16704222D01*
X17835658Y-16704222D02*
X17845182Y-16685174D01*
X17845182Y-16685174D02*
X17864230Y-16675650D01*
X17864230Y-16675650D02*
X17902325Y-16675650D01*
X17902325Y-16675650D02*
X17921373Y-16685174D01*
X17921373Y-16685174D02*
X17930896Y-16704222D01*
X17930896Y-16704222D02*
X17930896Y-16723269D01*
X17930896Y-16723269D02*
X17835658Y-16742317D01*
X18102325Y-16808984D02*
X18102325Y-16608984D01*
X18102325Y-16799460D02*
X18083277Y-16808984D01*
X18083277Y-16808984D02*
X18045182Y-16808984D01*
X18045182Y-16808984D02*
X18026135Y-16799460D01*
X18026135Y-16799460D02*
X18016611Y-16789936D01*
X18016611Y-16789936D02*
X18007087Y-16770888D01*
X18007087Y-16770888D02*
X18007087Y-16713746D01*
X18007087Y-16713746D02*
X18016611Y-16694698D01*
X18016611Y-16694698D02*
X18026135Y-16685174D01*
X18026135Y-16685174D02*
X18045182Y-16675650D01*
X18045182Y-16675650D02*
X18083277Y-16675650D01*
X18083277Y-16675650D02*
X18102325Y-16685174D01*
X18178516Y-16885174D02*
X18188039Y-16875650D01*
X18188039Y-16875650D02*
X18207087Y-16847079D01*
X18207087Y-16847079D02*
X18216611Y-16828031D01*
X18216611Y-16828031D02*
X18226135Y-16799460D01*
X18226135Y-16799460D02*
X18235658Y-16751841D01*
X18235658Y-16751841D02*
X18235658Y-16713746D01*
X18235658Y-16713746D02*
X18226135Y-16666127D01*
X18226135Y-16666127D02*
X18216611Y-16637555D01*
X18216611Y-16637555D02*
X18207087Y-16618508D01*
X18207087Y-16618508D02*
X18188039Y-16589936D01*
X18188039Y-16589936D02*
X18178516Y-16580412D01*
M02*
