M48
; DRILL file {KiCad 9.0.7} date 2026-05-21T19:34:22+0100
; FORMAT={-:-/ absolute / metric / decimal}
; #@! TF.CreationDate,2026-05-21T19:34:22+01:00
; #@! TF.GenerationSoftware,Kicad,Pcbnew,9.0.7
; #@! TF.FileFunction,Plated,1,2,PTH
FMAT,2
METRIC
; #@! TA.AperFunction,Plated,PTH,ViaDrill
T1C0.400
; #@! TA.AperFunction,Plated,PTH,ViaDrill
T2C0.500
; #@! TA.AperFunction,Plated,PTH,ComponentDrill
T3C0.800
; #@! TA.AperFunction,Plated,PTH,ComponentDrill
T4C0.900
; #@! TA.AperFunction,Plated,PTH,ComponentDrill
T5C1.000
; #@! TA.AperFunction,Plated,PTH,ComponentDrill
T6C1.100
; #@! TA.AperFunction,Plated,PTH,ComponentDrill
T7C1.110
; #@! TA.AperFunction,Plated,PTH,ComponentDrill
T8C1.270
; #@! TA.AperFunction,Plated,PTH,ComponentDrill
T9C1.500
; #@! TA.AperFunction,Plated,PTH,ComponentDrill
T10C4.550
%
G90
G05
T1
X127.0Y-131.25
X136.75Y-87.5
X138.25Y-132.5
X138.5Y-118.25
X138.5Y-128.25
X140.5Y-127.5
X140.75Y-120.75
X144.0Y-82.0
X146.0Y-129.75
X150.25Y-68.0
X152.5Y-87.25
X154.0Y-87.25
X155.25Y-87.25
X157.0Y-137.75
X159.25Y-150.0
T2
X131.5Y-139.25
X145.0Y-95.25
X167.75Y-117.75
T3
X146.5Y-117.2
X146.5Y-124.8
T4
X157.25Y-116.98
X157.25Y-119.52
X157.25Y-122.06
X157.25Y-124.6
X157.25Y-127.14
X157.25Y-129.68
X157.25Y-132.22
T5
X118.5Y-131.25
X118.5Y-137.75
X119.42Y-156.25
X121.96Y-156.25
X123.0Y-131.25
X123.0Y-137.75
X124.5Y-156.25
X165.17Y-156.0
X167.71Y-156.0
X170.25Y-156.0
T6
X119.5Y-140.59
X119.5Y-150.75
X130.21Y-156.161
X135.29Y-156.161
X140.75Y-92.0
X140.75Y-102.16
X141.0Y-136.84
X141.0Y-147.0
X141.96Y-66.75
X147.04Y-66.75
X147.46Y-156.411
X152.54Y-156.411
X168.0Y-83.0
X168.0Y-88.08
T7
X119.25Y-66.42
X119.25Y-68.96
X119.25Y-71.5
X119.25Y-74.04
X119.25Y-76.58
X119.25Y-79.12
X119.25Y-81.66
X119.25Y-84.2
X119.25Y-86.74
X119.25Y-89.28
X119.25Y-91.82
X119.25Y-94.36
X119.25Y-96.9
X119.25Y-99.44
X119.25Y-101.98
X119.25Y-104.52
X119.25Y-107.06
X119.25Y-109.6
X119.25Y-112.14
X119.25Y-114.68
X119.25Y-117.22
X119.25Y-119.76
X119.25Y-122.3
X119.25Y-124.84
X121.79Y-112.14
X122.3Y-72.77
X122.3Y-75.31
X122.3Y-77.85
X122.3Y-80.39
X122.3Y-82.93
X124.33Y-112.14
X126.87Y-112.14
X129.41Y-112.14
X131.95Y-68.96
X131.95Y-112.14
X134.49Y-66.42
X134.49Y-68.96
X134.49Y-71.5
X134.49Y-74.04
X134.49Y-76.58
X134.49Y-79.12
X134.49Y-81.66
X134.49Y-84.2
X134.49Y-86.74
X134.49Y-89.28
X134.49Y-91.82
X134.49Y-94.36
X134.49Y-96.9
X134.49Y-99.44
X134.49Y-101.98
X134.49Y-104.52
X134.49Y-107.06
X134.49Y-109.6
X134.49Y-112.14
X134.49Y-114.68
X134.49Y-117.22
X134.49Y-119.76
X134.49Y-122.3
X134.49Y-124.84
T8
X153.36Y-112.58
X155.9Y-112.58
X157.5Y-65.4
X157.5Y-67.95
X157.5Y-70.5
X158.44Y-112.58
X160.98Y-112.58
X163.52Y-112.58
X166.06Y-112.58
X168.6Y-112.58
X171.14Y-112.58
T9
X151.05Y-94.5
X170.95Y-94.5
T10
X167.5Y-67.05
X167.5Y-74.25
M30
