%TF.GenerationSoftware,KiCad,Pcbnew,9.0.7*%
%TF.CreationDate,2026-05-21T19:34:22+01:00*%
%TF.ProjectId,Pointy R1 Flight controller,506f696e-7479-4205-9231-20466c696768,rev?*%
%TF.SameCoordinates,Original*%
%TF.FileFunction,Drillmap*%
%TF.FilePolarity,Positive*%
%FSLAX45Y45*%
G04 Gerber Fmt 4.5, Leading zero omitted, Abs format (unit mm)*
G04 Created by KiCad (PCBNEW 9.0.7) date 2026-05-21 19:34:22*
%MOMM*%
%LPD*%
G01*
G04 APERTURE LIST*
%ADD10C,0.050000*%
%ADD11C,0.200000*%
%ADD12C,0.100000*%
%ADD13C,0.110000*%
%ADD14C,0.111000*%
%ADD15C,0.127000*%
%ADD16C,0.150000*%
%ADD17C,0.455000*%
G04 APERTURE END LIST*
D10*
X11425000Y-6075000D02*
X17425000Y-6075000D01*
X17425000Y-16075000D01*
X11425000Y-16075000D01*
X11425000Y-6075000D01*
D11*
D12*
X12680000Y-13105000D02*
X12720000Y-13145000D01*
X12720000Y-13105000D02*
X12680000Y-13145000D01*
X13655000Y-8730000D02*
X13695000Y-8770000D01*
X13695000Y-8730000D02*
X13655000Y-8770000D01*
X13805000Y-13230000D02*
X13845000Y-13270000D01*
X13845000Y-13230000D02*
X13805000Y-13270000D01*
X13830000Y-11805000D02*
X13870000Y-11845000D01*
X13870000Y-11805000D02*
X13830000Y-11845000D01*
X13830000Y-12805000D02*
X13870000Y-12845000D01*
X13870000Y-12805000D02*
X13830000Y-12845000D01*
X14030000Y-12730000D02*
X14070000Y-12770000D01*
X14070000Y-12730000D02*
X14030000Y-12770000D01*
X14055000Y-12055000D02*
X14095000Y-12095000D01*
X14095000Y-12055000D02*
X14055000Y-12095000D01*
X14380000Y-8180000D02*
X14420000Y-8220000D01*
X14420000Y-8180000D02*
X14380000Y-8220000D01*
X14580000Y-12955000D02*
X14620000Y-12995000D01*
X14620000Y-12955000D02*
X14580000Y-12995000D01*
X15005000Y-6780000D02*
X15045000Y-6820000D01*
X15045000Y-6780000D02*
X15005000Y-6820000D01*
X15230000Y-8705000D02*
X15270000Y-8745000D01*
X15270000Y-8705000D02*
X15230000Y-8745000D01*
X15380000Y-8705000D02*
X15420000Y-8745000D01*
X15420000Y-8705000D02*
X15380000Y-8745000D01*
X15505000Y-8705000D02*
X15545000Y-8745000D01*
X15545000Y-8705000D02*
X15505000Y-8745000D01*
X15680000Y-13755000D02*
X15720000Y-13795000D01*
X15720000Y-13755000D02*
X15680000Y-13795000D01*
X15905000Y-14980000D02*
X15945000Y-15020000D01*
X15945000Y-14980000D02*
X15905000Y-15020000D01*
X13175000Y-13925000D02*
G75*
G02*
X13125000Y-13925000I-25000J0D01*
G01*
X13125000Y-13925000D02*
G75*
G02*
X13175000Y-13925000I25000J0D01*
G01*
X14525000Y-9525000D02*
G75*
G02*
X14475000Y-9525000I-25000J0D01*
G01*
X14475000Y-9525000D02*
G75*
G02*
X14525000Y-9525000I25000J0D01*
G01*
X16800000Y-11775000D02*
G75*
G02*
X16750000Y-11775000I-25000J0D01*
G01*
X16750000Y-11775000D02*
G75*
G02*
X16800000Y-11775000I25000J0D01*
G01*
X14650000Y-11680000D02*
X14650000Y-11760000D01*
X14610000Y-11720000D02*
X14690000Y-11720000D01*
X14650000Y-12440000D02*
X14650000Y-12520000D01*
X14610000Y-12480000D02*
X14690000Y-12480000D01*
X15756820Y-11729820D02*
X15756820Y-11666180D01*
X15693180Y-11666180D01*
X15693180Y-11729820D01*
X15756820Y-11729820D01*
X15756820Y-11983820D02*
X15756820Y-11920180D01*
X15693180Y-11920180D01*
X15693180Y-11983820D01*
X15756820Y-11983820D01*
X15756820Y-12237820D02*
X15756820Y-12174180D01*
X15693180Y-12174180D01*
X15693180Y-12237820D01*
X15756820Y-12237820D01*
X15756820Y-12491820D02*
X15756820Y-12428180D01*
X15693180Y-12428180D01*
X15693180Y-12491820D01*
X15756820Y-12491820D01*
X15756820Y-12745820D02*
X15756820Y-12682180D01*
X15693180Y-12682180D01*
X15693180Y-12745820D01*
X15756820Y-12745820D01*
X15756820Y-12999820D02*
X15756820Y-12936180D01*
X15693180Y-12936180D01*
X15693180Y-12999820D01*
X15756820Y-12999820D01*
X15756820Y-13253820D02*
X15756820Y-13190180D01*
X15693180Y-13190180D01*
X15693180Y-13253820D01*
X15756820Y-13253820D01*
X11850000Y-13175000D02*
X11900000Y-13125000D01*
X11850000Y-13075000D01*
X11800000Y-13125000D01*
X11850000Y-13175000D01*
X11850000Y-13825000D02*
X11900000Y-13775000D01*
X11850000Y-13725000D01*
X11800000Y-13775000D01*
X11850000Y-13825000D01*
X11942000Y-15675000D02*
X11992000Y-15625000D01*
X11942000Y-15575000D01*
X11892000Y-15625000D01*
X11942000Y-15675000D01*
X12196000Y-15675000D02*
X12246000Y-15625000D01*
X12196000Y-15575000D01*
X12146000Y-15625000D01*
X12196000Y-15675000D01*
X12300000Y-13175000D02*
X12350000Y-13125000D01*
X12300000Y-13075000D01*
X12250000Y-13125000D01*
X12300000Y-13175000D01*
X12300000Y-13825000D02*
X12350000Y-13775000D01*
X12300000Y-13725000D01*
X12250000Y-13775000D01*
X12300000Y-13825000D01*
X12450000Y-15675000D02*
X12500000Y-15625000D01*
X12450000Y-15575000D01*
X12400000Y-15625000D01*
X12450000Y-15675000D01*
X16517000Y-15650000D02*
X16567000Y-15600000D01*
X16517000Y-15550000D01*
X16467000Y-15600000D01*
X16517000Y-15650000D01*
X16771000Y-15650000D02*
X16821000Y-15600000D01*
X16771000Y-15550000D01*
X16721000Y-15600000D01*
X16771000Y-15650000D01*
X17025000Y-15650000D02*
X17075000Y-15600000D01*
X17025000Y-15550000D01*
X16975000Y-15600000D01*
X17025000Y-15650000D01*
D13*
X11895000Y-14004000D02*
X12005000Y-14114000D01*
X12005000Y-14004000D02*
X11895000Y-14114000D01*
X12005000Y-14059000D02*
G75*
G02*
X11895000Y-14059000I-55000J0D01*
G01*
X11895000Y-14059000D02*
G75*
G02*
X12005000Y-14059000I55000J0D01*
G01*
X11895000Y-15020000D02*
X12005000Y-15130000D01*
X12005000Y-15020000D02*
X11895000Y-15130000D01*
X12005000Y-15075000D02*
G75*
G02*
X11895000Y-15075000I-55000J0D01*
G01*
X11895000Y-15075000D02*
G75*
G02*
X12005000Y-15075000I55000J0D01*
G01*
X12966000Y-15561130D02*
X13076000Y-15671130D01*
X13076000Y-15561130D02*
X12966000Y-15671130D01*
X13076000Y-15616130D02*
G75*
G02*
X12966000Y-15616130I-55000J0D01*
G01*
X12966000Y-15616130D02*
G75*
G02*
X13076000Y-15616130I55000J0D01*
G01*
X13474000Y-15561130D02*
X13584000Y-15671130D01*
X13584000Y-15561130D02*
X13474000Y-15671130D01*
X13584000Y-15616130D02*
G75*
G02*
X13474000Y-15616130I-55000J0D01*
G01*
X13474000Y-15616130D02*
G75*
G02*
X13584000Y-15616130I55000J0D01*
G01*
X14020000Y-9145000D02*
X14130000Y-9255000D01*
X14130000Y-9145000D02*
X14020000Y-9255000D01*
X14130000Y-9200000D02*
G75*
G02*
X14020000Y-9200000I-55000J0D01*
G01*
X14020000Y-9200000D02*
G75*
G02*
X14130000Y-9200000I55000J0D01*
G01*
X14020000Y-10161000D02*
X14130000Y-10271000D01*
X14130000Y-10161000D02*
X14020000Y-10271000D01*
X14130000Y-10216000D02*
G75*
G02*
X14020000Y-10216000I-55000J0D01*
G01*
X14020000Y-10216000D02*
G75*
G02*
X14130000Y-10216000I55000J0D01*
G01*
X14045000Y-13629000D02*
X14155000Y-13739000D01*
X14155000Y-13629000D02*
X14045000Y-13739000D01*
X14155000Y-13684000D02*
G75*
G02*
X14045000Y-13684000I-55000J0D01*
G01*
X14045000Y-13684000D02*
G75*
G02*
X14155000Y-13684000I55000J0D01*
G01*
X14045000Y-14645000D02*
X14155000Y-14755000D01*
X14155000Y-14645000D02*
X14045000Y-14755000D01*
X14155000Y-14700000D02*
G75*
G02*
X14045000Y-14700000I-55000J0D01*
G01*
X14045000Y-14700000D02*
G75*
G02*
X14155000Y-14700000I55000J0D01*
G01*
X14141000Y-6620000D02*
X14251000Y-6730000D01*
X14251000Y-6620000D02*
X14141000Y-6730000D01*
X14251000Y-6675000D02*
G75*
G02*
X14141000Y-6675000I-55000J0D01*
G01*
X14141000Y-6675000D02*
G75*
G02*
X14251000Y-6675000I55000J0D01*
G01*
X14649000Y-6620000D02*
X14759000Y-6730000D01*
X14759000Y-6620000D02*
X14649000Y-6730000D01*
X14759000Y-6675000D02*
G75*
G02*
X14649000Y-6675000I-55000J0D01*
G01*
X14649000Y-6675000D02*
G75*
G02*
X14759000Y-6675000I55000J0D01*
G01*
X14691000Y-15586130D02*
X14801000Y-15696130D01*
X14801000Y-15586130D02*
X14691000Y-15696130D01*
X14801000Y-15641130D02*
G75*
G02*
X14691000Y-15641130I-55000J0D01*
G01*
X14691000Y-15641130D02*
G75*
G02*
X14801000Y-15641130I55000J0D01*
G01*
X15199000Y-15586130D02*
X15309000Y-15696130D01*
X15309000Y-15586130D02*
X15199000Y-15696130D01*
X15309000Y-15641130D02*
G75*
G02*
X15199000Y-15641130I-55000J0D01*
G01*
X15199000Y-15641130D02*
G75*
G02*
X15309000Y-15641130I55000J0D01*
G01*
X16745000Y-8245000D02*
X16855000Y-8355000D01*
X16855000Y-8245000D02*
X16745000Y-8355000D01*
X16855000Y-8300000D02*
G75*
G02*
X16745000Y-8300000I-55000J0D01*
G01*
X16745000Y-8300000D02*
G75*
G02*
X16855000Y-8300000I55000J0D01*
G01*
X16745000Y-8753000D02*
X16855000Y-8863000D01*
X16855000Y-8753000D02*
X16745000Y-8863000D01*
X16855000Y-8808000D02*
G75*
G02*
X16745000Y-8808000I-55000J0D01*
G01*
X16745000Y-8808000D02*
G75*
G02*
X16855000Y-8808000I55000J0D01*
G01*
D14*
X11869500Y-6586500D02*
X11980500Y-6697500D01*
X11980500Y-6586500D02*
X11869500Y-6697500D01*
X11925000Y-6586500D02*
X11925000Y-6697500D01*
X11869500Y-6642000D02*
X11980500Y-6642000D01*
X11869500Y-6840500D02*
X11980500Y-6951500D01*
X11980500Y-6840500D02*
X11869500Y-6951500D01*
X11925000Y-6840500D02*
X11925000Y-6951500D01*
X11869500Y-6896000D02*
X11980500Y-6896000D01*
X11869500Y-7094500D02*
X11980500Y-7205500D01*
X11980500Y-7094500D02*
X11869500Y-7205500D01*
X11925000Y-7094500D02*
X11925000Y-7205500D01*
X11869500Y-7150000D02*
X11980500Y-7150000D01*
X11869500Y-7348500D02*
X11980500Y-7459500D01*
X11980500Y-7348500D02*
X11869500Y-7459500D01*
X11925000Y-7348500D02*
X11925000Y-7459500D01*
X11869500Y-7404000D02*
X11980500Y-7404000D01*
X11869500Y-7602500D02*
X11980500Y-7713500D01*
X11980500Y-7602500D02*
X11869500Y-7713500D01*
X11925000Y-7602500D02*
X11925000Y-7713500D01*
X11869500Y-7658000D02*
X11980500Y-7658000D01*
X11869500Y-7856500D02*
X11980500Y-7967500D01*
X11980500Y-7856500D02*
X11869500Y-7967500D01*
X11925000Y-7856500D02*
X11925000Y-7967500D01*
X11869500Y-7912000D02*
X11980500Y-7912000D01*
X11869500Y-8110500D02*
X11980500Y-8221500D01*
X11980500Y-8110500D02*
X11869500Y-8221500D01*
X11925000Y-8110500D02*
X11925000Y-8221500D01*
X11869500Y-8166000D02*
X11980500Y-8166000D01*
X11869500Y-8364500D02*
X11980500Y-8475500D01*
X11980500Y-8364500D02*
X11869500Y-8475500D01*
X11925000Y-8364500D02*
X11925000Y-8475500D01*
X11869500Y-8420000D02*
X11980500Y-8420000D01*
X11869500Y-8618500D02*
X11980500Y-8729500D01*
X11980500Y-8618500D02*
X11869500Y-8729500D01*
X11925000Y-8618500D02*
X11925000Y-8729500D01*
X11869500Y-8674000D02*
X11980500Y-8674000D01*
X11869500Y-8872500D02*
X11980500Y-8983500D01*
X11980500Y-8872500D02*
X11869500Y-8983500D01*
X11925000Y-8872500D02*
X11925000Y-8983500D01*
X11869500Y-8928000D02*
X11980500Y-8928000D01*
X11869500Y-9126500D02*
X11980500Y-9237500D01*
X11980500Y-9126500D02*
X11869500Y-9237500D01*
X11925000Y-9126500D02*
X11925000Y-9237500D01*
X11869500Y-9182000D02*
X11980500Y-9182000D01*
X11869500Y-9380500D02*
X11980500Y-9491500D01*
X11980500Y-9380500D02*
X11869500Y-9491500D01*
X11925000Y-9380500D02*
X11925000Y-9491500D01*
X11869500Y-9436000D02*
X11980500Y-9436000D01*
X11869500Y-9634500D02*
X11980500Y-9745500D01*
X11980500Y-9634500D02*
X11869500Y-9745500D01*
X11925000Y-9634500D02*
X11925000Y-9745500D01*
X11869500Y-9690000D02*
X11980500Y-9690000D01*
X11869500Y-9888500D02*
X11980500Y-9999500D01*
X11980500Y-9888500D02*
X11869500Y-9999500D01*
X11925000Y-9888500D02*
X11925000Y-9999500D01*
X11869500Y-9944000D02*
X11980500Y-9944000D01*
X11869500Y-10142500D02*
X11980500Y-10253500D01*
X11980500Y-10142500D02*
X11869500Y-10253500D01*
X11925000Y-10142500D02*
X11925000Y-10253500D01*
X11869500Y-10198000D02*
X11980500Y-10198000D01*
X11869500Y-10396500D02*
X11980500Y-10507500D01*
X11980500Y-10396500D02*
X11869500Y-10507500D01*
X11925000Y-10396500D02*
X11925000Y-10507500D01*
X11869500Y-10452000D02*
X11980500Y-10452000D01*
X11869500Y-10650500D02*
X11980500Y-10761500D01*
X11980500Y-10650500D02*
X11869500Y-10761500D01*
X11925000Y-10650500D02*
X11925000Y-10761500D01*
X11869500Y-10706000D02*
X11980500Y-10706000D01*
X11869500Y-10904500D02*
X11980500Y-11015500D01*
X11980500Y-10904500D02*
X11869500Y-11015500D01*
X11925000Y-10904500D02*
X11925000Y-11015500D01*
X11869500Y-10960000D02*
X11980500Y-10960000D01*
X11869500Y-11158500D02*
X11980500Y-11269500D01*
X11980500Y-11158500D02*
X11869500Y-11269500D01*
X11925000Y-11158500D02*
X11925000Y-11269500D01*
X11869500Y-11214000D02*
X11980500Y-11214000D01*
X11869500Y-11412500D02*
X11980500Y-11523500D01*
X11980500Y-11412500D02*
X11869500Y-11523500D01*
X11925000Y-11412500D02*
X11925000Y-11523500D01*
X11869500Y-11468000D02*
X11980500Y-11468000D01*
X11869500Y-11666500D02*
X11980500Y-11777500D01*
X11980500Y-11666500D02*
X11869500Y-11777500D01*
X11925000Y-11666500D02*
X11925000Y-11777500D01*
X11869500Y-11722000D02*
X11980500Y-11722000D01*
X11869500Y-11920500D02*
X11980500Y-12031500D01*
X11980500Y-11920500D02*
X11869500Y-12031500D01*
X11925000Y-11920500D02*
X11925000Y-12031500D01*
X11869500Y-11976000D02*
X11980500Y-11976000D01*
X11869500Y-12174500D02*
X11980500Y-12285500D01*
X11980500Y-12174500D02*
X11869500Y-12285500D01*
X11925000Y-12174500D02*
X11925000Y-12285500D01*
X11869500Y-12230000D02*
X11980500Y-12230000D01*
X11869500Y-12428500D02*
X11980500Y-12539500D01*
X11980500Y-12428500D02*
X11869500Y-12539500D01*
X11925000Y-12428500D02*
X11925000Y-12539500D01*
X11869500Y-12484000D02*
X11980500Y-12484000D01*
X12123500Y-11158500D02*
X12234500Y-11269500D01*
X12234500Y-11158500D02*
X12123500Y-11269500D01*
X12179000Y-11158500D02*
X12179000Y-11269500D01*
X12123500Y-11214000D02*
X12234500Y-11214000D01*
X12174500Y-7221500D02*
X12285500Y-7332500D01*
X12285500Y-7221500D02*
X12174500Y-7332500D01*
X12230000Y-7221500D02*
X12230000Y-7332500D01*
X12174500Y-7277000D02*
X12285500Y-7277000D01*
X12174500Y-7475500D02*
X12285500Y-7586500D01*
X12285500Y-7475500D02*
X12174500Y-7586500D01*
X12230000Y-7475500D02*
X12230000Y-7586500D01*
X12174500Y-7531000D02*
X12285500Y-7531000D01*
X12174500Y-7729500D02*
X12285500Y-7840500D01*
X12285500Y-7729500D02*
X12174500Y-7840500D01*
X12230000Y-7729500D02*
X12230000Y-7840500D01*
X12174500Y-7785000D02*
X12285500Y-7785000D01*
X12174500Y-7983500D02*
X12285500Y-8094500D01*
X12285500Y-7983500D02*
X12174500Y-8094500D01*
X12230000Y-7983500D02*
X12230000Y-8094500D01*
X12174500Y-8039000D02*
X12285500Y-8039000D01*
X12174500Y-8237500D02*
X12285500Y-8348500D01*
X12285500Y-8237500D02*
X12174500Y-8348500D01*
X12230000Y-8237500D02*
X12230000Y-8348500D01*
X12174500Y-8293000D02*
X12285500Y-8293000D01*
X12377500Y-11158500D02*
X12488500Y-11269500D01*
X12488500Y-11158500D02*
X12377500Y-11269500D01*
X12433000Y-11158500D02*
X12433000Y-11269500D01*
X12377500Y-11214000D02*
X12488500Y-11214000D01*
X12631500Y-11158500D02*
X12742500Y-11269500D01*
X12742500Y-11158500D02*
X12631500Y-11269500D01*
X12687000Y-11158500D02*
X12687000Y-11269500D01*
X12631500Y-11214000D02*
X12742500Y-11214000D01*
X12885500Y-11158500D02*
X12996500Y-11269500D01*
X12996500Y-11158500D02*
X12885500Y-11269500D01*
X12941000Y-11158500D02*
X12941000Y-11269500D01*
X12885500Y-11214000D02*
X12996500Y-11214000D01*
X13139500Y-6840500D02*
X13250500Y-6951500D01*
X13250500Y-6840500D02*
X13139500Y-6951500D01*
X13195000Y-6840500D02*
X13195000Y-6951500D01*
X13139500Y-6896000D02*
X13250500Y-6896000D01*
X13139500Y-11158500D02*
X13250500Y-11269500D01*
X13250500Y-11158500D02*
X13139500Y-11269500D01*
X13195000Y-11158500D02*
X13195000Y-11269500D01*
X13139500Y-11214000D02*
X13250500Y-11214000D01*
X13393500Y-6586500D02*
X13504500Y-6697500D01*
X13504500Y-6586500D02*
X13393500Y-6697500D01*
X13449000Y-6586500D02*
X13449000Y-6697500D01*
X13393500Y-6642000D02*
X13504500Y-6642000D01*
X13393500Y-6840500D02*
X13504500Y-6951500D01*
X13504500Y-6840500D02*
X13393500Y-6951500D01*
X13449000Y-6840500D02*
X13449000Y-6951500D01*
X13393500Y-6896000D02*
X13504500Y-6896000D01*
X13393500Y-7094500D02*
X13504500Y-7205500D01*
X13504500Y-7094500D02*
X13393500Y-7205500D01*
X13449000Y-7094500D02*
X13449000Y-7205500D01*
X13393500Y-7150000D02*
X13504500Y-7150000D01*
X13393500Y-7348500D02*
X13504500Y-7459500D01*
X13504500Y-7348500D02*
X13393500Y-7459500D01*
X13449000Y-7348500D02*
X13449000Y-7459500D01*
X13393500Y-7404000D02*
X13504500Y-7404000D01*
X13393500Y-7602500D02*
X13504500Y-7713500D01*
X13504500Y-7602500D02*
X13393500Y-7713500D01*
X13449000Y-7602500D02*
X13449000Y-7713500D01*
X13393500Y-7658000D02*
X13504500Y-7658000D01*
X13393500Y-7856500D02*
X13504500Y-7967500D01*
X13504500Y-7856500D02*
X13393500Y-7967500D01*
X13449000Y-7856500D02*
X13449000Y-7967500D01*
X13393500Y-7912000D02*
X13504500Y-7912000D01*
X13393500Y-8110500D02*
X13504500Y-8221500D01*
X13504500Y-8110500D02*
X13393500Y-8221500D01*
X13449000Y-8110500D02*
X13449000Y-8221500D01*
X13393500Y-8166000D02*
X13504500Y-8166000D01*
X13393500Y-8364500D02*
X13504500Y-8475500D01*
X13504500Y-8364500D02*
X13393500Y-8475500D01*
X13449000Y-8364500D02*
X13449000Y-8475500D01*
X13393500Y-8420000D02*
X13504500Y-8420000D01*
X13393500Y-8618500D02*
X13504500Y-8729500D01*
X13504500Y-8618500D02*
X13393500Y-8729500D01*
X13449000Y-8618500D02*
X13449000Y-8729500D01*
X13393500Y-8674000D02*
X13504500Y-8674000D01*
X13393500Y-8872500D02*
X13504500Y-8983500D01*
X13504500Y-8872500D02*
X13393500Y-8983500D01*
X13449000Y-8872500D02*
X13449000Y-8983500D01*
X13393500Y-8928000D02*
X13504500Y-8928000D01*
X13393500Y-9126500D02*
X13504500Y-9237500D01*
X13504500Y-9126500D02*
X13393500Y-9237500D01*
X13449000Y-9126500D02*
X13449000Y-9237500D01*
X13393500Y-9182000D02*
X13504500Y-9182000D01*
X13393500Y-9380500D02*
X13504500Y-9491500D01*
X13504500Y-9380500D02*
X13393500Y-9491500D01*
X13449000Y-9380500D02*
X13449000Y-9491500D01*
X13393500Y-9436000D02*
X13504500Y-9436000D01*
X13393500Y-9634500D02*
X13504500Y-9745500D01*
X13504500Y-9634500D02*
X13393500Y-9745500D01*
X13449000Y-9634500D02*
X13449000Y-9745500D01*
X13393500Y-9690000D02*
X13504500Y-9690000D01*
X13393500Y-9888500D02*
X13504500Y-9999500D01*
X13504500Y-9888500D02*
X13393500Y-9999500D01*
X13449000Y-9888500D02*
X13449000Y-9999500D01*
X13393500Y-9944000D02*
X13504500Y-9944000D01*
X13393500Y-10142500D02*
X13504500Y-10253500D01*
X13504500Y-10142500D02*
X13393500Y-10253500D01*
X13449000Y-10142500D02*
X13449000Y-10253500D01*
X13393500Y-10198000D02*
X13504500Y-10198000D01*
X13393500Y-10396500D02*
X13504500Y-10507500D01*
X13504500Y-10396500D02*
X13393500Y-10507500D01*
X13449000Y-10396500D02*
X13449000Y-10507500D01*
X13393500Y-10452000D02*
X13504500Y-10452000D01*
X13393500Y-10650500D02*
X13504500Y-10761500D01*
X13504500Y-10650500D02*
X13393500Y-10761500D01*
X13449000Y-10650500D02*
X13449000Y-10761500D01*
X13393500Y-10706000D02*
X13504500Y-10706000D01*
X13393500Y-10904500D02*
X13504500Y-11015500D01*
X13504500Y-10904500D02*
X13393500Y-11015500D01*
X13449000Y-10904500D02*
X13449000Y-11015500D01*
X13393500Y-10960000D02*
X13504500Y-10960000D01*
X13393500Y-11158500D02*
X13504500Y-11269500D01*
X13504500Y-11158500D02*
X13393500Y-11269500D01*
X13449000Y-11158500D02*
X13449000Y-11269500D01*
X13393500Y-11214000D02*
X13504500Y-11214000D01*
X13393500Y-11412500D02*
X13504500Y-11523500D01*
X13504500Y-11412500D02*
X13393500Y-11523500D01*
X13449000Y-11412500D02*
X13449000Y-11523500D01*
X13393500Y-11468000D02*
X13504500Y-11468000D01*
X13393500Y-11666500D02*
X13504500Y-11777500D01*
X13504500Y-11666500D02*
X13393500Y-11777500D01*
X13449000Y-11666500D02*
X13449000Y-11777500D01*
X13393500Y-11722000D02*
X13504500Y-11722000D01*
X13393500Y-11920500D02*
X13504500Y-12031500D01*
X13504500Y-11920500D02*
X13393500Y-12031500D01*
X13449000Y-11920500D02*
X13449000Y-12031500D01*
X13393500Y-11976000D02*
X13504500Y-11976000D01*
X13393500Y-12174500D02*
X13504500Y-12285500D01*
X13504500Y-12174500D02*
X13393500Y-12285500D01*
X13449000Y-12174500D02*
X13449000Y-12285500D01*
X13393500Y-12230000D02*
X13504500Y-12230000D01*
X13393500Y-12428500D02*
X13504500Y-12539500D01*
X13504500Y-12428500D02*
X13393500Y-12539500D01*
X13449000Y-12428500D02*
X13449000Y-12539500D01*
X13393500Y-12484000D02*
X13504500Y-12484000D01*
D15*
X15272500Y-11194500D02*
X15399500Y-11321500D01*
X15399500Y-11194500D02*
X15272500Y-11321500D01*
X15380902Y-11302902D02*
X15380902Y-11213098D01*
X15291098Y-11213098D01*
X15291098Y-11302902D01*
X15380902Y-11302902D01*
X15526500Y-11194500D02*
X15653500Y-11321500D01*
X15653500Y-11194500D02*
X15526500Y-11321500D01*
X15634902Y-11302902D02*
X15634902Y-11213098D01*
X15545098Y-11213098D01*
X15545098Y-11302902D01*
X15634902Y-11302902D01*
X15686500Y-6476500D02*
X15813500Y-6603500D01*
X15813500Y-6476500D02*
X15686500Y-6603500D01*
X15794902Y-6584902D02*
X15794902Y-6495098D01*
X15705098Y-6495098D01*
X15705098Y-6584902D01*
X15794902Y-6584902D01*
X15686500Y-6731500D02*
X15813500Y-6858500D01*
X15813500Y-6731500D02*
X15686500Y-6858500D01*
X15794902Y-6839902D02*
X15794902Y-6750098D01*
X15705098Y-6750098D01*
X15705098Y-6839902D01*
X15794902Y-6839902D01*
X15686500Y-6986500D02*
X15813500Y-7113500D01*
X15813500Y-6986500D02*
X15686500Y-7113500D01*
X15794902Y-7094902D02*
X15794902Y-7005098D01*
X15705098Y-7005098D01*
X15705098Y-7094902D01*
X15794902Y-7094902D01*
X15780500Y-11194500D02*
X15907500Y-11321500D01*
X15907500Y-11194500D02*
X15780500Y-11321500D01*
X15888902Y-11302902D02*
X15888902Y-11213098D01*
X15799098Y-11213098D01*
X15799098Y-11302902D01*
X15888902Y-11302902D01*
X16034500Y-11194500D02*
X16161500Y-11321500D01*
X16161500Y-11194500D02*
X16034500Y-11321500D01*
X16142902Y-11302902D02*
X16142902Y-11213098D01*
X16053098Y-11213098D01*
X16053098Y-11302902D01*
X16142902Y-11302902D01*
X16288500Y-11194500D02*
X16415500Y-11321500D01*
X16415500Y-11194500D02*
X16288500Y-11321500D01*
X16396902Y-11302902D02*
X16396902Y-11213098D01*
X16307098Y-11213098D01*
X16307098Y-11302902D01*
X16396902Y-11302902D01*
X16542500Y-11194500D02*
X16669500Y-11321500D01*
X16669500Y-11194500D02*
X16542500Y-11321500D01*
X16650902Y-11302902D02*
X16650902Y-11213098D01*
X16561098Y-11213098D01*
X16561098Y-11302902D01*
X16650902Y-11302902D01*
X16796500Y-11194500D02*
X16923500Y-11321500D01*
X16923500Y-11194500D02*
X16796500Y-11321500D01*
X16904902Y-11302902D02*
X16904902Y-11213098D01*
X16815098Y-11213098D01*
X16815098Y-11302902D01*
X16904902Y-11302902D01*
X17050500Y-11194500D02*
X17177500Y-11321500D01*
X17177500Y-11194500D02*
X17050500Y-11321500D01*
X17158902Y-11302902D02*
X17158902Y-11213098D01*
X17069098Y-11213098D01*
X17069098Y-11302902D01*
X17158902Y-11302902D01*
D16*
X15030000Y-9375000D02*
X15180000Y-9525000D01*
X15180000Y-9375000D02*
X15030000Y-9525000D01*
X15105000Y-9525000D02*
X15180000Y-9450000D01*
X15105000Y-9375000D01*
X15030000Y-9450000D01*
X15105000Y-9525000D01*
X17020000Y-9375000D02*
X17170000Y-9525000D01*
X17170000Y-9375000D02*
X17020000Y-9525000D01*
X17095000Y-9525000D02*
X17170000Y-9450000D01*
X17095000Y-9375000D01*
X17020000Y-9450000D01*
X17095000Y-9525000D01*
D17*
X16750000Y-6477500D02*
X16750000Y-6932500D01*
X16522500Y-6705000D02*
X16977500Y-6705000D01*
X16977500Y-6705000D02*
G75*
G02*
X16522500Y-6705000I-227500J0D01*
G01*
X16522500Y-6705000D02*
G75*
G02*
X16977500Y-6705000I227500J0D01*
G01*
X16750000Y-7197500D02*
X16750000Y-7652500D01*
X16522500Y-7425000D02*
X16977500Y-7425000D01*
X16977500Y-7425000D02*
G75*
G02*
X16522500Y-7425000I-227500J0D01*
G01*
X16522500Y-7425000D02*
G75*
G02*
X16977500Y-7425000I227500J0D01*
G01*
D11*
X11683277Y-16388984D02*
X11683277Y-16188984D01*
X11683277Y-16188984D02*
X11730896Y-16188984D01*
X11730896Y-16188984D02*
X11759467Y-16198508D01*
X11759467Y-16198508D02*
X11778515Y-16217555D01*
X11778515Y-16217555D02*
X11788039Y-16236603D01*
X11788039Y-16236603D02*
X11797562Y-16274698D01*
X11797562Y-16274698D02*
X11797562Y-16303269D01*
X11797562Y-16303269D02*
X11788039Y-16341365D01*
X11788039Y-16341365D02*
X11778515Y-16360412D01*
X11778515Y-16360412D02*
X11759467Y-16379460D01*
X11759467Y-16379460D02*
X11730896Y-16388984D01*
X11730896Y-16388984D02*
X11683277Y-16388984D01*
X11883277Y-16388984D02*
X11883277Y-16255650D01*
X11883277Y-16293746D02*
X11892801Y-16274698D01*
X11892801Y-16274698D02*
X11902324Y-16265174D01*
X11902324Y-16265174D02*
X11921372Y-16255650D01*
X11921372Y-16255650D02*
X11940420Y-16255650D01*
X12007086Y-16388984D02*
X12007086Y-16255650D01*
X12007086Y-16188984D02*
X11997562Y-16198508D01*
X11997562Y-16198508D02*
X12007086Y-16208031D01*
X12007086Y-16208031D02*
X12016610Y-16198508D01*
X12016610Y-16198508D02*
X12007086Y-16188984D01*
X12007086Y-16188984D02*
X12007086Y-16208031D01*
X12130896Y-16388984D02*
X12111848Y-16379460D01*
X12111848Y-16379460D02*
X12102324Y-16360412D01*
X12102324Y-16360412D02*
X12102324Y-16188984D01*
X12235658Y-16388984D02*
X12216610Y-16379460D01*
X12216610Y-16379460D02*
X12207086Y-16360412D01*
X12207086Y-16360412D02*
X12207086Y-16188984D01*
X12464229Y-16388984D02*
X12464229Y-16188984D01*
X12464229Y-16188984D02*
X12530896Y-16331841D01*
X12530896Y-16331841D02*
X12597562Y-16188984D01*
X12597562Y-16188984D02*
X12597562Y-16388984D01*
X12778515Y-16388984D02*
X12778515Y-16284222D01*
X12778515Y-16284222D02*
X12768991Y-16265174D01*
X12768991Y-16265174D02*
X12749943Y-16255650D01*
X12749943Y-16255650D02*
X12711848Y-16255650D01*
X12711848Y-16255650D02*
X12692801Y-16265174D01*
X12778515Y-16379460D02*
X12759467Y-16388984D01*
X12759467Y-16388984D02*
X12711848Y-16388984D01*
X12711848Y-16388984D02*
X12692801Y-16379460D01*
X12692801Y-16379460D02*
X12683277Y-16360412D01*
X12683277Y-16360412D02*
X12683277Y-16341365D01*
X12683277Y-16341365D02*
X12692801Y-16322317D01*
X12692801Y-16322317D02*
X12711848Y-16312793D01*
X12711848Y-16312793D02*
X12759467Y-16312793D01*
X12759467Y-16312793D02*
X12778515Y-16303269D01*
X12873753Y-16255650D02*
X12873753Y-16455650D01*
X12873753Y-16265174D02*
X12892801Y-16255650D01*
X12892801Y-16255650D02*
X12930896Y-16255650D01*
X12930896Y-16255650D02*
X12949943Y-16265174D01*
X12949943Y-16265174D02*
X12959467Y-16274698D01*
X12959467Y-16274698D02*
X12968991Y-16293746D01*
X12968991Y-16293746D02*
X12968991Y-16350888D01*
X12968991Y-16350888D02*
X12959467Y-16369936D01*
X12959467Y-16369936D02*
X12949943Y-16379460D01*
X12949943Y-16379460D02*
X12930896Y-16388984D01*
X12930896Y-16388984D02*
X12892801Y-16388984D01*
X12892801Y-16388984D02*
X12873753Y-16379460D01*
X13054705Y-16369936D02*
X13064229Y-16379460D01*
X13064229Y-16379460D02*
X13054705Y-16388984D01*
X13054705Y-16388984D02*
X13045182Y-16379460D01*
X13045182Y-16379460D02*
X13054705Y-16369936D01*
X13054705Y-16369936D02*
X13054705Y-16388984D01*
X13054705Y-16265174D02*
X13064229Y-16274698D01*
X13064229Y-16274698D02*
X13054705Y-16284222D01*
X13054705Y-16284222D02*
X13045182Y-16274698D01*
X13045182Y-16274698D02*
X13054705Y-16265174D01*
X13054705Y-16265174D02*
X13054705Y-16284222D01*
D12*
X11382500Y-16697500D02*
X11422500Y-16737500D01*
X11422500Y-16697500D02*
X11382500Y-16737500D01*
D11*
X11721372Y-16608984D02*
X11740420Y-16608984D01*
X11740420Y-16608984D02*
X11759467Y-16618508D01*
X11759467Y-16618508D02*
X11768991Y-16628031D01*
X11768991Y-16628031D02*
X11778515Y-16647079D01*
X11778515Y-16647079D02*
X11788039Y-16685174D01*
X11788039Y-16685174D02*
X11788039Y-16732793D01*
X11788039Y-16732793D02*
X11778515Y-16770888D01*
X11778515Y-16770888D02*
X11768991Y-16789936D01*
X11768991Y-16789936D02*
X11759467Y-16799460D01*
X11759467Y-16799460D02*
X11740420Y-16808984D01*
X11740420Y-16808984D02*
X11721372Y-16808984D01*
X11721372Y-16808984D02*
X11702324Y-16799460D01*
X11702324Y-16799460D02*
X11692801Y-16789936D01*
X11692801Y-16789936D02*
X11683277Y-16770888D01*
X11683277Y-16770888D02*
X11673753Y-16732793D01*
X11673753Y-16732793D02*
X11673753Y-16685174D01*
X11673753Y-16685174D02*
X11683277Y-16647079D01*
X11683277Y-16647079D02*
X11692801Y-16628031D01*
X11692801Y-16628031D02*
X11702324Y-16618508D01*
X11702324Y-16618508D02*
X11721372Y-16608984D01*
X11873753Y-16789936D02*
X11883277Y-16799460D01*
X11883277Y-16799460D02*
X11873753Y-16808984D01*
X11873753Y-16808984D02*
X11864229Y-16799460D01*
X11864229Y-16799460D02*
X11873753Y-16789936D01*
X11873753Y-16789936D02*
X11873753Y-16808984D01*
X12054705Y-16675650D02*
X12054705Y-16808984D01*
X12007086Y-16599460D02*
X11959467Y-16742317D01*
X11959467Y-16742317D02*
X12083277Y-16742317D01*
X12197562Y-16608984D02*
X12216610Y-16608984D01*
X12216610Y-16608984D02*
X12235658Y-16618508D01*
X12235658Y-16618508D02*
X12245182Y-16628031D01*
X12245182Y-16628031D02*
X12254705Y-16647079D01*
X12254705Y-16647079D02*
X12264229Y-16685174D01*
X12264229Y-16685174D02*
X12264229Y-16732793D01*
X12264229Y-16732793D02*
X12254705Y-16770888D01*
X12254705Y-16770888D02*
X12245182Y-16789936D01*
X12245182Y-16789936D02*
X12235658Y-16799460D01*
X12235658Y-16799460D02*
X12216610Y-16808984D01*
X12216610Y-16808984D02*
X12197562Y-16808984D01*
X12197562Y-16808984D02*
X12178515Y-16799460D01*
X12178515Y-16799460D02*
X12168991Y-16789936D01*
X12168991Y-16789936D02*
X12159467Y-16770888D01*
X12159467Y-16770888D02*
X12149943Y-16732793D01*
X12149943Y-16732793D02*
X12149943Y-16685174D01*
X12149943Y-16685174D02*
X12159467Y-16647079D01*
X12159467Y-16647079D02*
X12168991Y-16628031D01*
X12168991Y-16628031D02*
X12178515Y-16618508D01*
X12178515Y-16618508D02*
X12197562Y-16608984D01*
X12388039Y-16608984D02*
X12407086Y-16608984D01*
X12407086Y-16608984D02*
X12426134Y-16618508D01*
X12426134Y-16618508D02*
X12435658Y-16628031D01*
X12435658Y-16628031D02*
X12445182Y-16647079D01*
X12445182Y-16647079D02*
X12454705Y-16685174D01*
X12454705Y-16685174D02*
X12454705Y-16732793D01*
X12454705Y-16732793D02*
X12445182Y-16770888D01*
X12445182Y-16770888D02*
X12435658Y-16789936D01*
X12435658Y-16789936D02*
X12426134Y-16799460D01*
X12426134Y-16799460D02*
X12407086Y-16808984D01*
X12407086Y-16808984D02*
X12388039Y-16808984D01*
X12388039Y-16808984D02*
X12368991Y-16799460D01*
X12368991Y-16799460D02*
X12359467Y-16789936D01*
X12359467Y-16789936D02*
X12349943Y-16770888D01*
X12349943Y-16770888D02*
X12340420Y-16732793D01*
X12340420Y-16732793D02*
X12340420Y-16685174D01*
X12340420Y-16685174D02*
X12349943Y-16647079D01*
X12349943Y-16647079D02*
X12359467Y-16628031D01*
X12359467Y-16628031D02*
X12368991Y-16618508D01*
X12368991Y-16618508D02*
X12388039Y-16608984D01*
X12540420Y-16808984D02*
X12540420Y-16675650D01*
X12540420Y-16694698D02*
X12549943Y-16685174D01*
X12549943Y-16685174D02*
X12568991Y-16675650D01*
X12568991Y-16675650D02*
X12597563Y-16675650D01*
X12597563Y-16675650D02*
X12616610Y-16685174D01*
X12616610Y-16685174D02*
X12626134Y-16704222D01*
X12626134Y-16704222D02*
X12626134Y-16808984D01*
X12626134Y-16704222D02*
X12635658Y-16685174D01*
X12635658Y-16685174D02*
X12654705Y-16675650D01*
X12654705Y-16675650D02*
X12683277Y-16675650D01*
X12683277Y-16675650D02*
X12702324Y-16685174D01*
X12702324Y-16685174D02*
X12711848Y-16704222D01*
X12711848Y-16704222D02*
X12711848Y-16808984D01*
X12807086Y-16808984D02*
X12807086Y-16675650D01*
X12807086Y-16694698D02*
X12816610Y-16685174D01*
X12816610Y-16685174D02*
X12835658Y-16675650D01*
X12835658Y-16675650D02*
X12864229Y-16675650D01*
X12864229Y-16675650D02*
X12883277Y-16685174D01*
X12883277Y-16685174D02*
X12892801Y-16704222D01*
X12892801Y-16704222D02*
X12892801Y-16808984D01*
X12892801Y-16704222D02*
X12902324Y-16685174D01*
X12902324Y-16685174D02*
X12921372Y-16675650D01*
X12921372Y-16675650D02*
X12949943Y-16675650D01*
X12949943Y-16675650D02*
X12968991Y-16685174D01*
X12968991Y-16685174D02*
X12978515Y-16704222D01*
X12978515Y-16704222D02*
X12978515Y-16808984D01*
X13368991Y-16599460D02*
X13197563Y-16856603D01*
X13626134Y-16608984D02*
X13645182Y-16608984D01*
X13645182Y-16608984D02*
X13664229Y-16618508D01*
X13664229Y-16618508D02*
X13673753Y-16628031D01*
X13673753Y-16628031D02*
X13683277Y-16647079D01*
X13683277Y-16647079D02*
X13692801Y-16685174D01*
X13692801Y-16685174D02*
X13692801Y-16732793D01*
X13692801Y-16732793D02*
X13683277Y-16770888D01*
X13683277Y-16770888D02*
X13673753Y-16789936D01*
X13673753Y-16789936D02*
X13664229Y-16799460D01*
X13664229Y-16799460D02*
X13645182Y-16808984D01*
X13645182Y-16808984D02*
X13626134Y-16808984D01*
X13626134Y-16808984D02*
X13607086Y-16799460D01*
X13607086Y-16799460D02*
X13597563Y-16789936D01*
X13597563Y-16789936D02*
X13588039Y-16770888D01*
X13588039Y-16770888D02*
X13578515Y-16732793D01*
X13578515Y-16732793D02*
X13578515Y-16685174D01*
X13578515Y-16685174D02*
X13588039Y-16647079D01*
X13588039Y-16647079D02*
X13597563Y-16628031D01*
X13597563Y-16628031D02*
X13607086Y-16618508D01*
X13607086Y-16618508D02*
X13626134Y-16608984D01*
X13778515Y-16789936D02*
X13788039Y-16799460D01*
X13788039Y-16799460D02*
X13778515Y-16808984D01*
X13778515Y-16808984D02*
X13768991Y-16799460D01*
X13768991Y-16799460D02*
X13778515Y-16789936D01*
X13778515Y-16789936D02*
X13778515Y-16808984D01*
X13911848Y-16608984D02*
X13930896Y-16608984D01*
X13930896Y-16608984D02*
X13949944Y-16618508D01*
X13949944Y-16618508D02*
X13959467Y-16628031D01*
X13959467Y-16628031D02*
X13968991Y-16647079D01*
X13968991Y-16647079D02*
X13978515Y-16685174D01*
X13978515Y-16685174D02*
X13978515Y-16732793D01*
X13978515Y-16732793D02*
X13968991Y-16770888D01*
X13968991Y-16770888D02*
X13959467Y-16789936D01*
X13959467Y-16789936D02*
X13949944Y-16799460D01*
X13949944Y-16799460D02*
X13930896Y-16808984D01*
X13930896Y-16808984D02*
X13911848Y-16808984D01*
X13911848Y-16808984D02*
X13892801Y-16799460D01*
X13892801Y-16799460D02*
X13883277Y-16789936D01*
X13883277Y-16789936D02*
X13873753Y-16770888D01*
X13873753Y-16770888D02*
X13864229Y-16732793D01*
X13864229Y-16732793D02*
X13864229Y-16685174D01*
X13864229Y-16685174D02*
X13873753Y-16647079D01*
X13873753Y-16647079D02*
X13883277Y-16628031D01*
X13883277Y-16628031D02*
X13892801Y-16618508D01*
X13892801Y-16618508D02*
X13911848Y-16608984D01*
X14168991Y-16808984D02*
X14054706Y-16808984D01*
X14111848Y-16808984D02*
X14111848Y-16608984D01*
X14111848Y-16608984D02*
X14092801Y-16637555D01*
X14092801Y-16637555D02*
X14073753Y-16656603D01*
X14073753Y-16656603D02*
X14054706Y-16666127D01*
X14349944Y-16608984D02*
X14254706Y-16608984D01*
X14254706Y-16608984D02*
X14245182Y-16704222D01*
X14245182Y-16704222D02*
X14254706Y-16694698D01*
X14254706Y-16694698D02*
X14273753Y-16685174D01*
X14273753Y-16685174D02*
X14321372Y-16685174D01*
X14321372Y-16685174D02*
X14340420Y-16694698D01*
X14340420Y-16694698D02*
X14349944Y-16704222D01*
X14349944Y-16704222D02*
X14359467Y-16723269D01*
X14359467Y-16723269D02*
X14359467Y-16770888D01*
X14359467Y-16770888D02*
X14349944Y-16789936D01*
X14349944Y-16789936D02*
X14340420Y-16799460D01*
X14340420Y-16799460D02*
X14321372Y-16808984D01*
X14321372Y-16808984D02*
X14273753Y-16808984D01*
X14273753Y-16808984D02*
X14254706Y-16799460D01*
X14254706Y-16799460D02*
X14245182Y-16789936D01*
X14426134Y-16608984D02*
X14559467Y-16608984D01*
X14559467Y-16608984D02*
X14473753Y-16808984D01*
X14626134Y-16608984D02*
X14626134Y-16647079D01*
X14702325Y-16608984D02*
X14702325Y-16647079D01*
X14997563Y-16885174D02*
X14988039Y-16875650D01*
X14988039Y-16875650D02*
X14968991Y-16847079D01*
X14968991Y-16847079D02*
X14959468Y-16828031D01*
X14959468Y-16828031D02*
X14949944Y-16799460D01*
X14949944Y-16799460D02*
X14940420Y-16751841D01*
X14940420Y-16751841D02*
X14940420Y-16713746D01*
X14940420Y-16713746D02*
X14949944Y-16666127D01*
X14949944Y-16666127D02*
X14959468Y-16637555D01*
X14959468Y-16637555D02*
X14968991Y-16618508D01*
X14968991Y-16618508D02*
X14988039Y-16589936D01*
X14988039Y-16589936D02*
X14997563Y-16580412D01*
X15178515Y-16808984D02*
X15064229Y-16808984D01*
X15121372Y-16808984D02*
X15121372Y-16608984D01*
X15121372Y-16608984D02*
X15102325Y-16637555D01*
X15102325Y-16637555D02*
X15083277Y-16656603D01*
X15083277Y-16656603D02*
X15064229Y-16666127D01*
X15359468Y-16608984D02*
X15264229Y-16608984D01*
X15264229Y-16608984D02*
X15254706Y-16704222D01*
X15254706Y-16704222D02*
X15264229Y-16694698D01*
X15264229Y-16694698D02*
X15283277Y-16685174D01*
X15283277Y-16685174D02*
X15330896Y-16685174D01*
X15330896Y-16685174D02*
X15349944Y-16694698D01*
X15349944Y-16694698D02*
X15359468Y-16704222D01*
X15359468Y-16704222D02*
X15368991Y-16723269D01*
X15368991Y-16723269D02*
X15368991Y-16770888D01*
X15368991Y-16770888D02*
X15359468Y-16789936D01*
X15359468Y-16789936D02*
X15349944Y-16799460D01*
X15349944Y-16799460D02*
X15330896Y-16808984D01*
X15330896Y-16808984D02*
X15283277Y-16808984D01*
X15283277Y-16808984D02*
X15264229Y-16799460D01*
X15264229Y-16799460D02*
X15254706Y-16789936D01*
X15607087Y-16808984D02*
X15607087Y-16608984D01*
X15692801Y-16808984D02*
X15692801Y-16704222D01*
X15692801Y-16704222D02*
X15683277Y-16685174D01*
X15683277Y-16685174D02*
X15664230Y-16675650D01*
X15664230Y-16675650D02*
X15635658Y-16675650D01*
X15635658Y-16675650D02*
X15616610Y-16685174D01*
X15616610Y-16685174D02*
X15607087Y-16694698D01*
X15816610Y-16808984D02*
X15797563Y-16799460D01*
X15797563Y-16799460D02*
X15788039Y-16789936D01*
X15788039Y-16789936D02*
X15778515Y-16770888D01*
X15778515Y-16770888D02*
X15778515Y-16713746D01*
X15778515Y-16713746D02*
X15788039Y-16694698D01*
X15788039Y-16694698D02*
X15797563Y-16685174D01*
X15797563Y-16685174D02*
X15816610Y-16675650D01*
X15816610Y-16675650D02*
X15845182Y-16675650D01*
X15845182Y-16675650D02*
X15864230Y-16685174D01*
X15864230Y-16685174D02*
X15873753Y-16694698D01*
X15873753Y-16694698D02*
X15883277Y-16713746D01*
X15883277Y-16713746D02*
X15883277Y-16770888D01*
X15883277Y-16770888D02*
X15873753Y-16789936D01*
X15873753Y-16789936D02*
X15864230Y-16799460D01*
X15864230Y-16799460D02*
X15845182Y-16808984D01*
X15845182Y-16808984D02*
X15816610Y-16808984D01*
X15997563Y-16808984D02*
X15978515Y-16799460D01*
X15978515Y-16799460D02*
X15968991Y-16780412D01*
X15968991Y-16780412D02*
X15968991Y-16608984D01*
X16149944Y-16799460D02*
X16130896Y-16808984D01*
X16130896Y-16808984D02*
X16092801Y-16808984D01*
X16092801Y-16808984D02*
X16073753Y-16799460D01*
X16073753Y-16799460D02*
X16064230Y-16780412D01*
X16064230Y-16780412D02*
X16064230Y-16704222D01*
X16064230Y-16704222D02*
X16073753Y-16685174D01*
X16073753Y-16685174D02*
X16092801Y-16675650D01*
X16092801Y-16675650D02*
X16130896Y-16675650D01*
X16130896Y-16675650D02*
X16149944Y-16685174D01*
X16149944Y-16685174D02*
X16159468Y-16704222D01*
X16159468Y-16704222D02*
X16159468Y-16723269D01*
X16159468Y-16723269D02*
X16064230Y-16742317D01*
X16235658Y-16799460D02*
X16254706Y-16808984D01*
X16254706Y-16808984D02*
X16292801Y-16808984D01*
X16292801Y-16808984D02*
X16311849Y-16799460D01*
X16311849Y-16799460D02*
X16321372Y-16780412D01*
X16321372Y-16780412D02*
X16321372Y-16770888D01*
X16321372Y-16770888D02*
X16311849Y-16751841D01*
X16311849Y-16751841D02*
X16292801Y-16742317D01*
X16292801Y-16742317D02*
X16264230Y-16742317D01*
X16264230Y-16742317D02*
X16245182Y-16732793D01*
X16245182Y-16732793D02*
X16235658Y-16713746D01*
X16235658Y-16713746D02*
X16235658Y-16704222D01*
X16235658Y-16704222D02*
X16245182Y-16685174D01*
X16245182Y-16685174D02*
X16264230Y-16675650D01*
X16264230Y-16675650D02*
X16292801Y-16675650D01*
X16292801Y-16675650D02*
X16311849Y-16685174D01*
X16388039Y-16885174D02*
X16397563Y-16875650D01*
X16397563Y-16875650D02*
X16416611Y-16847079D01*
X16416611Y-16847079D02*
X16426134Y-16828031D01*
X16426134Y-16828031D02*
X16435658Y-16799460D01*
X16435658Y-16799460D02*
X16445182Y-16751841D01*
X16445182Y-16751841D02*
X16445182Y-16713746D01*
X16445182Y-16713746D02*
X16435658Y-16666127D01*
X16435658Y-16666127D02*
X16426134Y-16637555D01*
X16426134Y-16637555D02*
X16416611Y-16618508D01*
X16416611Y-16618508D02*
X16397563Y-16589936D01*
X16397563Y-16589936D02*
X16388039Y-16580412D01*
D12*
X11422500Y-16981500D02*
G75*
G02*
X11372500Y-16981500I-25000J0D01*
G01*
X11372500Y-16981500D02*
G75*
G02*
X11422500Y-16981500I25000J0D01*
G01*
D11*
X11721372Y-16872984D02*
X11740420Y-16872984D01*
X11740420Y-16872984D02*
X11759467Y-16882508D01*
X11759467Y-16882508D02*
X11768991Y-16892031D01*
X11768991Y-16892031D02*
X11778515Y-16911079D01*
X11778515Y-16911079D02*
X11788039Y-16949174D01*
X11788039Y-16949174D02*
X11788039Y-16996793D01*
X11788039Y-16996793D02*
X11778515Y-17034889D01*
X11778515Y-17034889D02*
X11768991Y-17053936D01*
X11768991Y-17053936D02*
X11759467Y-17063460D01*
X11759467Y-17063460D02*
X11740420Y-17072984D01*
X11740420Y-17072984D02*
X11721372Y-17072984D01*
X11721372Y-17072984D02*
X11702324Y-17063460D01*
X11702324Y-17063460D02*
X11692801Y-17053936D01*
X11692801Y-17053936D02*
X11683277Y-17034889D01*
X11683277Y-17034889D02*
X11673753Y-16996793D01*
X11673753Y-16996793D02*
X11673753Y-16949174D01*
X11673753Y-16949174D02*
X11683277Y-16911079D01*
X11683277Y-16911079D02*
X11692801Y-16892031D01*
X11692801Y-16892031D02*
X11702324Y-16882508D01*
X11702324Y-16882508D02*
X11721372Y-16872984D01*
X11873753Y-17053936D02*
X11883277Y-17063460D01*
X11883277Y-17063460D02*
X11873753Y-17072984D01*
X11873753Y-17072984D02*
X11864229Y-17063460D01*
X11864229Y-17063460D02*
X11873753Y-17053936D01*
X11873753Y-17053936D02*
X11873753Y-17072984D01*
X12064229Y-16872984D02*
X11968991Y-16872984D01*
X11968991Y-16872984D02*
X11959467Y-16968222D01*
X11959467Y-16968222D02*
X11968991Y-16958698D01*
X11968991Y-16958698D02*
X11988039Y-16949174D01*
X11988039Y-16949174D02*
X12035658Y-16949174D01*
X12035658Y-16949174D02*
X12054705Y-16958698D01*
X12054705Y-16958698D02*
X12064229Y-16968222D01*
X12064229Y-16968222D02*
X12073753Y-16987270D01*
X12073753Y-16987270D02*
X12073753Y-17034889D01*
X12073753Y-17034889D02*
X12064229Y-17053936D01*
X12064229Y-17053936D02*
X12054705Y-17063460D01*
X12054705Y-17063460D02*
X12035658Y-17072984D01*
X12035658Y-17072984D02*
X11988039Y-17072984D01*
X11988039Y-17072984D02*
X11968991Y-17063460D01*
X11968991Y-17063460D02*
X11959467Y-17053936D01*
X12197562Y-16872984D02*
X12216610Y-16872984D01*
X12216610Y-16872984D02*
X12235658Y-16882508D01*
X12235658Y-16882508D02*
X12245182Y-16892031D01*
X12245182Y-16892031D02*
X12254705Y-16911079D01*
X12254705Y-16911079D02*
X12264229Y-16949174D01*
X12264229Y-16949174D02*
X12264229Y-16996793D01*
X12264229Y-16996793D02*
X12254705Y-17034889D01*
X12254705Y-17034889D02*
X12245182Y-17053936D01*
X12245182Y-17053936D02*
X12235658Y-17063460D01*
X12235658Y-17063460D02*
X12216610Y-17072984D01*
X12216610Y-17072984D02*
X12197562Y-17072984D01*
X12197562Y-17072984D02*
X12178515Y-17063460D01*
X12178515Y-17063460D02*
X12168991Y-17053936D01*
X12168991Y-17053936D02*
X12159467Y-17034889D01*
X12159467Y-17034889D02*
X12149943Y-16996793D01*
X12149943Y-16996793D02*
X12149943Y-16949174D01*
X12149943Y-16949174D02*
X12159467Y-16911079D01*
X12159467Y-16911079D02*
X12168991Y-16892031D01*
X12168991Y-16892031D02*
X12178515Y-16882508D01*
X12178515Y-16882508D02*
X12197562Y-16872984D01*
X12388039Y-16872984D02*
X12407086Y-16872984D01*
X12407086Y-16872984D02*
X12426134Y-16882508D01*
X12426134Y-16882508D02*
X12435658Y-16892031D01*
X12435658Y-16892031D02*
X12445182Y-16911079D01*
X12445182Y-16911079D02*
X12454705Y-16949174D01*
X12454705Y-16949174D02*
X12454705Y-16996793D01*
X12454705Y-16996793D02*
X12445182Y-17034889D01*
X12445182Y-17034889D02*
X12435658Y-17053936D01*
X12435658Y-17053936D02*
X12426134Y-17063460D01*
X12426134Y-17063460D02*
X12407086Y-17072984D01*
X12407086Y-17072984D02*
X12388039Y-17072984D01*
X12388039Y-17072984D02*
X12368991Y-17063460D01*
X12368991Y-17063460D02*
X12359467Y-17053936D01*
X12359467Y-17053936D02*
X12349943Y-17034889D01*
X12349943Y-17034889D02*
X12340420Y-16996793D01*
X12340420Y-16996793D02*
X12340420Y-16949174D01*
X12340420Y-16949174D02*
X12349943Y-16911079D01*
X12349943Y-16911079D02*
X12359467Y-16892031D01*
X12359467Y-16892031D02*
X12368991Y-16882508D01*
X12368991Y-16882508D02*
X12388039Y-16872984D01*
X12540420Y-17072984D02*
X12540420Y-16939650D01*
X12540420Y-16958698D02*
X12549943Y-16949174D01*
X12549943Y-16949174D02*
X12568991Y-16939650D01*
X12568991Y-16939650D02*
X12597563Y-16939650D01*
X12597563Y-16939650D02*
X12616610Y-16949174D01*
X12616610Y-16949174D02*
X12626134Y-16968222D01*
X12626134Y-16968222D02*
X12626134Y-17072984D01*
X12626134Y-16968222D02*
X12635658Y-16949174D01*
X12635658Y-16949174D02*
X12654705Y-16939650D01*
X12654705Y-16939650D02*
X12683277Y-16939650D01*
X12683277Y-16939650D02*
X12702324Y-16949174D01*
X12702324Y-16949174D02*
X12711848Y-16968222D01*
X12711848Y-16968222D02*
X12711848Y-17072984D01*
X12807086Y-17072984D02*
X12807086Y-16939650D01*
X12807086Y-16958698D02*
X12816610Y-16949174D01*
X12816610Y-16949174D02*
X12835658Y-16939650D01*
X12835658Y-16939650D02*
X12864229Y-16939650D01*
X12864229Y-16939650D02*
X12883277Y-16949174D01*
X12883277Y-16949174D02*
X12892801Y-16968222D01*
X12892801Y-16968222D02*
X12892801Y-17072984D01*
X12892801Y-16968222D02*
X12902324Y-16949174D01*
X12902324Y-16949174D02*
X12921372Y-16939650D01*
X12921372Y-16939650D02*
X12949943Y-16939650D01*
X12949943Y-16939650D02*
X12968991Y-16949174D01*
X12968991Y-16949174D02*
X12978515Y-16968222D01*
X12978515Y-16968222D02*
X12978515Y-17072984D01*
X13368991Y-16863460D02*
X13197563Y-17120603D01*
X13626134Y-16872984D02*
X13645182Y-16872984D01*
X13645182Y-16872984D02*
X13664229Y-16882508D01*
X13664229Y-16882508D02*
X13673753Y-16892031D01*
X13673753Y-16892031D02*
X13683277Y-16911079D01*
X13683277Y-16911079D02*
X13692801Y-16949174D01*
X13692801Y-16949174D02*
X13692801Y-16996793D01*
X13692801Y-16996793D02*
X13683277Y-17034889D01*
X13683277Y-17034889D02*
X13673753Y-17053936D01*
X13673753Y-17053936D02*
X13664229Y-17063460D01*
X13664229Y-17063460D02*
X13645182Y-17072984D01*
X13645182Y-17072984D02*
X13626134Y-17072984D01*
X13626134Y-17072984D02*
X13607086Y-17063460D01*
X13607086Y-17063460D02*
X13597563Y-17053936D01*
X13597563Y-17053936D02*
X13588039Y-17034889D01*
X13588039Y-17034889D02*
X13578515Y-16996793D01*
X13578515Y-16996793D02*
X13578515Y-16949174D01*
X13578515Y-16949174D02*
X13588039Y-16911079D01*
X13588039Y-16911079D02*
X13597563Y-16892031D01*
X13597563Y-16892031D02*
X13607086Y-16882508D01*
X13607086Y-16882508D02*
X13626134Y-16872984D01*
X13778515Y-17053936D02*
X13788039Y-17063460D01*
X13788039Y-17063460D02*
X13778515Y-17072984D01*
X13778515Y-17072984D02*
X13768991Y-17063460D01*
X13768991Y-17063460D02*
X13778515Y-17053936D01*
X13778515Y-17053936D02*
X13778515Y-17072984D01*
X13911848Y-16872984D02*
X13930896Y-16872984D01*
X13930896Y-16872984D02*
X13949944Y-16882508D01*
X13949944Y-16882508D02*
X13959467Y-16892031D01*
X13959467Y-16892031D02*
X13968991Y-16911079D01*
X13968991Y-16911079D02*
X13978515Y-16949174D01*
X13978515Y-16949174D02*
X13978515Y-16996793D01*
X13978515Y-16996793D02*
X13968991Y-17034889D01*
X13968991Y-17034889D02*
X13959467Y-17053936D01*
X13959467Y-17053936D02*
X13949944Y-17063460D01*
X13949944Y-17063460D02*
X13930896Y-17072984D01*
X13930896Y-17072984D02*
X13911848Y-17072984D01*
X13911848Y-17072984D02*
X13892801Y-17063460D01*
X13892801Y-17063460D02*
X13883277Y-17053936D01*
X13883277Y-17053936D02*
X13873753Y-17034889D01*
X13873753Y-17034889D02*
X13864229Y-16996793D01*
X13864229Y-16996793D02*
X13864229Y-16949174D01*
X13864229Y-16949174D02*
X13873753Y-16911079D01*
X13873753Y-16911079D02*
X13883277Y-16892031D01*
X13883277Y-16892031D02*
X13892801Y-16882508D01*
X13892801Y-16882508D02*
X13911848Y-16872984D01*
X14168991Y-17072984D02*
X14054706Y-17072984D01*
X14111848Y-17072984D02*
X14111848Y-16872984D01*
X14111848Y-16872984D02*
X14092801Y-16901555D01*
X14092801Y-16901555D02*
X14073753Y-16920603D01*
X14073753Y-16920603D02*
X14054706Y-16930127D01*
X14264229Y-17072984D02*
X14302325Y-17072984D01*
X14302325Y-17072984D02*
X14321372Y-17063460D01*
X14321372Y-17063460D02*
X14330896Y-17053936D01*
X14330896Y-17053936D02*
X14349944Y-17025365D01*
X14349944Y-17025365D02*
X14359467Y-16987270D01*
X14359467Y-16987270D02*
X14359467Y-16911079D01*
X14359467Y-16911079D02*
X14349944Y-16892031D01*
X14349944Y-16892031D02*
X14340420Y-16882508D01*
X14340420Y-16882508D02*
X14321372Y-16872984D01*
X14321372Y-16872984D02*
X14283277Y-16872984D01*
X14283277Y-16872984D02*
X14264229Y-16882508D01*
X14264229Y-16882508D02*
X14254706Y-16892031D01*
X14254706Y-16892031D02*
X14245182Y-16911079D01*
X14245182Y-16911079D02*
X14245182Y-16958698D01*
X14245182Y-16958698D02*
X14254706Y-16977746D01*
X14254706Y-16977746D02*
X14264229Y-16987270D01*
X14264229Y-16987270D02*
X14283277Y-16996793D01*
X14283277Y-16996793D02*
X14321372Y-16996793D01*
X14321372Y-16996793D02*
X14340420Y-16987270D01*
X14340420Y-16987270D02*
X14349944Y-16977746D01*
X14349944Y-16977746D02*
X14359467Y-16958698D01*
X14426134Y-16872984D02*
X14559467Y-16872984D01*
X14559467Y-16872984D02*
X14473753Y-17072984D01*
X14626134Y-16872984D02*
X14626134Y-16911079D01*
X14702325Y-16872984D02*
X14702325Y-16911079D01*
X14997563Y-17149174D02*
X14988039Y-17139650D01*
X14988039Y-17139650D02*
X14968991Y-17111079D01*
X14968991Y-17111079D02*
X14959468Y-17092031D01*
X14959468Y-17092031D02*
X14949944Y-17063460D01*
X14949944Y-17063460D02*
X14940420Y-17015841D01*
X14940420Y-17015841D02*
X14940420Y-16977746D01*
X14940420Y-16977746D02*
X14949944Y-16930127D01*
X14949944Y-16930127D02*
X14959468Y-16901555D01*
X14959468Y-16901555D02*
X14968991Y-16882508D01*
X14968991Y-16882508D02*
X14988039Y-16853936D01*
X14988039Y-16853936D02*
X14997563Y-16844412D01*
X15054706Y-16872984D02*
X15178515Y-16872984D01*
X15178515Y-16872984D02*
X15111848Y-16949174D01*
X15111848Y-16949174D02*
X15140420Y-16949174D01*
X15140420Y-16949174D02*
X15159468Y-16958698D01*
X15159468Y-16958698D02*
X15168991Y-16968222D01*
X15168991Y-16968222D02*
X15178515Y-16987270D01*
X15178515Y-16987270D02*
X15178515Y-17034889D01*
X15178515Y-17034889D02*
X15168991Y-17053936D01*
X15168991Y-17053936D02*
X15159468Y-17063460D01*
X15159468Y-17063460D02*
X15140420Y-17072984D01*
X15140420Y-17072984D02*
X15083277Y-17072984D01*
X15083277Y-17072984D02*
X15064229Y-17063460D01*
X15064229Y-17063460D02*
X15054706Y-17053936D01*
X15416610Y-17072984D02*
X15416610Y-16872984D01*
X15502325Y-17072984D02*
X15502325Y-16968222D01*
X15502325Y-16968222D02*
X15492801Y-16949174D01*
X15492801Y-16949174D02*
X15473753Y-16939650D01*
X15473753Y-16939650D02*
X15445182Y-16939650D01*
X15445182Y-16939650D02*
X15426134Y-16949174D01*
X15426134Y-16949174D02*
X15416610Y-16958698D01*
X15626134Y-17072984D02*
X15607087Y-17063460D01*
X15607087Y-17063460D02*
X15597563Y-17053936D01*
X15597563Y-17053936D02*
X15588039Y-17034889D01*
X15588039Y-17034889D02*
X15588039Y-16977746D01*
X15588039Y-16977746D02*
X15597563Y-16958698D01*
X15597563Y-16958698D02*
X15607087Y-16949174D01*
X15607087Y-16949174D02*
X15626134Y-16939650D01*
X15626134Y-16939650D02*
X15654706Y-16939650D01*
X15654706Y-16939650D02*
X15673753Y-16949174D01*
X15673753Y-16949174D02*
X15683277Y-16958698D01*
X15683277Y-16958698D02*
X15692801Y-16977746D01*
X15692801Y-16977746D02*
X15692801Y-17034889D01*
X15692801Y-17034889D02*
X15683277Y-17053936D01*
X15683277Y-17053936D02*
X15673753Y-17063460D01*
X15673753Y-17063460D02*
X15654706Y-17072984D01*
X15654706Y-17072984D02*
X15626134Y-17072984D01*
X15807087Y-17072984D02*
X15788039Y-17063460D01*
X15788039Y-17063460D02*
X15778515Y-17044412D01*
X15778515Y-17044412D02*
X15778515Y-16872984D01*
X15959468Y-17063460D02*
X15940420Y-17072984D01*
X15940420Y-17072984D02*
X15902325Y-17072984D01*
X15902325Y-17072984D02*
X15883277Y-17063460D01*
X15883277Y-17063460D02*
X15873753Y-17044412D01*
X15873753Y-17044412D02*
X15873753Y-16968222D01*
X15873753Y-16968222D02*
X15883277Y-16949174D01*
X15883277Y-16949174D02*
X15902325Y-16939650D01*
X15902325Y-16939650D02*
X15940420Y-16939650D01*
X15940420Y-16939650D02*
X15959468Y-16949174D01*
X15959468Y-16949174D02*
X15968991Y-16968222D01*
X15968991Y-16968222D02*
X15968991Y-16987270D01*
X15968991Y-16987270D02*
X15873753Y-17006317D01*
X16045182Y-17063460D02*
X16064230Y-17072984D01*
X16064230Y-17072984D02*
X16102325Y-17072984D01*
X16102325Y-17072984D02*
X16121372Y-17063460D01*
X16121372Y-17063460D02*
X16130896Y-17044412D01*
X16130896Y-17044412D02*
X16130896Y-17034889D01*
X16130896Y-17034889D02*
X16121372Y-17015841D01*
X16121372Y-17015841D02*
X16102325Y-17006317D01*
X16102325Y-17006317D02*
X16073753Y-17006317D01*
X16073753Y-17006317D02*
X16054706Y-16996793D01*
X16054706Y-16996793D02*
X16045182Y-16977746D01*
X16045182Y-16977746D02*
X16045182Y-16968222D01*
X16045182Y-16968222D02*
X16054706Y-16949174D01*
X16054706Y-16949174D02*
X16073753Y-16939650D01*
X16073753Y-16939650D02*
X16102325Y-16939650D01*
X16102325Y-16939650D02*
X16121372Y-16949174D01*
X16197563Y-17149174D02*
X16207087Y-17139650D01*
X16207087Y-17139650D02*
X16226134Y-17111079D01*
X16226134Y-17111079D02*
X16235658Y-17092031D01*
X16235658Y-17092031D02*
X16245182Y-17063460D01*
X16245182Y-17063460D02*
X16254706Y-17015841D01*
X16254706Y-17015841D02*
X16254706Y-16977746D01*
X16254706Y-16977746D02*
X16245182Y-16930127D01*
X16245182Y-16930127D02*
X16235658Y-16901555D01*
X16235658Y-16901555D02*
X16226134Y-16882508D01*
X16226134Y-16882508D02*
X16207087Y-16853936D01*
X16207087Y-16853936D02*
X16197563Y-16844412D01*
D12*
X11382500Y-17205500D02*
X11382500Y-17285500D01*
X11342500Y-17245500D02*
X11422500Y-17245500D01*
D11*
X11721372Y-17136984D02*
X11740420Y-17136984D01*
X11740420Y-17136984D02*
X11759467Y-17146508D01*
X11759467Y-17146508D02*
X11768991Y-17156031D01*
X11768991Y-17156031D02*
X11778515Y-17175079D01*
X11778515Y-17175079D02*
X11788039Y-17213174D01*
X11788039Y-17213174D02*
X11788039Y-17260793D01*
X11788039Y-17260793D02*
X11778515Y-17298889D01*
X11778515Y-17298889D02*
X11768991Y-17317936D01*
X11768991Y-17317936D02*
X11759467Y-17327460D01*
X11759467Y-17327460D02*
X11740420Y-17336984D01*
X11740420Y-17336984D02*
X11721372Y-17336984D01*
X11721372Y-17336984D02*
X11702324Y-17327460D01*
X11702324Y-17327460D02*
X11692801Y-17317936D01*
X11692801Y-17317936D02*
X11683277Y-17298889D01*
X11683277Y-17298889D02*
X11673753Y-17260793D01*
X11673753Y-17260793D02*
X11673753Y-17213174D01*
X11673753Y-17213174D02*
X11683277Y-17175079D01*
X11683277Y-17175079D02*
X11692801Y-17156031D01*
X11692801Y-17156031D02*
X11702324Y-17146508D01*
X11702324Y-17146508D02*
X11721372Y-17136984D01*
X11873753Y-17317936D02*
X11883277Y-17327460D01*
X11883277Y-17327460D02*
X11873753Y-17336984D01*
X11873753Y-17336984D02*
X11864229Y-17327460D01*
X11864229Y-17327460D02*
X11873753Y-17317936D01*
X11873753Y-17317936D02*
X11873753Y-17336984D01*
X11997562Y-17222698D02*
X11978515Y-17213174D01*
X11978515Y-17213174D02*
X11968991Y-17203650D01*
X11968991Y-17203650D02*
X11959467Y-17184603D01*
X11959467Y-17184603D02*
X11959467Y-17175079D01*
X11959467Y-17175079D02*
X11968991Y-17156031D01*
X11968991Y-17156031D02*
X11978515Y-17146508D01*
X11978515Y-17146508D02*
X11997562Y-17136984D01*
X11997562Y-17136984D02*
X12035658Y-17136984D01*
X12035658Y-17136984D02*
X12054705Y-17146508D01*
X12054705Y-17146508D02*
X12064229Y-17156031D01*
X12064229Y-17156031D02*
X12073753Y-17175079D01*
X12073753Y-17175079D02*
X12073753Y-17184603D01*
X12073753Y-17184603D02*
X12064229Y-17203650D01*
X12064229Y-17203650D02*
X12054705Y-17213174D01*
X12054705Y-17213174D02*
X12035658Y-17222698D01*
X12035658Y-17222698D02*
X11997562Y-17222698D01*
X11997562Y-17222698D02*
X11978515Y-17232222D01*
X11978515Y-17232222D02*
X11968991Y-17241746D01*
X11968991Y-17241746D02*
X11959467Y-17260793D01*
X11959467Y-17260793D02*
X11959467Y-17298889D01*
X11959467Y-17298889D02*
X11968991Y-17317936D01*
X11968991Y-17317936D02*
X11978515Y-17327460D01*
X11978515Y-17327460D02*
X11997562Y-17336984D01*
X11997562Y-17336984D02*
X12035658Y-17336984D01*
X12035658Y-17336984D02*
X12054705Y-17327460D01*
X12054705Y-17327460D02*
X12064229Y-17317936D01*
X12064229Y-17317936D02*
X12073753Y-17298889D01*
X12073753Y-17298889D02*
X12073753Y-17260793D01*
X12073753Y-17260793D02*
X12064229Y-17241746D01*
X12064229Y-17241746D02*
X12054705Y-17232222D01*
X12054705Y-17232222D02*
X12035658Y-17222698D01*
X12197562Y-17136984D02*
X12216610Y-17136984D01*
X12216610Y-17136984D02*
X12235658Y-17146508D01*
X12235658Y-17146508D02*
X12245182Y-17156031D01*
X12245182Y-17156031D02*
X12254705Y-17175079D01*
X12254705Y-17175079D02*
X12264229Y-17213174D01*
X12264229Y-17213174D02*
X12264229Y-17260793D01*
X12264229Y-17260793D02*
X12254705Y-17298889D01*
X12254705Y-17298889D02*
X12245182Y-17317936D01*
X12245182Y-17317936D02*
X12235658Y-17327460D01*
X12235658Y-17327460D02*
X12216610Y-17336984D01*
X12216610Y-17336984D02*
X12197562Y-17336984D01*
X12197562Y-17336984D02*
X12178515Y-17327460D01*
X12178515Y-17327460D02*
X12168991Y-17317936D01*
X12168991Y-17317936D02*
X12159467Y-17298889D01*
X12159467Y-17298889D02*
X12149943Y-17260793D01*
X12149943Y-17260793D02*
X12149943Y-17213174D01*
X12149943Y-17213174D02*
X12159467Y-17175079D01*
X12159467Y-17175079D02*
X12168991Y-17156031D01*
X12168991Y-17156031D02*
X12178515Y-17146508D01*
X12178515Y-17146508D02*
X12197562Y-17136984D01*
X12388039Y-17136984D02*
X12407086Y-17136984D01*
X12407086Y-17136984D02*
X12426134Y-17146508D01*
X12426134Y-17146508D02*
X12435658Y-17156031D01*
X12435658Y-17156031D02*
X12445182Y-17175079D01*
X12445182Y-17175079D02*
X12454705Y-17213174D01*
X12454705Y-17213174D02*
X12454705Y-17260793D01*
X12454705Y-17260793D02*
X12445182Y-17298889D01*
X12445182Y-17298889D02*
X12435658Y-17317936D01*
X12435658Y-17317936D02*
X12426134Y-17327460D01*
X12426134Y-17327460D02*
X12407086Y-17336984D01*
X12407086Y-17336984D02*
X12388039Y-17336984D01*
X12388039Y-17336984D02*
X12368991Y-17327460D01*
X12368991Y-17327460D02*
X12359467Y-17317936D01*
X12359467Y-17317936D02*
X12349943Y-17298889D01*
X12349943Y-17298889D02*
X12340420Y-17260793D01*
X12340420Y-17260793D02*
X12340420Y-17213174D01*
X12340420Y-17213174D02*
X12349943Y-17175079D01*
X12349943Y-17175079D02*
X12359467Y-17156031D01*
X12359467Y-17156031D02*
X12368991Y-17146508D01*
X12368991Y-17146508D02*
X12388039Y-17136984D01*
X12540420Y-17336984D02*
X12540420Y-17203650D01*
X12540420Y-17222698D02*
X12549943Y-17213174D01*
X12549943Y-17213174D02*
X12568991Y-17203650D01*
X12568991Y-17203650D02*
X12597563Y-17203650D01*
X12597563Y-17203650D02*
X12616610Y-17213174D01*
X12616610Y-17213174D02*
X12626134Y-17232222D01*
X12626134Y-17232222D02*
X12626134Y-17336984D01*
X12626134Y-17232222D02*
X12635658Y-17213174D01*
X12635658Y-17213174D02*
X12654705Y-17203650D01*
X12654705Y-17203650D02*
X12683277Y-17203650D01*
X12683277Y-17203650D02*
X12702324Y-17213174D01*
X12702324Y-17213174D02*
X12711848Y-17232222D01*
X12711848Y-17232222D02*
X12711848Y-17336984D01*
X12807086Y-17336984D02*
X12807086Y-17203650D01*
X12807086Y-17222698D02*
X12816610Y-17213174D01*
X12816610Y-17213174D02*
X12835658Y-17203650D01*
X12835658Y-17203650D02*
X12864229Y-17203650D01*
X12864229Y-17203650D02*
X12883277Y-17213174D01*
X12883277Y-17213174D02*
X12892801Y-17232222D01*
X12892801Y-17232222D02*
X12892801Y-17336984D01*
X12892801Y-17232222D02*
X12902324Y-17213174D01*
X12902324Y-17213174D02*
X12921372Y-17203650D01*
X12921372Y-17203650D02*
X12949943Y-17203650D01*
X12949943Y-17203650D02*
X12968991Y-17213174D01*
X12968991Y-17213174D02*
X12978515Y-17232222D01*
X12978515Y-17232222D02*
X12978515Y-17336984D01*
X13368991Y-17127460D02*
X13197563Y-17384603D01*
X13626134Y-17136984D02*
X13645182Y-17136984D01*
X13645182Y-17136984D02*
X13664229Y-17146508D01*
X13664229Y-17146508D02*
X13673753Y-17156031D01*
X13673753Y-17156031D02*
X13683277Y-17175079D01*
X13683277Y-17175079D02*
X13692801Y-17213174D01*
X13692801Y-17213174D02*
X13692801Y-17260793D01*
X13692801Y-17260793D02*
X13683277Y-17298889D01*
X13683277Y-17298889D02*
X13673753Y-17317936D01*
X13673753Y-17317936D02*
X13664229Y-17327460D01*
X13664229Y-17327460D02*
X13645182Y-17336984D01*
X13645182Y-17336984D02*
X13626134Y-17336984D01*
X13626134Y-17336984D02*
X13607086Y-17327460D01*
X13607086Y-17327460D02*
X13597563Y-17317936D01*
X13597563Y-17317936D02*
X13588039Y-17298889D01*
X13588039Y-17298889D02*
X13578515Y-17260793D01*
X13578515Y-17260793D02*
X13578515Y-17213174D01*
X13578515Y-17213174D02*
X13588039Y-17175079D01*
X13588039Y-17175079D02*
X13597563Y-17156031D01*
X13597563Y-17156031D02*
X13607086Y-17146508D01*
X13607086Y-17146508D02*
X13626134Y-17136984D01*
X13778515Y-17317936D02*
X13788039Y-17327460D01*
X13788039Y-17327460D02*
X13778515Y-17336984D01*
X13778515Y-17336984D02*
X13768991Y-17327460D01*
X13768991Y-17327460D02*
X13778515Y-17317936D01*
X13778515Y-17317936D02*
X13778515Y-17336984D01*
X13911848Y-17136984D02*
X13930896Y-17136984D01*
X13930896Y-17136984D02*
X13949944Y-17146508D01*
X13949944Y-17146508D02*
X13959467Y-17156031D01*
X13959467Y-17156031D02*
X13968991Y-17175079D01*
X13968991Y-17175079D02*
X13978515Y-17213174D01*
X13978515Y-17213174D02*
X13978515Y-17260793D01*
X13978515Y-17260793D02*
X13968991Y-17298889D01*
X13968991Y-17298889D02*
X13959467Y-17317936D01*
X13959467Y-17317936D02*
X13949944Y-17327460D01*
X13949944Y-17327460D02*
X13930896Y-17336984D01*
X13930896Y-17336984D02*
X13911848Y-17336984D01*
X13911848Y-17336984D02*
X13892801Y-17327460D01*
X13892801Y-17327460D02*
X13883277Y-17317936D01*
X13883277Y-17317936D02*
X13873753Y-17298889D01*
X13873753Y-17298889D02*
X13864229Y-17260793D01*
X13864229Y-17260793D02*
X13864229Y-17213174D01*
X13864229Y-17213174D02*
X13873753Y-17175079D01*
X13873753Y-17175079D02*
X13883277Y-17156031D01*
X13883277Y-17156031D02*
X13892801Y-17146508D01*
X13892801Y-17146508D02*
X13911848Y-17136984D01*
X14045182Y-17136984D02*
X14168991Y-17136984D01*
X14168991Y-17136984D02*
X14102325Y-17213174D01*
X14102325Y-17213174D02*
X14130896Y-17213174D01*
X14130896Y-17213174D02*
X14149944Y-17222698D01*
X14149944Y-17222698D02*
X14159467Y-17232222D01*
X14159467Y-17232222D02*
X14168991Y-17251270D01*
X14168991Y-17251270D02*
X14168991Y-17298889D01*
X14168991Y-17298889D02*
X14159467Y-17317936D01*
X14159467Y-17317936D02*
X14149944Y-17327460D01*
X14149944Y-17327460D02*
X14130896Y-17336984D01*
X14130896Y-17336984D02*
X14073753Y-17336984D01*
X14073753Y-17336984D02*
X14054706Y-17327460D01*
X14054706Y-17327460D02*
X14045182Y-17317936D01*
X14359467Y-17336984D02*
X14245182Y-17336984D01*
X14302325Y-17336984D02*
X14302325Y-17136984D01*
X14302325Y-17136984D02*
X14283277Y-17165555D01*
X14283277Y-17165555D02*
X14264229Y-17184603D01*
X14264229Y-17184603D02*
X14245182Y-17194127D01*
X14540420Y-17136984D02*
X14445182Y-17136984D01*
X14445182Y-17136984D02*
X14435658Y-17232222D01*
X14435658Y-17232222D02*
X14445182Y-17222698D01*
X14445182Y-17222698D02*
X14464229Y-17213174D01*
X14464229Y-17213174D02*
X14511848Y-17213174D01*
X14511848Y-17213174D02*
X14530896Y-17222698D01*
X14530896Y-17222698D02*
X14540420Y-17232222D01*
X14540420Y-17232222D02*
X14549944Y-17251270D01*
X14549944Y-17251270D02*
X14549944Y-17298889D01*
X14549944Y-17298889D02*
X14540420Y-17317936D01*
X14540420Y-17317936D02*
X14530896Y-17327460D01*
X14530896Y-17327460D02*
X14511848Y-17336984D01*
X14511848Y-17336984D02*
X14464229Y-17336984D01*
X14464229Y-17336984D02*
X14445182Y-17327460D01*
X14445182Y-17327460D02*
X14435658Y-17317936D01*
X14626134Y-17136984D02*
X14626134Y-17175079D01*
X14702325Y-17136984D02*
X14702325Y-17175079D01*
X14997563Y-17413174D02*
X14988039Y-17403650D01*
X14988039Y-17403650D02*
X14968991Y-17375079D01*
X14968991Y-17375079D02*
X14959468Y-17356031D01*
X14959468Y-17356031D02*
X14949944Y-17327460D01*
X14949944Y-17327460D02*
X14940420Y-17279841D01*
X14940420Y-17279841D02*
X14940420Y-17241746D01*
X14940420Y-17241746D02*
X14949944Y-17194127D01*
X14949944Y-17194127D02*
X14959468Y-17165555D01*
X14959468Y-17165555D02*
X14968991Y-17146508D01*
X14968991Y-17146508D02*
X14988039Y-17117936D01*
X14988039Y-17117936D02*
X14997563Y-17108412D01*
X15064229Y-17156031D02*
X15073753Y-17146508D01*
X15073753Y-17146508D02*
X15092801Y-17136984D01*
X15092801Y-17136984D02*
X15140420Y-17136984D01*
X15140420Y-17136984D02*
X15159468Y-17146508D01*
X15159468Y-17146508D02*
X15168991Y-17156031D01*
X15168991Y-17156031D02*
X15178515Y-17175079D01*
X15178515Y-17175079D02*
X15178515Y-17194127D01*
X15178515Y-17194127D02*
X15168991Y-17222698D01*
X15168991Y-17222698D02*
X15054706Y-17336984D01*
X15054706Y-17336984D02*
X15178515Y-17336984D01*
X15416610Y-17336984D02*
X15416610Y-17136984D01*
X15502325Y-17336984D02*
X15502325Y-17232222D01*
X15502325Y-17232222D02*
X15492801Y-17213174D01*
X15492801Y-17213174D02*
X15473753Y-17203650D01*
X15473753Y-17203650D02*
X15445182Y-17203650D01*
X15445182Y-17203650D02*
X15426134Y-17213174D01*
X15426134Y-17213174D02*
X15416610Y-17222698D01*
X15626134Y-17336984D02*
X15607087Y-17327460D01*
X15607087Y-17327460D02*
X15597563Y-17317936D01*
X15597563Y-17317936D02*
X15588039Y-17298889D01*
X15588039Y-17298889D02*
X15588039Y-17241746D01*
X15588039Y-17241746D02*
X15597563Y-17222698D01*
X15597563Y-17222698D02*
X15607087Y-17213174D01*
X15607087Y-17213174D02*
X15626134Y-17203650D01*
X15626134Y-17203650D02*
X15654706Y-17203650D01*
X15654706Y-17203650D02*
X15673753Y-17213174D01*
X15673753Y-17213174D02*
X15683277Y-17222698D01*
X15683277Y-17222698D02*
X15692801Y-17241746D01*
X15692801Y-17241746D02*
X15692801Y-17298889D01*
X15692801Y-17298889D02*
X15683277Y-17317936D01*
X15683277Y-17317936D02*
X15673753Y-17327460D01*
X15673753Y-17327460D02*
X15654706Y-17336984D01*
X15654706Y-17336984D02*
X15626134Y-17336984D01*
X15807087Y-17336984D02*
X15788039Y-17327460D01*
X15788039Y-17327460D02*
X15778515Y-17308412D01*
X15778515Y-17308412D02*
X15778515Y-17136984D01*
X15959468Y-17327460D02*
X15940420Y-17336984D01*
X15940420Y-17336984D02*
X15902325Y-17336984D01*
X15902325Y-17336984D02*
X15883277Y-17327460D01*
X15883277Y-17327460D02*
X15873753Y-17308412D01*
X15873753Y-17308412D02*
X15873753Y-17232222D01*
X15873753Y-17232222D02*
X15883277Y-17213174D01*
X15883277Y-17213174D02*
X15902325Y-17203650D01*
X15902325Y-17203650D02*
X15940420Y-17203650D01*
X15940420Y-17203650D02*
X15959468Y-17213174D01*
X15959468Y-17213174D02*
X15968991Y-17232222D01*
X15968991Y-17232222D02*
X15968991Y-17251270D01*
X15968991Y-17251270D02*
X15873753Y-17270317D01*
X16045182Y-17327460D02*
X16064230Y-17336984D01*
X16064230Y-17336984D02*
X16102325Y-17336984D01*
X16102325Y-17336984D02*
X16121372Y-17327460D01*
X16121372Y-17327460D02*
X16130896Y-17308412D01*
X16130896Y-17308412D02*
X16130896Y-17298889D01*
X16130896Y-17298889D02*
X16121372Y-17279841D01*
X16121372Y-17279841D02*
X16102325Y-17270317D01*
X16102325Y-17270317D02*
X16073753Y-17270317D01*
X16073753Y-17270317D02*
X16054706Y-17260793D01*
X16054706Y-17260793D02*
X16045182Y-17241746D01*
X16045182Y-17241746D02*
X16045182Y-17232222D01*
X16045182Y-17232222D02*
X16054706Y-17213174D01*
X16054706Y-17213174D02*
X16073753Y-17203650D01*
X16073753Y-17203650D02*
X16102325Y-17203650D01*
X16102325Y-17203650D02*
X16121372Y-17213174D01*
X16197563Y-17413174D02*
X16207087Y-17403650D01*
X16207087Y-17403650D02*
X16226134Y-17375079D01*
X16226134Y-17375079D02*
X16235658Y-17356031D01*
X16235658Y-17356031D02*
X16245182Y-17327460D01*
X16245182Y-17327460D02*
X16254706Y-17279841D01*
X16254706Y-17279841D02*
X16254706Y-17241746D01*
X16254706Y-17241746D02*
X16245182Y-17194127D01*
X16245182Y-17194127D02*
X16235658Y-17165555D01*
X16235658Y-17165555D02*
X16226134Y-17146508D01*
X16226134Y-17146508D02*
X16207087Y-17117936D01*
X16207087Y-17117936D02*
X16197563Y-17108412D01*
D12*
X11409320Y-17541320D02*
X11409320Y-17477680D01*
X11345680Y-17477680D01*
X11345680Y-17541320D01*
X11409320Y-17541320D01*
D11*
X11721372Y-17400984D02*
X11740420Y-17400984D01*
X11740420Y-17400984D02*
X11759467Y-17410508D01*
X11759467Y-17410508D02*
X11768991Y-17420031D01*
X11768991Y-17420031D02*
X11778515Y-17439079D01*
X11778515Y-17439079D02*
X11788039Y-17477174D01*
X11788039Y-17477174D02*
X11788039Y-17524793D01*
X11788039Y-17524793D02*
X11778515Y-17562889D01*
X11778515Y-17562889D02*
X11768991Y-17581936D01*
X11768991Y-17581936D02*
X11759467Y-17591460D01*
X11759467Y-17591460D02*
X11740420Y-17600984D01*
X11740420Y-17600984D02*
X11721372Y-17600984D01*
X11721372Y-17600984D02*
X11702324Y-17591460D01*
X11702324Y-17591460D02*
X11692801Y-17581936D01*
X11692801Y-17581936D02*
X11683277Y-17562889D01*
X11683277Y-17562889D02*
X11673753Y-17524793D01*
X11673753Y-17524793D02*
X11673753Y-17477174D01*
X11673753Y-17477174D02*
X11683277Y-17439079D01*
X11683277Y-17439079D02*
X11692801Y-17420031D01*
X11692801Y-17420031D02*
X11702324Y-17410508D01*
X11702324Y-17410508D02*
X11721372Y-17400984D01*
X11873753Y-17581936D02*
X11883277Y-17591460D01*
X11883277Y-17591460D02*
X11873753Y-17600984D01*
X11873753Y-17600984D02*
X11864229Y-17591460D01*
X11864229Y-17591460D02*
X11873753Y-17581936D01*
X11873753Y-17581936D02*
X11873753Y-17600984D01*
X11978515Y-17600984D02*
X12016610Y-17600984D01*
X12016610Y-17600984D02*
X12035658Y-17591460D01*
X12035658Y-17591460D02*
X12045182Y-17581936D01*
X12045182Y-17581936D02*
X12064229Y-17553365D01*
X12064229Y-17553365D02*
X12073753Y-17515270D01*
X12073753Y-17515270D02*
X12073753Y-17439079D01*
X12073753Y-17439079D02*
X12064229Y-17420031D01*
X12064229Y-17420031D02*
X12054705Y-17410508D01*
X12054705Y-17410508D02*
X12035658Y-17400984D01*
X12035658Y-17400984D02*
X11997562Y-17400984D01*
X11997562Y-17400984D02*
X11978515Y-17410508D01*
X11978515Y-17410508D02*
X11968991Y-17420031D01*
X11968991Y-17420031D02*
X11959467Y-17439079D01*
X11959467Y-17439079D02*
X11959467Y-17486698D01*
X11959467Y-17486698D02*
X11968991Y-17505746D01*
X11968991Y-17505746D02*
X11978515Y-17515270D01*
X11978515Y-17515270D02*
X11997562Y-17524793D01*
X11997562Y-17524793D02*
X12035658Y-17524793D01*
X12035658Y-17524793D02*
X12054705Y-17515270D01*
X12054705Y-17515270D02*
X12064229Y-17505746D01*
X12064229Y-17505746D02*
X12073753Y-17486698D01*
X12197562Y-17400984D02*
X12216610Y-17400984D01*
X12216610Y-17400984D02*
X12235658Y-17410508D01*
X12235658Y-17410508D02*
X12245182Y-17420031D01*
X12245182Y-17420031D02*
X12254705Y-17439079D01*
X12254705Y-17439079D02*
X12264229Y-17477174D01*
X12264229Y-17477174D02*
X12264229Y-17524793D01*
X12264229Y-17524793D02*
X12254705Y-17562889D01*
X12254705Y-17562889D02*
X12245182Y-17581936D01*
X12245182Y-17581936D02*
X12235658Y-17591460D01*
X12235658Y-17591460D02*
X12216610Y-17600984D01*
X12216610Y-17600984D02*
X12197562Y-17600984D01*
X12197562Y-17600984D02*
X12178515Y-17591460D01*
X12178515Y-17591460D02*
X12168991Y-17581936D01*
X12168991Y-17581936D02*
X12159467Y-17562889D01*
X12159467Y-17562889D02*
X12149943Y-17524793D01*
X12149943Y-17524793D02*
X12149943Y-17477174D01*
X12149943Y-17477174D02*
X12159467Y-17439079D01*
X12159467Y-17439079D02*
X12168991Y-17420031D01*
X12168991Y-17420031D02*
X12178515Y-17410508D01*
X12178515Y-17410508D02*
X12197562Y-17400984D01*
X12388039Y-17400984D02*
X12407086Y-17400984D01*
X12407086Y-17400984D02*
X12426134Y-17410508D01*
X12426134Y-17410508D02*
X12435658Y-17420031D01*
X12435658Y-17420031D02*
X12445182Y-17439079D01*
X12445182Y-17439079D02*
X12454705Y-17477174D01*
X12454705Y-17477174D02*
X12454705Y-17524793D01*
X12454705Y-17524793D02*
X12445182Y-17562889D01*
X12445182Y-17562889D02*
X12435658Y-17581936D01*
X12435658Y-17581936D02*
X12426134Y-17591460D01*
X12426134Y-17591460D02*
X12407086Y-17600984D01*
X12407086Y-17600984D02*
X12388039Y-17600984D01*
X12388039Y-17600984D02*
X12368991Y-17591460D01*
X12368991Y-17591460D02*
X12359467Y-17581936D01*
X12359467Y-17581936D02*
X12349943Y-17562889D01*
X12349943Y-17562889D02*
X12340420Y-17524793D01*
X12340420Y-17524793D02*
X12340420Y-17477174D01*
X12340420Y-17477174D02*
X12349943Y-17439079D01*
X12349943Y-17439079D02*
X12359467Y-17420031D01*
X12359467Y-17420031D02*
X12368991Y-17410508D01*
X12368991Y-17410508D02*
X12388039Y-17400984D01*
X12540420Y-17600984D02*
X12540420Y-17467650D01*
X12540420Y-17486698D02*
X12549943Y-17477174D01*
X12549943Y-17477174D02*
X12568991Y-17467650D01*
X12568991Y-17467650D02*
X12597563Y-17467650D01*
X12597563Y-17467650D02*
X12616610Y-17477174D01*
X12616610Y-17477174D02*
X12626134Y-17496222D01*
X12626134Y-17496222D02*
X12626134Y-17600984D01*
X12626134Y-17496222D02*
X12635658Y-17477174D01*
X12635658Y-17477174D02*
X12654705Y-17467650D01*
X12654705Y-17467650D02*
X12683277Y-17467650D01*
X12683277Y-17467650D02*
X12702324Y-17477174D01*
X12702324Y-17477174D02*
X12711848Y-17496222D01*
X12711848Y-17496222D02*
X12711848Y-17600984D01*
X12807086Y-17600984D02*
X12807086Y-17467650D01*
X12807086Y-17486698D02*
X12816610Y-17477174D01*
X12816610Y-17477174D02*
X12835658Y-17467650D01*
X12835658Y-17467650D02*
X12864229Y-17467650D01*
X12864229Y-17467650D02*
X12883277Y-17477174D01*
X12883277Y-17477174D02*
X12892801Y-17496222D01*
X12892801Y-17496222D02*
X12892801Y-17600984D01*
X12892801Y-17496222D02*
X12902324Y-17477174D01*
X12902324Y-17477174D02*
X12921372Y-17467650D01*
X12921372Y-17467650D02*
X12949943Y-17467650D01*
X12949943Y-17467650D02*
X12968991Y-17477174D01*
X12968991Y-17477174D02*
X12978515Y-17496222D01*
X12978515Y-17496222D02*
X12978515Y-17600984D01*
X13368991Y-17391460D02*
X13197563Y-17648603D01*
X13626134Y-17400984D02*
X13645182Y-17400984D01*
X13645182Y-17400984D02*
X13664229Y-17410508D01*
X13664229Y-17410508D02*
X13673753Y-17420031D01*
X13673753Y-17420031D02*
X13683277Y-17439079D01*
X13683277Y-17439079D02*
X13692801Y-17477174D01*
X13692801Y-17477174D02*
X13692801Y-17524793D01*
X13692801Y-17524793D02*
X13683277Y-17562889D01*
X13683277Y-17562889D02*
X13673753Y-17581936D01*
X13673753Y-17581936D02*
X13664229Y-17591460D01*
X13664229Y-17591460D02*
X13645182Y-17600984D01*
X13645182Y-17600984D02*
X13626134Y-17600984D01*
X13626134Y-17600984D02*
X13607086Y-17591460D01*
X13607086Y-17591460D02*
X13597563Y-17581936D01*
X13597563Y-17581936D02*
X13588039Y-17562889D01*
X13588039Y-17562889D02*
X13578515Y-17524793D01*
X13578515Y-17524793D02*
X13578515Y-17477174D01*
X13578515Y-17477174D02*
X13588039Y-17439079D01*
X13588039Y-17439079D02*
X13597563Y-17420031D01*
X13597563Y-17420031D02*
X13607086Y-17410508D01*
X13607086Y-17410508D02*
X13626134Y-17400984D01*
X13778515Y-17581936D02*
X13788039Y-17591460D01*
X13788039Y-17591460D02*
X13778515Y-17600984D01*
X13778515Y-17600984D02*
X13768991Y-17591460D01*
X13768991Y-17591460D02*
X13778515Y-17581936D01*
X13778515Y-17581936D02*
X13778515Y-17600984D01*
X13911848Y-17400984D02*
X13930896Y-17400984D01*
X13930896Y-17400984D02*
X13949944Y-17410508D01*
X13949944Y-17410508D02*
X13959467Y-17420031D01*
X13959467Y-17420031D02*
X13968991Y-17439079D01*
X13968991Y-17439079D02*
X13978515Y-17477174D01*
X13978515Y-17477174D02*
X13978515Y-17524793D01*
X13978515Y-17524793D02*
X13968991Y-17562889D01*
X13968991Y-17562889D02*
X13959467Y-17581936D01*
X13959467Y-17581936D02*
X13949944Y-17591460D01*
X13949944Y-17591460D02*
X13930896Y-17600984D01*
X13930896Y-17600984D02*
X13911848Y-17600984D01*
X13911848Y-17600984D02*
X13892801Y-17591460D01*
X13892801Y-17591460D02*
X13883277Y-17581936D01*
X13883277Y-17581936D02*
X13873753Y-17562889D01*
X13873753Y-17562889D02*
X13864229Y-17524793D01*
X13864229Y-17524793D02*
X13864229Y-17477174D01*
X13864229Y-17477174D02*
X13873753Y-17439079D01*
X13873753Y-17439079D02*
X13883277Y-17420031D01*
X13883277Y-17420031D02*
X13892801Y-17410508D01*
X13892801Y-17410508D02*
X13911848Y-17400984D01*
X14045182Y-17400984D02*
X14168991Y-17400984D01*
X14168991Y-17400984D02*
X14102325Y-17477174D01*
X14102325Y-17477174D02*
X14130896Y-17477174D01*
X14130896Y-17477174D02*
X14149944Y-17486698D01*
X14149944Y-17486698D02*
X14159467Y-17496222D01*
X14159467Y-17496222D02*
X14168991Y-17515270D01*
X14168991Y-17515270D02*
X14168991Y-17562889D01*
X14168991Y-17562889D02*
X14159467Y-17581936D01*
X14159467Y-17581936D02*
X14149944Y-17591460D01*
X14149944Y-17591460D02*
X14130896Y-17600984D01*
X14130896Y-17600984D02*
X14073753Y-17600984D01*
X14073753Y-17600984D02*
X14054706Y-17591460D01*
X14054706Y-17591460D02*
X14045182Y-17581936D01*
X14349944Y-17400984D02*
X14254706Y-17400984D01*
X14254706Y-17400984D02*
X14245182Y-17496222D01*
X14245182Y-17496222D02*
X14254706Y-17486698D01*
X14254706Y-17486698D02*
X14273753Y-17477174D01*
X14273753Y-17477174D02*
X14321372Y-17477174D01*
X14321372Y-17477174D02*
X14340420Y-17486698D01*
X14340420Y-17486698D02*
X14349944Y-17496222D01*
X14349944Y-17496222D02*
X14359467Y-17515270D01*
X14359467Y-17515270D02*
X14359467Y-17562889D01*
X14359467Y-17562889D02*
X14349944Y-17581936D01*
X14349944Y-17581936D02*
X14340420Y-17591460D01*
X14340420Y-17591460D02*
X14321372Y-17600984D01*
X14321372Y-17600984D02*
X14273753Y-17600984D01*
X14273753Y-17600984D02*
X14254706Y-17591460D01*
X14254706Y-17591460D02*
X14245182Y-17581936D01*
X14530896Y-17467650D02*
X14530896Y-17600984D01*
X14483277Y-17391460D02*
X14435658Y-17534317D01*
X14435658Y-17534317D02*
X14559467Y-17534317D01*
X14626134Y-17400984D02*
X14626134Y-17439079D01*
X14702325Y-17400984D02*
X14702325Y-17439079D01*
X14997563Y-17677174D02*
X14988039Y-17667650D01*
X14988039Y-17667650D02*
X14968991Y-17639079D01*
X14968991Y-17639079D02*
X14959468Y-17620031D01*
X14959468Y-17620031D02*
X14949944Y-17591460D01*
X14949944Y-17591460D02*
X14940420Y-17543841D01*
X14940420Y-17543841D02*
X14940420Y-17505746D01*
X14940420Y-17505746D02*
X14949944Y-17458127D01*
X14949944Y-17458127D02*
X14959468Y-17429555D01*
X14959468Y-17429555D02*
X14968991Y-17410508D01*
X14968991Y-17410508D02*
X14988039Y-17381936D01*
X14988039Y-17381936D02*
X14997563Y-17372412D01*
X15054706Y-17400984D02*
X15188039Y-17400984D01*
X15188039Y-17400984D02*
X15102325Y-17600984D01*
X15416610Y-17600984D02*
X15416610Y-17400984D01*
X15502325Y-17600984D02*
X15502325Y-17496222D01*
X15502325Y-17496222D02*
X15492801Y-17477174D01*
X15492801Y-17477174D02*
X15473753Y-17467650D01*
X15473753Y-17467650D02*
X15445182Y-17467650D01*
X15445182Y-17467650D02*
X15426134Y-17477174D01*
X15426134Y-17477174D02*
X15416610Y-17486698D01*
X15626134Y-17600984D02*
X15607087Y-17591460D01*
X15607087Y-17591460D02*
X15597563Y-17581936D01*
X15597563Y-17581936D02*
X15588039Y-17562889D01*
X15588039Y-17562889D02*
X15588039Y-17505746D01*
X15588039Y-17505746D02*
X15597563Y-17486698D01*
X15597563Y-17486698D02*
X15607087Y-17477174D01*
X15607087Y-17477174D02*
X15626134Y-17467650D01*
X15626134Y-17467650D02*
X15654706Y-17467650D01*
X15654706Y-17467650D02*
X15673753Y-17477174D01*
X15673753Y-17477174D02*
X15683277Y-17486698D01*
X15683277Y-17486698D02*
X15692801Y-17505746D01*
X15692801Y-17505746D02*
X15692801Y-17562889D01*
X15692801Y-17562889D02*
X15683277Y-17581936D01*
X15683277Y-17581936D02*
X15673753Y-17591460D01*
X15673753Y-17591460D02*
X15654706Y-17600984D01*
X15654706Y-17600984D02*
X15626134Y-17600984D01*
X15807087Y-17600984D02*
X15788039Y-17591460D01*
X15788039Y-17591460D02*
X15778515Y-17572412D01*
X15778515Y-17572412D02*
X15778515Y-17400984D01*
X15959468Y-17591460D02*
X15940420Y-17600984D01*
X15940420Y-17600984D02*
X15902325Y-17600984D01*
X15902325Y-17600984D02*
X15883277Y-17591460D01*
X15883277Y-17591460D02*
X15873753Y-17572412D01*
X15873753Y-17572412D02*
X15873753Y-17496222D01*
X15873753Y-17496222D02*
X15883277Y-17477174D01*
X15883277Y-17477174D02*
X15902325Y-17467650D01*
X15902325Y-17467650D02*
X15940420Y-17467650D01*
X15940420Y-17467650D02*
X15959468Y-17477174D01*
X15959468Y-17477174D02*
X15968991Y-17496222D01*
X15968991Y-17496222D02*
X15968991Y-17515270D01*
X15968991Y-17515270D02*
X15873753Y-17534317D01*
X16045182Y-17591460D02*
X16064230Y-17600984D01*
X16064230Y-17600984D02*
X16102325Y-17600984D01*
X16102325Y-17600984D02*
X16121372Y-17591460D01*
X16121372Y-17591460D02*
X16130896Y-17572412D01*
X16130896Y-17572412D02*
X16130896Y-17562889D01*
X16130896Y-17562889D02*
X16121372Y-17543841D01*
X16121372Y-17543841D02*
X16102325Y-17534317D01*
X16102325Y-17534317D02*
X16073753Y-17534317D01*
X16073753Y-17534317D02*
X16054706Y-17524793D01*
X16054706Y-17524793D02*
X16045182Y-17505746D01*
X16045182Y-17505746D02*
X16045182Y-17496222D01*
X16045182Y-17496222D02*
X16054706Y-17477174D01*
X16054706Y-17477174D02*
X16073753Y-17467650D01*
X16073753Y-17467650D02*
X16102325Y-17467650D01*
X16102325Y-17467650D02*
X16121372Y-17477174D01*
X16197563Y-17677174D02*
X16207087Y-17667650D01*
X16207087Y-17667650D02*
X16226134Y-17639079D01*
X16226134Y-17639079D02*
X16235658Y-17620031D01*
X16235658Y-17620031D02*
X16245182Y-17591460D01*
X16245182Y-17591460D02*
X16254706Y-17543841D01*
X16254706Y-17543841D02*
X16254706Y-17505746D01*
X16254706Y-17505746D02*
X16245182Y-17458127D01*
X16245182Y-17458127D02*
X16235658Y-17429555D01*
X16235658Y-17429555D02*
X16226134Y-17410508D01*
X16226134Y-17410508D02*
X16207087Y-17381936D01*
X16207087Y-17381936D02*
X16197563Y-17372412D01*
D12*
X11372500Y-17823500D02*
X11422500Y-17773500D01*
X11372500Y-17723500D01*
X11322500Y-17773500D01*
X11372500Y-17823500D01*
D11*
X11788039Y-17864984D02*
X11673753Y-17864984D01*
X11730896Y-17864984D02*
X11730896Y-17664984D01*
X11730896Y-17664984D02*
X11711848Y-17693555D01*
X11711848Y-17693555D02*
X11692801Y-17712603D01*
X11692801Y-17712603D02*
X11673753Y-17722127D01*
X11873753Y-17845936D02*
X11883277Y-17855460D01*
X11883277Y-17855460D02*
X11873753Y-17864984D01*
X11873753Y-17864984D02*
X11864229Y-17855460D01*
X11864229Y-17855460D02*
X11873753Y-17845936D01*
X11873753Y-17845936D02*
X11873753Y-17864984D01*
X12007086Y-17664984D02*
X12026134Y-17664984D01*
X12026134Y-17664984D02*
X12045182Y-17674508D01*
X12045182Y-17674508D02*
X12054705Y-17684031D01*
X12054705Y-17684031D02*
X12064229Y-17703079D01*
X12064229Y-17703079D02*
X12073753Y-17741174D01*
X12073753Y-17741174D02*
X12073753Y-17788793D01*
X12073753Y-17788793D02*
X12064229Y-17826889D01*
X12064229Y-17826889D02*
X12054705Y-17845936D01*
X12054705Y-17845936D02*
X12045182Y-17855460D01*
X12045182Y-17855460D02*
X12026134Y-17864984D01*
X12026134Y-17864984D02*
X12007086Y-17864984D01*
X12007086Y-17864984D02*
X11988039Y-17855460D01*
X11988039Y-17855460D02*
X11978515Y-17845936D01*
X11978515Y-17845936D02*
X11968991Y-17826889D01*
X11968991Y-17826889D02*
X11959467Y-17788793D01*
X11959467Y-17788793D02*
X11959467Y-17741174D01*
X11959467Y-17741174D02*
X11968991Y-17703079D01*
X11968991Y-17703079D02*
X11978515Y-17684031D01*
X11978515Y-17684031D02*
X11988039Y-17674508D01*
X11988039Y-17674508D02*
X12007086Y-17664984D01*
X12197562Y-17664984D02*
X12216610Y-17664984D01*
X12216610Y-17664984D02*
X12235658Y-17674508D01*
X12235658Y-17674508D02*
X12245182Y-17684031D01*
X12245182Y-17684031D02*
X12254705Y-17703079D01*
X12254705Y-17703079D02*
X12264229Y-17741174D01*
X12264229Y-17741174D02*
X12264229Y-17788793D01*
X12264229Y-17788793D02*
X12254705Y-17826889D01*
X12254705Y-17826889D02*
X12245182Y-17845936D01*
X12245182Y-17845936D02*
X12235658Y-17855460D01*
X12235658Y-17855460D02*
X12216610Y-17864984D01*
X12216610Y-17864984D02*
X12197562Y-17864984D01*
X12197562Y-17864984D02*
X12178515Y-17855460D01*
X12178515Y-17855460D02*
X12168991Y-17845936D01*
X12168991Y-17845936D02*
X12159467Y-17826889D01*
X12159467Y-17826889D02*
X12149943Y-17788793D01*
X12149943Y-17788793D02*
X12149943Y-17741174D01*
X12149943Y-17741174D02*
X12159467Y-17703079D01*
X12159467Y-17703079D02*
X12168991Y-17684031D01*
X12168991Y-17684031D02*
X12178515Y-17674508D01*
X12178515Y-17674508D02*
X12197562Y-17664984D01*
X12388039Y-17664984D02*
X12407086Y-17664984D01*
X12407086Y-17664984D02*
X12426134Y-17674508D01*
X12426134Y-17674508D02*
X12435658Y-17684031D01*
X12435658Y-17684031D02*
X12445182Y-17703079D01*
X12445182Y-17703079D02*
X12454705Y-17741174D01*
X12454705Y-17741174D02*
X12454705Y-17788793D01*
X12454705Y-17788793D02*
X12445182Y-17826889D01*
X12445182Y-17826889D02*
X12435658Y-17845936D01*
X12435658Y-17845936D02*
X12426134Y-17855460D01*
X12426134Y-17855460D02*
X12407086Y-17864984D01*
X12407086Y-17864984D02*
X12388039Y-17864984D01*
X12388039Y-17864984D02*
X12368991Y-17855460D01*
X12368991Y-17855460D02*
X12359467Y-17845936D01*
X12359467Y-17845936D02*
X12349943Y-17826889D01*
X12349943Y-17826889D02*
X12340420Y-17788793D01*
X12340420Y-17788793D02*
X12340420Y-17741174D01*
X12340420Y-17741174D02*
X12349943Y-17703079D01*
X12349943Y-17703079D02*
X12359467Y-17684031D01*
X12359467Y-17684031D02*
X12368991Y-17674508D01*
X12368991Y-17674508D02*
X12388039Y-17664984D01*
X12540420Y-17864984D02*
X12540420Y-17731650D01*
X12540420Y-17750698D02*
X12549943Y-17741174D01*
X12549943Y-17741174D02*
X12568991Y-17731650D01*
X12568991Y-17731650D02*
X12597563Y-17731650D01*
X12597563Y-17731650D02*
X12616610Y-17741174D01*
X12616610Y-17741174D02*
X12626134Y-17760222D01*
X12626134Y-17760222D02*
X12626134Y-17864984D01*
X12626134Y-17760222D02*
X12635658Y-17741174D01*
X12635658Y-17741174D02*
X12654705Y-17731650D01*
X12654705Y-17731650D02*
X12683277Y-17731650D01*
X12683277Y-17731650D02*
X12702324Y-17741174D01*
X12702324Y-17741174D02*
X12711848Y-17760222D01*
X12711848Y-17760222D02*
X12711848Y-17864984D01*
X12807086Y-17864984D02*
X12807086Y-17731650D01*
X12807086Y-17750698D02*
X12816610Y-17741174D01*
X12816610Y-17741174D02*
X12835658Y-17731650D01*
X12835658Y-17731650D02*
X12864229Y-17731650D01*
X12864229Y-17731650D02*
X12883277Y-17741174D01*
X12883277Y-17741174D02*
X12892801Y-17760222D01*
X12892801Y-17760222D02*
X12892801Y-17864984D01*
X12892801Y-17760222D02*
X12902324Y-17741174D01*
X12902324Y-17741174D02*
X12921372Y-17731650D01*
X12921372Y-17731650D02*
X12949943Y-17731650D01*
X12949943Y-17731650D02*
X12968991Y-17741174D01*
X12968991Y-17741174D02*
X12978515Y-17760222D01*
X12978515Y-17760222D02*
X12978515Y-17864984D01*
X13368991Y-17655460D02*
X13197563Y-17912603D01*
X13626134Y-17664984D02*
X13645182Y-17664984D01*
X13645182Y-17664984D02*
X13664229Y-17674508D01*
X13664229Y-17674508D02*
X13673753Y-17684031D01*
X13673753Y-17684031D02*
X13683277Y-17703079D01*
X13683277Y-17703079D02*
X13692801Y-17741174D01*
X13692801Y-17741174D02*
X13692801Y-17788793D01*
X13692801Y-17788793D02*
X13683277Y-17826889D01*
X13683277Y-17826889D02*
X13673753Y-17845936D01*
X13673753Y-17845936D02*
X13664229Y-17855460D01*
X13664229Y-17855460D02*
X13645182Y-17864984D01*
X13645182Y-17864984D02*
X13626134Y-17864984D01*
X13626134Y-17864984D02*
X13607086Y-17855460D01*
X13607086Y-17855460D02*
X13597563Y-17845936D01*
X13597563Y-17845936D02*
X13588039Y-17826889D01*
X13588039Y-17826889D02*
X13578515Y-17788793D01*
X13578515Y-17788793D02*
X13578515Y-17741174D01*
X13578515Y-17741174D02*
X13588039Y-17703079D01*
X13588039Y-17703079D02*
X13597563Y-17684031D01*
X13597563Y-17684031D02*
X13607086Y-17674508D01*
X13607086Y-17674508D02*
X13626134Y-17664984D01*
X13778515Y-17845936D02*
X13788039Y-17855460D01*
X13788039Y-17855460D02*
X13778515Y-17864984D01*
X13778515Y-17864984D02*
X13768991Y-17855460D01*
X13768991Y-17855460D02*
X13778515Y-17845936D01*
X13778515Y-17845936D02*
X13778515Y-17864984D01*
X13911848Y-17664984D02*
X13930896Y-17664984D01*
X13930896Y-17664984D02*
X13949944Y-17674508D01*
X13949944Y-17674508D02*
X13959467Y-17684031D01*
X13959467Y-17684031D02*
X13968991Y-17703079D01*
X13968991Y-17703079D02*
X13978515Y-17741174D01*
X13978515Y-17741174D02*
X13978515Y-17788793D01*
X13978515Y-17788793D02*
X13968991Y-17826889D01*
X13968991Y-17826889D02*
X13959467Y-17845936D01*
X13959467Y-17845936D02*
X13949944Y-17855460D01*
X13949944Y-17855460D02*
X13930896Y-17864984D01*
X13930896Y-17864984D02*
X13911848Y-17864984D01*
X13911848Y-17864984D02*
X13892801Y-17855460D01*
X13892801Y-17855460D02*
X13883277Y-17845936D01*
X13883277Y-17845936D02*
X13873753Y-17826889D01*
X13873753Y-17826889D02*
X13864229Y-17788793D01*
X13864229Y-17788793D02*
X13864229Y-17741174D01*
X13864229Y-17741174D02*
X13873753Y-17703079D01*
X13873753Y-17703079D02*
X13883277Y-17684031D01*
X13883277Y-17684031D02*
X13892801Y-17674508D01*
X13892801Y-17674508D02*
X13911848Y-17664984D01*
X14045182Y-17664984D02*
X14168991Y-17664984D01*
X14168991Y-17664984D02*
X14102325Y-17741174D01*
X14102325Y-17741174D02*
X14130896Y-17741174D01*
X14130896Y-17741174D02*
X14149944Y-17750698D01*
X14149944Y-17750698D02*
X14159467Y-17760222D01*
X14159467Y-17760222D02*
X14168991Y-17779270D01*
X14168991Y-17779270D02*
X14168991Y-17826889D01*
X14168991Y-17826889D02*
X14159467Y-17845936D01*
X14159467Y-17845936D02*
X14149944Y-17855460D01*
X14149944Y-17855460D02*
X14130896Y-17864984D01*
X14130896Y-17864984D02*
X14073753Y-17864984D01*
X14073753Y-17864984D02*
X14054706Y-17855460D01*
X14054706Y-17855460D02*
X14045182Y-17845936D01*
X14264229Y-17864984D02*
X14302325Y-17864984D01*
X14302325Y-17864984D02*
X14321372Y-17855460D01*
X14321372Y-17855460D02*
X14330896Y-17845936D01*
X14330896Y-17845936D02*
X14349944Y-17817365D01*
X14349944Y-17817365D02*
X14359467Y-17779270D01*
X14359467Y-17779270D02*
X14359467Y-17703079D01*
X14359467Y-17703079D02*
X14349944Y-17684031D01*
X14349944Y-17684031D02*
X14340420Y-17674508D01*
X14340420Y-17674508D02*
X14321372Y-17664984D01*
X14321372Y-17664984D02*
X14283277Y-17664984D01*
X14283277Y-17664984D02*
X14264229Y-17674508D01*
X14264229Y-17674508D02*
X14254706Y-17684031D01*
X14254706Y-17684031D02*
X14245182Y-17703079D01*
X14245182Y-17703079D02*
X14245182Y-17750698D01*
X14245182Y-17750698D02*
X14254706Y-17769746D01*
X14254706Y-17769746D02*
X14264229Y-17779270D01*
X14264229Y-17779270D02*
X14283277Y-17788793D01*
X14283277Y-17788793D02*
X14321372Y-17788793D01*
X14321372Y-17788793D02*
X14340420Y-17779270D01*
X14340420Y-17779270D02*
X14349944Y-17769746D01*
X14349944Y-17769746D02*
X14359467Y-17750698D01*
X14530896Y-17731650D02*
X14530896Y-17864984D01*
X14483277Y-17655460D02*
X14435658Y-17798317D01*
X14435658Y-17798317D02*
X14559467Y-17798317D01*
X14626134Y-17664984D02*
X14626134Y-17703079D01*
X14702325Y-17664984D02*
X14702325Y-17703079D01*
X14997563Y-17941174D02*
X14988039Y-17931650D01*
X14988039Y-17931650D02*
X14968991Y-17903079D01*
X14968991Y-17903079D02*
X14959468Y-17884031D01*
X14959468Y-17884031D02*
X14949944Y-17855460D01*
X14949944Y-17855460D02*
X14940420Y-17807841D01*
X14940420Y-17807841D02*
X14940420Y-17769746D01*
X14940420Y-17769746D02*
X14949944Y-17722127D01*
X14949944Y-17722127D02*
X14959468Y-17693555D01*
X14959468Y-17693555D02*
X14968991Y-17674508D01*
X14968991Y-17674508D02*
X14988039Y-17645936D01*
X14988039Y-17645936D02*
X14997563Y-17636412D01*
X15178515Y-17864984D02*
X15064229Y-17864984D01*
X15121372Y-17864984D02*
X15121372Y-17664984D01*
X15121372Y-17664984D02*
X15102325Y-17693555D01*
X15102325Y-17693555D02*
X15083277Y-17712603D01*
X15083277Y-17712603D02*
X15064229Y-17722127D01*
X15302325Y-17664984D02*
X15321372Y-17664984D01*
X15321372Y-17664984D02*
X15340420Y-17674508D01*
X15340420Y-17674508D02*
X15349944Y-17684031D01*
X15349944Y-17684031D02*
X15359468Y-17703079D01*
X15359468Y-17703079D02*
X15368991Y-17741174D01*
X15368991Y-17741174D02*
X15368991Y-17788793D01*
X15368991Y-17788793D02*
X15359468Y-17826889D01*
X15359468Y-17826889D02*
X15349944Y-17845936D01*
X15349944Y-17845936D02*
X15340420Y-17855460D01*
X15340420Y-17855460D02*
X15321372Y-17864984D01*
X15321372Y-17864984D02*
X15302325Y-17864984D01*
X15302325Y-17864984D02*
X15283277Y-17855460D01*
X15283277Y-17855460D02*
X15273753Y-17845936D01*
X15273753Y-17845936D02*
X15264229Y-17826889D01*
X15264229Y-17826889D02*
X15254706Y-17788793D01*
X15254706Y-17788793D02*
X15254706Y-17741174D01*
X15254706Y-17741174D02*
X15264229Y-17703079D01*
X15264229Y-17703079D02*
X15273753Y-17684031D01*
X15273753Y-17684031D02*
X15283277Y-17674508D01*
X15283277Y-17674508D02*
X15302325Y-17664984D01*
X15607087Y-17864984D02*
X15607087Y-17664984D01*
X15692801Y-17864984D02*
X15692801Y-17760222D01*
X15692801Y-17760222D02*
X15683277Y-17741174D01*
X15683277Y-17741174D02*
X15664230Y-17731650D01*
X15664230Y-17731650D02*
X15635658Y-17731650D01*
X15635658Y-17731650D02*
X15616610Y-17741174D01*
X15616610Y-17741174D02*
X15607087Y-17750698D01*
X15816610Y-17864984D02*
X15797563Y-17855460D01*
X15797563Y-17855460D02*
X15788039Y-17845936D01*
X15788039Y-17845936D02*
X15778515Y-17826889D01*
X15778515Y-17826889D02*
X15778515Y-17769746D01*
X15778515Y-17769746D02*
X15788039Y-17750698D01*
X15788039Y-17750698D02*
X15797563Y-17741174D01*
X15797563Y-17741174D02*
X15816610Y-17731650D01*
X15816610Y-17731650D02*
X15845182Y-17731650D01*
X15845182Y-17731650D02*
X15864230Y-17741174D01*
X15864230Y-17741174D02*
X15873753Y-17750698D01*
X15873753Y-17750698D02*
X15883277Y-17769746D01*
X15883277Y-17769746D02*
X15883277Y-17826889D01*
X15883277Y-17826889D02*
X15873753Y-17845936D01*
X15873753Y-17845936D02*
X15864230Y-17855460D01*
X15864230Y-17855460D02*
X15845182Y-17864984D01*
X15845182Y-17864984D02*
X15816610Y-17864984D01*
X15997563Y-17864984D02*
X15978515Y-17855460D01*
X15978515Y-17855460D02*
X15968991Y-17836412D01*
X15968991Y-17836412D02*
X15968991Y-17664984D01*
X16149944Y-17855460D02*
X16130896Y-17864984D01*
X16130896Y-17864984D02*
X16092801Y-17864984D01*
X16092801Y-17864984D02*
X16073753Y-17855460D01*
X16073753Y-17855460D02*
X16064230Y-17836412D01*
X16064230Y-17836412D02*
X16064230Y-17760222D01*
X16064230Y-17760222D02*
X16073753Y-17741174D01*
X16073753Y-17741174D02*
X16092801Y-17731650D01*
X16092801Y-17731650D02*
X16130896Y-17731650D01*
X16130896Y-17731650D02*
X16149944Y-17741174D01*
X16149944Y-17741174D02*
X16159468Y-17760222D01*
X16159468Y-17760222D02*
X16159468Y-17779270D01*
X16159468Y-17779270D02*
X16064230Y-17798317D01*
X16235658Y-17855460D02*
X16254706Y-17864984D01*
X16254706Y-17864984D02*
X16292801Y-17864984D01*
X16292801Y-17864984D02*
X16311849Y-17855460D01*
X16311849Y-17855460D02*
X16321372Y-17836412D01*
X16321372Y-17836412D02*
X16321372Y-17826889D01*
X16321372Y-17826889D02*
X16311849Y-17807841D01*
X16311849Y-17807841D02*
X16292801Y-17798317D01*
X16292801Y-17798317D02*
X16264230Y-17798317D01*
X16264230Y-17798317D02*
X16245182Y-17788793D01*
X16245182Y-17788793D02*
X16235658Y-17769746D01*
X16235658Y-17769746D02*
X16235658Y-17760222D01*
X16235658Y-17760222D02*
X16245182Y-17741174D01*
X16245182Y-17741174D02*
X16264230Y-17731650D01*
X16264230Y-17731650D02*
X16292801Y-17731650D01*
X16292801Y-17731650D02*
X16311849Y-17741174D01*
X16388039Y-17941174D02*
X16397563Y-17931650D01*
X16397563Y-17931650D02*
X16416611Y-17903079D01*
X16416611Y-17903079D02*
X16426134Y-17884031D01*
X16426134Y-17884031D02*
X16435658Y-17855460D01*
X16435658Y-17855460D02*
X16445182Y-17807841D01*
X16445182Y-17807841D02*
X16445182Y-17769746D01*
X16445182Y-17769746D02*
X16435658Y-17722127D01*
X16435658Y-17722127D02*
X16426134Y-17693555D01*
X16426134Y-17693555D02*
X16416611Y-17674508D01*
X16416611Y-17674508D02*
X16397563Y-17645936D01*
X16397563Y-17645936D02*
X16388039Y-17636412D01*
D13*
X11312500Y-17982500D02*
X11422500Y-18092500D01*
X11422500Y-17982500D02*
X11312500Y-18092500D01*
X11422500Y-18037500D02*
G75*
G02*
X11312500Y-18037500I-55000J0D01*
G01*
X11312500Y-18037500D02*
G75*
G02*
X11422500Y-18037500I55000J0D01*
G01*
D11*
X11788039Y-18128984D02*
X11673753Y-18128984D01*
X11730896Y-18128984D02*
X11730896Y-17928984D01*
X11730896Y-17928984D02*
X11711848Y-17957555D01*
X11711848Y-17957555D02*
X11692801Y-17976603D01*
X11692801Y-17976603D02*
X11673753Y-17986127D01*
X11873753Y-18109936D02*
X11883277Y-18119460D01*
X11883277Y-18119460D02*
X11873753Y-18128984D01*
X11873753Y-18128984D02*
X11864229Y-18119460D01*
X11864229Y-18119460D02*
X11873753Y-18109936D01*
X11873753Y-18109936D02*
X11873753Y-18128984D01*
X12073753Y-18128984D02*
X11959467Y-18128984D01*
X12016610Y-18128984D02*
X12016610Y-17928984D01*
X12016610Y-17928984D02*
X11997562Y-17957555D01*
X11997562Y-17957555D02*
X11978515Y-17976603D01*
X11978515Y-17976603D02*
X11959467Y-17986127D01*
X12197562Y-17928984D02*
X12216610Y-17928984D01*
X12216610Y-17928984D02*
X12235658Y-17938508D01*
X12235658Y-17938508D02*
X12245182Y-17948031D01*
X12245182Y-17948031D02*
X12254705Y-17967079D01*
X12254705Y-17967079D02*
X12264229Y-18005174D01*
X12264229Y-18005174D02*
X12264229Y-18052793D01*
X12264229Y-18052793D02*
X12254705Y-18090889D01*
X12254705Y-18090889D02*
X12245182Y-18109936D01*
X12245182Y-18109936D02*
X12235658Y-18119460D01*
X12235658Y-18119460D02*
X12216610Y-18128984D01*
X12216610Y-18128984D02*
X12197562Y-18128984D01*
X12197562Y-18128984D02*
X12178515Y-18119460D01*
X12178515Y-18119460D02*
X12168991Y-18109936D01*
X12168991Y-18109936D02*
X12159467Y-18090889D01*
X12159467Y-18090889D02*
X12149943Y-18052793D01*
X12149943Y-18052793D02*
X12149943Y-18005174D01*
X12149943Y-18005174D02*
X12159467Y-17967079D01*
X12159467Y-17967079D02*
X12168991Y-17948031D01*
X12168991Y-17948031D02*
X12178515Y-17938508D01*
X12178515Y-17938508D02*
X12197562Y-17928984D01*
X12388039Y-17928984D02*
X12407086Y-17928984D01*
X12407086Y-17928984D02*
X12426134Y-17938508D01*
X12426134Y-17938508D02*
X12435658Y-17948031D01*
X12435658Y-17948031D02*
X12445182Y-17967079D01*
X12445182Y-17967079D02*
X12454705Y-18005174D01*
X12454705Y-18005174D02*
X12454705Y-18052793D01*
X12454705Y-18052793D02*
X12445182Y-18090889D01*
X12445182Y-18090889D02*
X12435658Y-18109936D01*
X12435658Y-18109936D02*
X12426134Y-18119460D01*
X12426134Y-18119460D02*
X12407086Y-18128984D01*
X12407086Y-18128984D02*
X12388039Y-18128984D01*
X12388039Y-18128984D02*
X12368991Y-18119460D01*
X12368991Y-18119460D02*
X12359467Y-18109936D01*
X12359467Y-18109936D02*
X12349943Y-18090889D01*
X12349943Y-18090889D02*
X12340420Y-18052793D01*
X12340420Y-18052793D02*
X12340420Y-18005174D01*
X12340420Y-18005174D02*
X12349943Y-17967079D01*
X12349943Y-17967079D02*
X12359467Y-17948031D01*
X12359467Y-17948031D02*
X12368991Y-17938508D01*
X12368991Y-17938508D02*
X12388039Y-17928984D01*
X12540420Y-18128984D02*
X12540420Y-17995650D01*
X12540420Y-18014698D02*
X12549943Y-18005174D01*
X12549943Y-18005174D02*
X12568991Y-17995650D01*
X12568991Y-17995650D02*
X12597563Y-17995650D01*
X12597563Y-17995650D02*
X12616610Y-18005174D01*
X12616610Y-18005174D02*
X12626134Y-18024222D01*
X12626134Y-18024222D02*
X12626134Y-18128984D01*
X12626134Y-18024222D02*
X12635658Y-18005174D01*
X12635658Y-18005174D02*
X12654705Y-17995650D01*
X12654705Y-17995650D02*
X12683277Y-17995650D01*
X12683277Y-17995650D02*
X12702324Y-18005174D01*
X12702324Y-18005174D02*
X12711848Y-18024222D01*
X12711848Y-18024222D02*
X12711848Y-18128984D01*
X12807086Y-18128984D02*
X12807086Y-17995650D01*
X12807086Y-18014698D02*
X12816610Y-18005174D01*
X12816610Y-18005174D02*
X12835658Y-17995650D01*
X12835658Y-17995650D02*
X12864229Y-17995650D01*
X12864229Y-17995650D02*
X12883277Y-18005174D01*
X12883277Y-18005174D02*
X12892801Y-18024222D01*
X12892801Y-18024222D02*
X12892801Y-18128984D01*
X12892801Y-18024222D02*
X12902324Y-18005174D01*
X12902324Y-18005174D02*
X12921372Y-17995650D01*
X12921372Y-17995650D02*
X12949943Y-17995650D01*
X12949943Y-17995650D02*
X12968991Y-18005174D01*
X12968991Y-18005174D02*
X12978515Y-18024222D01*
X12978515Y-18024222D02*
X12978515Y-18128984D01*
X13368991Y-17919460D02*
X13197563Y-18176603D01*
X13626134Y-17928984D02*
X13645182Y-17928984D01*
X13645182Y-17928984D02*
X13664229Y-17938508D01*
X13664229Y-17938508D02*
X13673753Y-17948031D01*
X13673753Y-17948031D02*
X13683277Y-17967079D01*
X13683277Y-17967079D02*
X13692801Y-18005174D01*
X13692801Y-18005174D02*
X13692801Y-18052793D01*
X13692801Y-18052793D02*
X13683277Y-18090889D01*
X13683277Y-18090889D02*
X13673753Y-18109936D01*
X13673753Y-18109936D02*
X13664229Y-18119460D01*
X13664229Y-18119460D02*
X13645182Y-18128984D01*
X13645182Y-18128984D02*
X13626134Y-18128984D01*
X13626134Y-18128984D02*
X13607086Y-18119460D01*
X13607086Y-18119460D02*
X13597563Y-18109936D01*
X13597563Y-18109936D02*
X13588039Y-18090889D01*
X13588039Y-18090889D02*
X13578515Y-18052793D01*
X13578515Y-18052793D02*
X13578515Y-18005174D01*
X13578515Y-18005174D02*
X13588039Y-17967079D01*
X13588039Y-17967079D02*
X13597563Y-17948031D01*
X13597563Y-17948031D02*
X13607086Y-17938508D01*
X13607086Y-17938508D02*
X13626134Y-17928984D01*
X13778515Y-18109936D02*
X13788039Y-18119460D01*
X13788039Y-18119460D02*
X13778515Y-18128984D01*
X13778515Y-18128984D02*
X13768991Y-18119460D01*
X13768991Y-18119460D02*
X13778515Y-18109936D01*
X13778515Y-18109936D02*
X13778515Y-18128984D01*
X13911848Y-17928984D02*
X13930896Y-17928984D01*
X13930896Y-17928984D02*
X13949944Y-17938508D01*
X13949944Y-17938508D02*
X13959467Y-17948031D01*
X13959467Y-17948031D02*
X13968991Y-17967079D01*
X13968991Y-17967079D02*
X13978515Y-18005174D01*
X13978515Y-18005174D02*
X13978515Y-18052793D01*
X13978515Y-18052793D02*
X13968991Y-18090889D01*
X13968991Y-18090889D02*
X13959467Y-18109936D01*
X13959467Y-18109936D02*
X13949944Y-18119460D01*
X13949944Y-18119460D02*
X13930896Y-18128984D01*
X13930896Y-18128984D02*
X13911848Y-18128984D01*
X13911848Y-18128984D02*
X13892801Y-18119460D01*
X13892801Y-18119460D02*
X13883277Y-18109936D01*
X13883277Y-18109936D02*
X13873753Y-18090889D01*
X13873753Y-18090889D02*
X13864229Y-18052793D01*
X13864229Y-18052793D02*
X13864229Y-18005174D01*
X13864229Y-18005174D02*
X13873753Y-17967079D01*
X13873753Y-17967079D02*
X13883277Y-17948031D01*
X13883277Y-17948031D02*
X13892801Y-17938508D01*
X13892801Y-17938508D02*
X13911848Y-17928984D01*
X14149944Y-17995650D02*
X14149944Y-18128984D01*
X14102325Y-17919460D02*
X14054706Y-18062317D01*
X14054706Y-18062317D02*
X14178515Y-18062317D01*
X14235658Y-17928984D02*
X14359467Y-17928984D01*
X14359467Y-17928984D02*
X14292801Y-18005174D01*
X14292801Y-18005174D02*
X14321372Y-18005174D01*
X14321372Y-18005174D02*
X14340420Y-18014698D01*
X14340420Y-18014698D02*
X14349944Y-18024222D01*
X14349944Y-18024222D02*
X14359467Y-18043270D01*
X14359467Y-18043270D02*
X14359467Y-18090889D01*
X14359467Y-18090889D02*
X14349944Y-18109936D01*
X14349944Y-18109936D02*
X14340420Y-18119460D01*
X14340420Y-18119460D02*
X14321372Y-18128984D01*
X14321372Y-18128984D02*
X14264229Y-18128984D01*
X14264229Y-18128984D02*
X14245182Y-18119460D01*
X14245182Y-18119460D02*
X14235658Y-18109936D01*
X14426134Y-17928984D02*
X14549944Y-17928984D01*
X14549944Y-17928984D02*
X14483277Y-18005174D01*
X14483277Y-18005174D02*
X14511848Y-18005174D01*
X14511848Y-18005174D02*
X14530896Y-18014698D01*
X14530896Y-18014698D02*
X14540420Y-18024222D01*
X14540420Y-18024222D02*
X14549944Y-18043270D01*
X14549944Y-18043270D02*
X14549944Y-18090889D01*
X14549944Y-18090889D02*
X14540420Y-18109936D01*
X14540420Y-18109936D02*
X14530896Y-18119460D01*
X14530896Y-18119460D02*
X14511848Y-18128984D01*
X14511848Y-18128984D02*
X14454706Y-18128984D01*
X14454706Y-18128984D02*
X14435658Y-18119460D01*
X14435658Y-18119460D02*
X14426134Y-18109936D01*
X14626134Y-17928984D02*
X14626134Y-17967079D01*
X14702325Y-17928984D02*
X14702325Y-17967079D01*
X14997563Y-18205174D02*
X14988039Y-18195650D01*
X14988039Y-18195650D02*
X14968991Y-18167079D01*
X14968991Y-18167079D02*
X14959468Y-18148031D01*
X14959468Y-18148031D02*
X14949944Y-18119460D01*
X14949944Y-18119460D02*
X14940420Y-18071841D01*
X14940420Y-18071841D02*
X14940420Y-18033746D01*
X14940420Y-18033746D02*
X14949944Y-17986127D01*
X14949944Y-17986127D02*
X14959468Y-17957555D01*
X14959468Y-17957555D02*
X14968991Y-17938508D01*
X14968991Y-17938508D02*
X14988039Y-17909936D01*
X14988039Y-17909936D02*
X14997563Y-17900412D01*
X15178515Y-18128984D02*
X15064229Y-18128984D01*
X15121372Y-18128984D02*
X15121372Y-17928984D01*
X15121372Y-17928984D02*
X15102325Y-17957555D01*
X15102325Y-17957555D02*
X15083277Y-17976603D01*
X15083277Y-17976603D02*
X15064229Y-17986127D01*
X15349944Y-17995650D02*
X15349944Y-18128984D01*
X15302325Y-17919460D02*
X15254706Y-18062317D01*
X15254706Y-18062317D02*
X15378515Y-18062317D01*
X15607087Y-18128984D02*
X15607087Y-17928984D01*
X15692801Y-18128984D02*
X15692801Y-18024222D01*
X15692801Y-18024222D02*
X15683277Y-18005174D01*
X15683277Y-18005174D02*
X15664230Y-17995650D01*
X15664230Y-17995650D02*
X15635658Y-17995650D01*
X15635658Y-17995650D02*
X15616610Y-18005174D01*
X15616610Y-18005174D02*
X15607087Y-18014698D01*
X15816610Y-18128984D02*
X15797563Y-18119460D01*
X15797563Y-18119460D02*
X15788039Y-18109936D01*
X15788039Y-18109936D02*
X15778515Y-18090889D01*
X15778515Y-18090889D02*
X15778515Y-18033746D01*
X15778515Y-18033746D02*
X15788039Y-18014698D01*
X15788039Y-18014698D02*
X15797563Y-18005174D01*
X15797563Y-18005174D02*
X15816610Y-17995650D01*
X15816610Y-17995650D02*
X15845182Y-17995650D01*
X15845182Y-17995650D02*
X15864230Y-18005174D01*
X15864230Y-18005174D02*
X15873753Y-18014698D01*
X15873753Y-18014698D02*
X15883277Y-18033746D01*
X15883277Y-18033746D02*
X15883277Y-18090889D01*
X15883277Y-18090889D02*
X15873753Y-18109936D01*
X15873753Y-18109936D02*
X15864230Y-18119460D01*
X15864230Y-18119460D02*
X15845182Y-18128984D01*
X15845182Y-18128984D02*
X15816610Y-18128984D01*
X15997563Y-18128984D02*
X15978515Y-18119460D01*
X15978515Y-18119460D02*
X15968991Y-18100412D01*
X15968991Y-18100412D02*
X15968991Y-17928984D01*
X16149944Y-18119460D02*
X16130896Y-18128984D01*
X16130896Y-18128984D02*
X16092801Y-18128984D01*
X16092801Y-18128984D02*
X16073753Y-18119460D01*
X16073753Y-18119460D02*
X16064230Y-18100412D01*
X16064230Y-18100412D02*
X16064230Y-18024222D01*
X16064230Y-18024222D02*
X16073753Y-18005174D01*
X16073753Y-18005174D02*
X16092801Y-17995650D01*
X16092801Y-17995650D02*
X16130896Y-17995650D01*
X16130896Y-17995650D02*
X16149944Y-18005174D01*
X16149944Y-18005174D02*
X16159468Y-18024222D01*
X16159468Y-18024222D02*
X16159468Y-18043270D01*
X16159468Y-18043270D02*
X16064230Y-18062317D01*
X16235658Y-18119460D02*
X16254706Y-18128984D01*
X16254706Y-18128984D02*
X16292801Y-18128984D01*
X16292801Y-18128984D02*
X16311849Y-18119460D01*
X16311849Y-18119460D02*
X16321372Y-18100412D01*
X16321372Y-18100412D02*
X16321372Y-18090889D01*
X16321372Y-18090889D02*
X16311849Y-18071841D01*
X16311849Y-18071841D02*
X16292801Y-18062317D01*
X16292801Y-18062317D02*
X16264230Y-18062317D01*
X16264230Y-18062317D02*
X16245182Y-18052793D01*
X16245182Y-18052793D02*
X16235658Y-18033746D01*
X16235658Y-18033746D02*
X16235658Y-18024222D01*
X16235658Y-18024222D02*
X16245182Y-18005174D01*
X16245182Y-18005174D02*
X16264230Y-17995650D01*
X16264230Y-17995650D02*
X16292801Y-17995650D01*
X16292801Y-17995650D02*
X16311849Y-18005174D01*
X16388039Y-18205174D02*
X16397563Y-18195650D01*
X16397563Y-18195650D02*
X16416611Y-18167079D01*
X16416611Y-18167079D02*
X16426134Y-18148031D01*
X16426134Y-18148031D02*
X16435658Y-18119460D01*
X16435658Y-18119460D02*
X16445182Y-18071841D01*
X16445182Y-18071841D02*
X16445182Y-18033746D01*
X16445182Y-18033746D02*
X16435658Y-17986127D01*
X16435658Y-17986127D02*
X16426134Y-17957555D01*
X16426134Y-17957555D02*
X16416611Y-17938508D01*
X16416611Y-17938508D02*
X16397563Y-17909936D01*
X16397563Y-17909936D02*
X16388039Y-17900412D01*
D14*
X11311500Y-18246000D02*
X11422500Y-18357000D01*
X11422500Y-18246000D02*
X11311500Y-18357000D01*
X11367000Y-18246000D02*
X11367000Y-18357000D01*
X11311500Y-18301500D02*
X11422500Y-18301500D01*
D11*
X11788039Y-18392984D02*
X11673753Y-18392984D01*
X11730896Y-18392984D02*
X11730896Y-18192984D01*
X11730896Y-18192984D02*
X11711848Y-18221555D01*
X11711848Y-18221555D02*
X11692801Y-18240603D01*
X11692801Y-18240603D02*
X11673753Y-18250127D01*
X11873753Y-18373936D02*
X11883277Y-18383460D01*
X11883277Y-18383460D02*
X11873753Y-18392984D01*
X11873753Y-18392984D02*
X11864229Y-18383460D01*
X11864229Y-18383460D02*
X11873753Y-18373936D01*
X11873753Y-18373936D02*
X11873753Y-18392984D01*
X12073753Y-18392984D02*
X11959467Y-18392984D01*
X12016610Y-18392984D02*
X12016610Y-18192984D01*
X12016610Y-18192984D02*
X11997562Y-18221555D01*
X11997562Y-18221555D02*
X11978515Y-18240603D01*
X11978515Y-18240603D02*
X11959467Y-18250127D01*
X12264229Y-18392984D02*
X12149943Y-18392984D01*
X12207086Y-18392984D02*
X12207086Y-18192984D01*
X12207086Y-18192984D02*
X12188039Y-18221555D01*
X12188039Y-18221555D02*
X12168991Y-18240603D01*
X12168991Y-18240603D02*
X12149943Y-18250127D01*
X12388039Y-18192984D02*
X12407086Y-18192984D01*
X12407086Y-18192984D02*
X12426134Y-18202508D01*
X12426134Y-18202508D02*
X12435658Y-18212031D01*
X12435658Y-18212031D02*
X12445182Y-18231079D01*
X12445182Y-18231079D02*
X12454705Y-18269174D01*
X12454705Y-18269174D02*
X12454705Y-18316793D01*
X12454705Y-18316793D02*
X12445182Y-18354889D01*
X12445182Y-18354889D02*
X12435658Y-18373936D01*
X12435658Y-18373936D02*
X12426134Y-18383460D01*
X12426134Y-18383460D02*
X12407086Y-18392984D01*
X12407086Y-18392984D02*
X12388039Y-18392984D01*
X12388039Y-18392984D02*
X12368991Y-18383460D01*
X12368991Y-18383460D02*
X12359467Y-18373936D01*
X12359467Y-18373936D02*
X12349943Y-18354889D01*
X12349943Y-18354889D02*
X12340420Y-18316793D01*
X12340420Y-18316793D02*
X12340420Y-18269174D01*
X12340420Y-18269174D02*
X12349943Y-18231079D01*
X12349943Y-18231079D02*
X12359467Y-18212031D01*
X12359467Y-18212031D02*
X12368991Y-18202508D01*
X12368991Y-18202508D02*
X12388039Y-18192984D01*
X12540420Y-18392984D02*
X12540420Y-18259650D01*
X12540420Y-18278698D02*
X12549943Y-18269174D01*
X12549943Y-18269174D02*
X12568991Y-18259650D01*
X12568991Y-18259650D02*
X12597563Y-18259650D01*
X12597563Y-18259650D02*
X12616610Y-18269174D01*
X12616610Y-18269174D02*
X12626134Y-18288222D01*
X12626134Y-18288222D02*
X12626134Y-18392984D01*
X12626134Y-18288222D02*
X12635658Y-18269174D01*
X12635658Y-18269174D02*
X12654705Y-18259650D01*
X12654705Y-18259650D02*
X12683277Y-18259650D01*
X12683277Y-18259650D02*
X12702324Y-18269174D01*
X12702324Y-18269174D02*
X12711848Y-18288222D01*
X12711848Y-18288222D02*
X12711848Y-18392984D01*
X12807086Y-18392984D02*
X12807086Y-18259650D01*
X12807086Y-18278698D02*
X12816610Y-18269174D01*
X12816610Y-18269174D02*
X12835658Y-18259650D01*
X12835658Y-18259650D02*
X12864229Y-18259650D01*
X12864229Y-18259650D02*
X12883277Y-18269174D01*
X12883277Y-18269174D02*
X12892801Y-18288222D01*
X12892801Y-18288222D02*
X12892801Y-18392984D01*
X12892801Y-18288222D02*
X12902324Y-18269174D01*
X12902324Y-18269174D02*
X12921372Y-18259650D01*
X12921372Y-18259650D02*
X12949943Y-18259650D01*
X12949943Y-18259650D02*
X12968991Y-18269174D01*
X12968991Y-18269174D02*
X12978515Y-18288222D01*
X12978515Y-18288222D02*
X12978515Y-18392984D01*
X13368991Y-18183460D02*
X13197563Y-18440603D01*
X13626134Y-18192984D02*
X13645182Y-18192984D01*
X13645182Y-18192984D02*
X13664229Y-18202508D01*
X13664229Y-18202508D02*
X13673753Y-18212031D01*
X13673753Y-18212031D02*
X13683277Y-18231079D01*
X13683277Y-18231079D02*
X13692801Y-18269174D01*
X13692801Y-18269174D02*
X13692801Y-18316793D01*
X13692801Y-18316793D02*
X13683277Y-18354889D01*
X13683277Y-18354889D02*
X13673753Y-18373936D01*
X13673753Y-18373936D02*
X13664229Y-18383460D01*
X13664229Y-18383460D02*
X13645182Y-18392984D01*
X13645182Y-18392984D02*
X13626134Y-18392984D01*
X13626134Y-18392984D02*
X13607086Y-18383460D01*
X13607086Y-18383460D02*
X13597563Y-18373936D01*
X13597563Y-18373936D02*
X13588039Y-18354889D01*
X13588039Y-18354889D02*
X13578515Y-18316793D01*
X13578515Y-18316793D02*
X13578515Y-18269174D01*
X13578515Y-18269174D02*
X13588039Y-18231079D01*
X13588039Y-18231079D02*
X13597563Y-18212031D01*
X13597563Y-18212031D02*
X13607086Y-18202508D01*
X13607086Y-18202508D02*
X13626134Y-18192984D01*
X13778515Y-18373936D02*
X13788039Y-18383460D01*
X13788039Y-18383460D02*
X13778515Y-18392984D01*
X13778515Y-18392984D02*
X13768991Y-18383460D01*
X13768991Y-18383460D02*
X13778515Y-18373936D01*
X13778515Y-18373936D02*
X13778515Y-18392984D01*
X13911848Y-18192984D02*
X13930896Y-18192984D01*
X13930896Y-18192984D02*
X13949944Y-18202508D01*
X13949944Y-18202508D02*
X13959467Y-18212031D01*
X13959467Y-18212031D02*
X13968991Y-18231079D01*
X13968991Y-18231079D02*
X13978515Y-18269174D01*
X13978515Y-18269174D02*
X13978515Y-18316793D01*
X13978515Y-18316793D02*
X13968991Y-18354889D01*
X13968991Y-18354889D02*
X13959467Y-18373936D01*
X13959467Y-18373936D02*
X13949944Y-18383460D01*
X13949944Y-18383460D02*
X13930896Y-18392984D01*
X13930896Y-18392984D02*
X13911848Y-18392984D01*
X13911848Y-18392984D02*
X13892801Y-18383460D01*
X13892801Y-18383460D02*
X13883277Y-18373936D01*
X13883277Y-18373936D02*
X13873753Y-18354889D01*
X13873753Y-18354889D02*
X13864229Y-18316793D01*
X13864229Y-18316793D02*
X13864229Y-18269174D01*
X13864229Y-18269174D02*
X13873753Y-18231079D01*
X13873753Y-18231079D02*
X13883277Y-18212031D01*
X13883277Y-18212031D02*
X13892801Y-18202508D01*
X13892801Y-18202508D02*
X13911848Y-18192984D01*
X14149944Y-18259650D02*
X14149944Y-18392984D01*
X14102325Y-18183460D02*
X14054706Y-18326317D01*
X14054706Y-18326317D02*
X14178515Y-18326317D01*
X14235658Y-18192984D02*
X14359467Y-18192984D01*
X14359467Y-18192984D02*
X14292801Y-18269174D01*
X14292801Y-18269174D02*
X14321372Y-18269174D01*
X14321372Y-18269174D02*
X14340420Y-18278698D01*
X14340420Y-18278698D02*
X14349944Y-18288222D01*
X14349944Y-18288222D02*
X14359467Y-18307270D01*
X14359467Y-18307270D02*
X14359467Y-18354889D01*
X14359467Y-18354889D02*
X14349944Y-18373936D01*
X14349944Y-18373936D02*
X14340420Y-18383460D01*
X14340420Y-18383460D02*
X14321372Y-18392984D01*
X14321372Y-18392984D02*
X14264229Y-18392984D01*
X14264229Y-18392984D02*
X14245182Y-18383460D01*
X14245182Y-18383460D02*
X14235658Y-18373936D01*
X14426134Y-18192984D02*
X14559467Y-18192984D01*
X14559467Y-18192984D02*
X14473753Y-18392984D01*
X14626134Y-18192984D02*
X14626134Y-18231079D01*
X14702325Y-18192984D02*
X14702325Y-18231079D01*
X14997563Y-18469174D02*
X14988039Y-18459650D01*
X14988039Y-18459650D02*
X14968991Y-18431079D01*
X14968991Y-18431079D02*
X14959468Y-18412031D01*
X14959468Y-18412031D02*
X14949944Y-18383460D01*
X14949944Y-18383460D02*
X14940420Y-18335841D01*
X14940420Y-18335841D02*
X14940420Y-18297746D01*
X14940420Y-18297746D02*
X14949944Y-18250127D01*
X14949944Y-18250127D02*
X14959468Y-18221555D01*
X14959468Y-18221555D02*
X14968991Y-18202508D01*
X14968991Y-18202508D02*
X14988039Y-18173936D01*
X14988039Y-18173936D02*
X14997563Y-18164412D01*
X15168991Y-18192984D02*
X15073753Y-18192984D01*
X15073753Y-18192984D02*
X15064229Y-18288222D01*
X15064229Y-18288222D02*
X15073753Y-18278698D01*
X15073753Y-18278698D02*
X15092801Y-18269174D01*
X15092801Y-18269174D02*
X15140420Y-18269174D01*
X15140420Y-18269174D02*
X15159468Y-18278698D01*
X15159468Y-18278698D02*
X15168991Y-18288222D01*
X15168991Y-18288222D02*
X15178515Y-18307270D01*
X15178515Y-18307270D02*
X15178515Y-18354889D01*
X15178515Y-18354889D02*
X15168991Y-18373936D01*
X15168991Y-18373936D02*
X15159468Y-18383460D01*
X15159468Y-18383460D02*
X15140420Y-18392984D01*
X15140420Y-18392984D02*
X15092801Y-18392984D01*
X15092801Y-18392984D02*
X15073753Y-18383460D01*
X15073753Y-18383460D02*
X15064229Y-18373936D01*
X15273753Y-18392984D02*
X15311848Y-18392984D01*
X15311848Y-18392984D02*
X15330896Y-18383460D01*
X15330896Y-18383460D02*
X15340420Y-18373936D01*
X15340420Y-18373936D02*
X15359468Y-18345365D01*
X15359468Y-18345365D02*
X15368991Y-18307270D01*
X15368991Y-18307270D02*
X15368991Y-18231079D01*
X15368991Y-18231079D02*
X15359468Y-18212031D01*
X15359468Y-18212031D02*
X15349944Y-18202508D01*
X15349944Y-18202508D02*
X15330896Y-18192984D01*
X15330896Y-18192984D02*
X15292801Y-18192984D01*
X15292801Y-18192984D02*
X15273753Y-18202508D01*
X15273753Y-18202508D02*
X15264229Y-18212031D01*
X15264229Y-18212031D02*
X15254706Y-18231079D01*
X15254706Y-18231079D02*
X15254706Y-18278698D01*
X15254706Y-18278698D02*
X15264229Y-18297746D01*
X15264229Y-18297746D02*
X15273753Y-18307270D01*
X15273753Y-18307270D02*
X15292801Y-18316793D01*
X15292801Y-18316793D02*
X15330896Y-18316793D01*
X15330896Y-18316793D02*
X15349944Y-18307270D01*
X15349944Y-18307270D02*
X15359468Y-18297746D01*
X15359468Y-18297746D02*
X15368991Y-18278698D01*
X15607087Y-18392984D02*
X15607087Y-18192984D01*
X15692801Y-18392984D02*
X15692801Y-18288222D01*
X15692801Y-18288222D02*
X15683277Y-18269174D01*
X15683277Y-18269174D02*
X15664230Y-18259650D01*
X15664230Y-18259650D02*
X15635658Y-18259650D01*
X15635658Y-18259650D02*
X15616610Y-18269174D01*
X15616610Y-18269174D02*
X15607087Y-18278698D01*
X15816610Y-18392984D02*
X15797563Y-18383460D01*
X15797563Y-18383460D02*
X15788039Y-18373936D01*
X15788039Y-18373936D02*
X15778515Y-18354889D01*
X15778515Y-18354889D02*
X15778515Y-18297746D01*
X15778515Y-18297746D02*
X15788039Y-18278698D01*
X15788039Y-18278698D02*
X15797563Y-18269174D01*
X15797563Y-18269174D02*
X15816610Y-18259650D01*
X15816610Y-18259650D02*
X15845182Y-18259650D01*
X15845182Y-18259650D02*
X15864230Y-18269174D01*
X15864230Y-18269174D02*
X15873753Y-18278698D01*
X15873753Y-18278698D02*
X15883277Y-18297746D01*
X15883277Y-18297746D02*
X15883277Y-18354889D01*
X15883277Y-18354889D02*
X15873753Y-18373936D01*
X15873753Y-18373936D02*
X15864230Y-18383460D01*
X15864230Y-18383460D02*
X15845182Y-18392984D01*
X15845182Y-18392984D02*
X15816610Y-18392984D01*
X15997563Y-18392984D02*
X15978515Y-18383460D01*
X15978515Y-18383460D02*
X15968991Y-18364412D01*
X15968991Y-18364412D02*
X15968991Y-18192984D01*
X16149944Y-18383460D02*
X16130896Y-18392984D01*
X16130896Y-18392984D02*
X16092801Y-18392984D01*
X16092801Y-18392984D02*
X16073753Y-18383460D01*
X16073753Y-18383460D02*
X16064230Y-18364412D01*
X16064230Y-18364412D02*
X16064230Y-18288222D01*
X16064230Y-18288222D02*
X16073753Y-18269174D01*
X16073753Y-18269174D02*
X16092801Y-18259650D01*
X16092801Y-18259650D02*
X16130896Y-18259650D01*
X16130896Y-18259650D02*
X16149944Y-18269174D01*
X16149944Y-18269174D02*
X16159468Y-18288222D01*
X16159468Y-18288222D02*
X16159468Y-18307270D01*
X16159468Y-18307270D02*
X16064230Y-18326317D01*
X16235658Y-18383460D02*
X16254706Y-18392984D01*
X16254706Y-18392984D02*
X16292801Y-18392984D01*
X16292801Y-18392984D02*
X16311849Y-18383460D01*
X16311849Y-18383460D02*
X16321372Y-18364412D01*
X16321372Y-18364412D02*
X16321372Y-18354889D01*
X16321372Y-18354889D02*
X16311849Y-18335841D01*
X16311849Y-18335841D02*
X16292801Y-18326317D01*
X16292801Y-18326317D02*
X16264230Y-18326317D01*
X16264230Y-18326317D02*
X16245182Y-18316793D01*
X16245182Y-18316793D02*
X16235658Y-18297746D01*
X16235658Y-18297746D02*
X16235658Y-18288222D01*
X16235658Y-18288222D02*
X16245182Y-18269174D01*
X16245182Y-18269174D02*
X16264230Y-18259650D01*
X16264230Y-18259650D02*
X16292801Y-18259650D01*
X16292801Y-18259650D02*
X16311849Y-18269174D01*
X16388039Y-18469174D02*
X16397563Y-18459650D01*
X16397563Y-18459650D02*
X16416611Y-18431079D01*
X16416611Y-18431079D02*
X16426134Y-18412031D01*
X16426134Y-18412031D02*
X16435658Y-18383460D01*
X16435658Y-18383460D02*
X16445182Y-18335841D01*
X16445182Y-18335841D02*
X16445182Y-18297746D01*
X16445182Y-18297746D02*
X16435658Y-18250127D01*
X16435658Y-18250127D02*
X16426134Y-18221555D01*
X16426134Y-18221555D02*
X16416611Y-18202508D01*
X16416611Y-18202508D02*
X16397563Y-18173936D01*
X16397563Y-18173936D02*
X16388039Y-18164412D01*
D15*
X11295500Y-18502000D02*
X11422500Y-18629000D01*
X11422500Y-18502000D02*
X11295500Y-18629000D01*
X11403902Y-18610402D02*
X11403902Y-18520598D01*
X11314098Y-18520598D01*
X11314098Y-18610402D01*
X11403902Y-18610402D01*
D11*
X11788039Y-18656984D02*
X11673753Y-18656984D01*
X11730896Y-18656984D02*
X11730896Y-18456984D01*
X11730896Y-18456984D02*
X11711848Y-18485555D01*
X11711848Y-18485555D02*
X11692801Y-18504603D01*
X11692801Y-18504603D02*
X11673753Y-18514127D01*
X11873753Y-18637936D02*
X11883277Y-18647460D01*
X11883277Y-18647460D02*
X11873753Y-18656984D01*
X11873753Y-18656984D02*
X11864229Y-18647460D01*
X11864229Y-18647460D02*
X11873753Y-18637936D01*
X11873753Y-18637936D02*
X11873753Y-18656984D01*
X11959467Y-18476031D02*
X11968991Y-18466508D01*
X11968991Y-18466508D02*
X11988039Y-18456984D01*
X11988039Y-18456984D02*
X12035658Y-18456984D01*
X12035658Y-18456984D02*
X12054705Y-18466508D01*
X12054705Y-18466508D02*
X12064229Y-18476031D01*
X12064229Y-18476031D02*
X12073753Y-18495079D01*
X12073753Y-18495079D02*
X12073753Y-18514127D01*
X12073753Y-18514127D02*
X12064229Y-18542698D01*
X12064229Y-18542698D02*
X11949943Y-18656984D01*
X11949943Y-18656984D02*
X12073753Y-18656984D01*
X12140420Y-18456984D02*
X12273753Y-18456984D01*
X12273753Y-18456984D02*
X12188039Y-18656984D01*
X12388039Y-18456984D02*
X12407086Y-18456984D01*
X12407086Y-18456984D02*
X12426134Y-18466508D01*
X12426134Y-18466508D02*
X12435658Y-18476031D01*
X12435658Y-18476031D02*
X12445182Y-18495079D01*
X12445182Y-18495079D02*
X12454705Y-18533174D01*
X12454705Y-18533174D02*
X12454705Y-18580793D01*
X12454705Y-18580793D02*
X12445182Y-18618889D01*
X12445182Y-18618889D02*
X12435658Y-18637936D01*
X12435658Y-18637936D02*
X12426134Y-18647460D01*
X12426134Y-18647460D02*
X12407086Y-18656984D01*
X12407086Y-18656984D02*
X12388039Y-18656984D01*
X12388039Y-18656984D02*
X12368991Y-18647460D01*
X12368991Y-18647460D02*
X12359467Y-18637936D01*
X12359467Y-18637936D02*
X12349943Y-18618889D01*
X12349943Y-18618889D02*
X12340420Y-18580793D01*
X12340420Y-18580793D02*
X12340420Y-18533174D01*
X12340420Y-18533174D02*
X12349943Y-18495079D01*
X12349943Y-18495079D02*
X12359467Y-18476031D01*
X12359467Y-18476031D02*
X12368991Y-18466508D01*
X12368991Y-18466508D02*
X12388039Y-18456984D01*
X12540420Y-18656984D02*
X12540420Y-18523650D01*
X12540420Y-18542698D02*
X12549943Y-18533174D01*
X12549943Y-18533174D02*
X12568991Y-18523650D01*
X12568991Y-18523650D02*
X12597563Y-18523650D01*
X12597563Y-18523650D02*
X12616610Y-18533174D01*
X12616610Y-18533174D02*
X12626134Y-18552222D01*
X12626134Y-18552222D02*
X12626134Y-18656984D01*
X12626134Y-18552222D02*
X12635658Y-18533174D01*
X12635658Y-18533174D02*
X12654705Y-18523650D01*
X12654705Y-18523650D02*
X12683277Y-18523650D01*
X12683277Y-18523650D02*
X12702324Y-18533174D01*
X12702324Y-18533174D02*
X12711848Y-18552222D01*
X12711848Y-18552222D02*
X12711848Y-18656984D01*
X12807086Y-18656984D02*
X12807086Y-18523650D01*
X12807086Y-18542698D02*
X12816610Y-18533174D01*
X12816610Y-18533174D02*
X12835658Y-18523650D01*
X12835658Y-18523650D02*
X12864229Y-18523650D01*
X12864229Y-18523650D02*
X12883277Y-18533174D01*
X12883277Y-18533174D02*
X12892801Y-18552222D01*
X12892801Y-18552222D02*
X12892801Y-18656984D01*
X12892801Y-18552222D02*
X12902324Y-18533174D01*
X12902324Y-18533174D02*
X12921372Y-18523650D01*
X12921372Y-18523650D02*
X12949943Y-18523650D01*
X12949943Y-18523650D02*
X12968991Y-18533174D01*
X12968991Y-18533174D02*
X12978515Y-18552222D01*
X12978515Y-18552222D02*
X12978515Y-18656984D01*
X13368991Y-18447460D02*
X13197563Y-18704603D01*
X13626134Y-18456984D02*
X13645182Y-18456984D01*
X13645182Y-18456984D02*
X13664229Y-18466508D01*
X13664229Y-18466508D02*
X13673753Y-18476031D01*
X13673753Y-18476031D02*
X13683277Y-18495079D01*
X13683277Y-18495079D02*
X13692801Y-18533174D01*
X13692801Y-18533174D02*
X13692801Y-18580793D01*
X13692801Y-18580793D02*
X13683277Y-18618889D01*
X13683277Y-18618889D02*
X13673753Y-18637936D01*
X13673753Y-18637936D02*
X13664229Y-18647460D01*
X13664229Y-18647460D02*
X13645182Y-18656984D01*
X13645182Y-18656984D02*
X13626134Y-18656984D01*
X13626134Y-18656984D02*
X13607086Y-18647460D01*
X13607086Y-18647460D02*
X13597563Y-18637936D01*
X13597563Y-18637936D02*
X13588039Y-18618889D01*
X13588039Y-18618889D02*
X13578515Y-18580793D01*
X13578515Y-18580793D02*
X13578515Y-18533174D01*
X13578515Y-18533174D02*
X13588039Y-18495079D01*
X13588039Y-18495079D02*
X13597563Y-18476031D01*
X13597563Y-18476031D02*
X13607086Y-18466508D01*
X13607086Y-18466508D02*
X13626134Y-18456984D01*
X13778515Y-18637936D02*
X13788039Y-18647460D01*
X13788039Y-18647460D02*
X13778515Y-18656984D01*
X13778515Y-18656984D02*
X13768991Y-18647460D01*
X13768991Y-18647460D02*
X13778515Y-18637936D01*
X13778515Y-18637936D02*
X13778515Y-18656984D01*
X13911848Y-18456984D02*
X13930896Y-18456984D01*
X13930896Y-18456984D02*
X13949944Y-18466508D01*
X13949944Y-18466508D02*
X13959467Y-18476031D01*
X13959467Y-18476031D02*
X13968991Y-18495079D01*
X13968991Y-18495079D02*
X13978515Y-18533174D01*
X13978515Y-18533174D02*
X13978515Y-18580793D01*
X13978515Y-18580793D02*
X13968991Y-18618889D01*
X13968991Y-18618889D02*
X13959467Y-18637936D01*
X13959467Y-18637936D02*
X13949944Y-18647460D01*
X13949944Y-18647460D02*
X13930896Y-18656984D01*
X13930896Y-18656984D02*
X13911848Y-18656984D01*
X13911848Y-18656984D02*
X13892801Y-18647460D01*
X13892801Y-18647460D02*
X13883277Y-18637936D01*
X13883277Y-18637936D02*
X13873753Y-18618889D01*
X13873753Y-18618889D02*
X13864229Y-18580793D01*
X13864229Y-18580793D02*
X13864229Y-18533174D01*
X13864229Y-18533174D02*
X13873753Y-18495079D01*
X13873753Y-18495079D02*
X13883277Y-18476031D01*
X13883277Y-18476031D02*
X13892801Y-18466508D01*
X13892801Y-18466508D02*
X13911848Y-18456984D01*
X14159467Y-18456984D02*
X14064229Y-18456984D01*
X14064229Y-18456984D02*
X14054706Y-18552222D01*
X14054706Y-18552222D02*
X14064229Y-18542698D01*
X14064229Y-18542698D02*
X14083277Y-18533174D01*
X14083277Y-18533174D02*
X14130896Y-18533174D01*
X14130896Y-18533174D02*
X14149944Y-18542698D01*
X14149944Y-18542698D02*
X14159467Y-18552222D01*
X14159467Y-18552222D02*
X14168991Y-18571270D01*
X14168991Y-18571270D02*
X14168991Y-18618889D01*
X14168991Y-18618889D02*
X14159467Y-18637936D01*
X14159467Y-18637936D02*
X14149944Y-18647460D01*
X14149944Y-18647460D02*
X14130896Y-18656984D01*
X14130896Y-18656984D02*
X14083277Y-18656984D01*
X14083277Y-18656984D02*
X14064229Y-18647460D01*
X14064229Y-18647460D02*
X14054706Y-18637936D01*
X14292801Y-18456984D02*
X14311848Y-18456984D01*
X14311848Y-18456984D02*
X14330896Y-18466508D01*
X14330896Y-18466508D02*
X14340420Y-18476031D01*
X14340420Y-18476031D02*
X14349944Y-18495079D01*
X14349944Y-18495079D02*
X14359467Y-18533174D01*
X14359467Y-18533174D02*
X14359467Y-18580793D01*
X14359467Y-18580793D02*
X14349944Y-18618889D01*
X14349944Y-18618889D02*
X14340420Y-18637936D01*
X14340420Y-18637936D02*
X14330896Y-18647460D01*
X14330896Y-18647460D02*
X14311848Y-18656984D01*
X14311848Y-18656984D02*
X14292801Y-18656984D01*
X14292801Y-18656984D02*
X14273753Y-18647460D01*
X14273753Y-18647460D02*
X14264229Y-18637936D01*
X14264229Y-18637936D02*
X14254706Y-18618889D01*
X14254706Y-18618889D02*
X14245182Y-18580793D01*
X14245182Y-18580793D02*
X14245182Y-18533174D01*
X14245182Y-18533174D02*
X14254706Y-18495079D01*
X14254706Y-18495079D02*
X14264229Y-18476031D01*
X14264229Y-18476031D02*
X14273753Y-18466508D01*
X14273753Y-18466508D02*
X14292801Y-18456984D01*
X14483277Y-18456984D02*
X14502325Y-18456984D01*
X14502325Y-18456984D02*
X14521372Y-18466508D01*
X14521372Y-18466508D02*
X14530896Y-18476031D01*
X14530896Y-18476031D02*
X14540420Y-18495079D01*
X14540420Y-18495079D02*
X14549944Y-18533174D01*
X14549944Y-18533174D02*
X14549944Y-18580793D01*
X14549944Y-18580793D02*
X14540420Y-18618889D01*
X14540420Y-18618889D02*
X14530896Y-18637936D01*
X14530896Y-18637936D02*
X14521372Y-18647460D01*
X14521372Y-18647460D02*
X14502325Y-18656984D01*
X14502325Y-18656984D02*
X14483277Y-18656984D01*
X14483277Y-18656984D02*
X14464229Y-18647460D01*
X14464229Y-18647460D02*
X14454706Y-18637936D01*
X14454706Y-18637936D02*
X14445182Y-18618889D01*
X14445182Y-18618889D02*
X14435658Y-18580793D01*
X14435658Y-18580793D02*
X14435658Y-18533174D01*
X14435658Y-18533174D02*
X14445182Y-18495079D01*
X14445182Y-18495079D02*
X14454706Y-18476031D01*
X14454706Y-18476031D02*
X14464229Y-18466508D01*
X14464229Y-18466508D02*
X14483277Y-18456984D01*
X14626134Y-18456984D02*
X14626134Y-18495079D01*
X14702325Y-18456984D02*
X14702325Y-18495079D01*
X14997563Y-18733174D02*
X14988039Y-18723650D01*
X14988039Y-18723650D02*
X14968991Y-18695079D01*
X14968991Y-18695079D02*
X14959468Y-18676031D01*
X14959468Y-18676031D02*
X14949944Y-18647460D01*
X14949944Y-18647460D02*
X14940420Y-18599841D01*
X14940420Y-18599841D02*
X14940420Y-18561746D01*
X14940420Y-18561746D02*
X14949944Y-18514127D01*
X14949944Y-18514127D02*
X14959468Y-18485555D01*
X14959468Y-18485555D02*
X14968991Y-18466508D01*
X14968991Y-18466508D02*
X14988039Y-18437936D01*
X14988039Y-18437936D02*
X14997563Y-18428412D01*
X15178515Y-18656984D02*
X15064229Y-18656984D01*
X15121372Y-18656984D02*
X15121372Y-18456984D01*
X15121372Y-18456984D02*
X15102325Y-18485555D01*
X15102325Y-18485555D02*
X15083277Y-18504603D01*
X15083277Y-18504603D02*
X15064229Y-18514127D01*
X15368991Y-18656984D02*
X15254706Y-18656984D01*
X15311848Y-18656984D02*
X15311848Y-18456984D01*
X15311848Y-18456984D02*
X15292801Y-18485555D01*
X15292801Y-18485555D02*
X15273753Y-18504603D01*
X15273753Y-18504603D02*
X15254706Y-18514127D01*
X15607087Y-18656984D02*
X15607087Y-18456984D01*
X15692801Y-18656984D02*
X15692801Y-18552222D01*
X15692801Y-18552222D02*
X15683277Y-18533174D01*
X15683277Y-18533174D02*
X15664230Y-18523650D01*
X15664230Y-18523650D02*
X15635658Y-18523650D01*
X15635658Y-18523650D02*
X15616610Y-18533174D01*
X15616610Y-18533174D02*
X15607087Y-18542698D01*
X15816610Y-18656984D02*
X15797563Y-18647460D01*
X15797563Y-18647460D02*
X15788039Y-18637936D01*
X15788039Y-18637936D02*
X15778515Y-18618889D01*
X15778515Y-18618889D02*
X15778515Y-18561746D01*
X15778515Y-18561746D02*
X15788039Y-18542698D01*
X15788039Y-18542698D02*
X15797563Y-18533174D01*
X15797563Y-18533174D02*
X15816610Y-18523650D01*
X15816610Y-18523650D02*
X15845182Y-18523650D01*
X15845182Y-18523650D02*
X15864230Y-18533174D01*
X15864230Y-18533174D02*
X15873753Y-18542698D01*
X15873753Y-18542698D02*
X15883277Y-18561746D01*
X15883277Y-18561746D02*
X15883277Y-18618889D01*
X15883277Y-18618889D02*
X15873753Y-18637936D01*
X15873753Y-18637936D02*
X15864230Y-18647460D01*
X15864230Y-18647460D02*
X15845182Y-18656984D01*
X15845182Y-18656984D02*
X15816610Y-18656984D01*
X15997563Y-18656984D02*
X15978515Y-18647460D01*
X15978515Y-18647460D02*
X15968991Y-18628412D01*
X15968991Y-18628412D02*
X15968991Y-18456984D01*
X16149944Y-18647460D02*
X16130896Y-18656984D01*
X16130896Y-18656984D02*
X16092801Y-18656984D01*
X16092801Y-18656984D02*
X16073753Y-18647460D01*
X16073753Y-18647460D02*
X16064230Y-18628412D01*
X16064230Y-18628412D02*
X16064230Y-18552222D01*
X16064230Y-18552222D02*
X16073753Y-18533174D01*
X16073753Y-18533174D02*
X16092801Y-18523650D01*
X16092801Y-18523650D02*
X16130896Y-18523650D01*
X16130896Y-18523650D02*
X16149944Y-18533174D01*
X16149944Y-18533174D02*
X16159468Y-18552222D01*
X16159468Y-18552222D02*
X16159468Y-18571270D01*
X16159468Y-18571270D02*
X16064230Y-18590317D01*
X16235658Y-18647460D02*
X16254706Y-18656984D01*
X16254706Y-18656984D02*
X16292801Y-18656984D01*
X16292801Y-18656984D02*
X16311849Y-18647460D01*
X16311849Y-18647460D02*
X16321372Y-18628412D01*
X16321372Y-18628412D02*
X16321372Y-18618889D01*
X16321372Y-18618889D02*
X16311849Y-18599841D01*
X16311849Y-18599841D02*
X16292801Y-18590317D01*
X16292801Y-18590317D02*
X16264230Y-18590317D01*
X16264230Y-18590317D02*
X16245182Y-18580793D01*
X16245182Y-18580793D02*
X16235658Y-18561746D01*
X16235658Y-18561746D02*
X16235658Y-18552222D01*
X16235658Y-18552222D02*
X16245182Y-18533174D01*
X16245182Y-18533174D02*
X16264230Y-18523650D01*
X16264230Y-18523650D02*
X16292801Y-18523650D01*
X16292801Y-18523650D02*
X16311849Y-18533174D01*
X16388039Y-18733174D02*
X16397563Y-18723650D01*
X16397563Y-18723650D02*
X16416611Y-18695079D01*
X16416611Y-18695079D02*
X16426134Y-18676031D01*
X16426134Y-18676031D02*
X16435658Y-18647460D01*
X16435658Y-18647460D02*
X16445182Y-18599841D01*
X16445182Y-18599841D02*
X16445182Y-18561746D01*
X16445182Y-18561746D02*
X16435658Y-18514127D01*
X16435658Y-18514127D02*
X16426134Y-18485555D01*
X16426134Y-18485555D02*
X16416611Y-18466508D01*
X16416611Y-18466508D02*
X16397563Y-18437936D01*
X16397563Y-18437936D02*
X16388039Y-18428412D01*
D16*
X11272500Y-18754500D02*
X11422500Y-18904500D01*
X11422500Y-18754500D02*
X11272500Y-18904500D01*
X11347500Y-18904500D02*
X11422500Y-18829500D01*
X11347500Y-18754500D01*
X11272500Y-18829500D01*
X11347500Y-18904500D01*
D11*
X11788039Y-18920984D02*
X11673753Y-18920984D01*
X11730896Y-18920984D02*
X11730896Y-18720984D01*
X11730896Y-18720984D02*
X11711848Y-18749555D01*
X11711848Y-18749555D02*
X11692801Y-18768603D01*
X11692801Y-18768603D02*
X11673753Y-18778127D01*
X11873753Y-18901936D02*
X11883277Y-18911460D01*
X11883277Y-18911460D02*
X11873753Y-18920984D01*
X11873753Y-18920984D02*
X11864229Y-18911460D01*
X11864229Y-18911460D02*
X11873753Y-18901936D01*
X11873753Y-18901936D02*
X11873753Y-18920984D01*
X12064229Y-18720984D02*
X11968991Y-18720984D01*
X11968991Y-18720984D02*
X11959467Y-18816222D01*
X11959467Y-18816222D02*
X11968991Y-18806698D01*
X11968991Y-18806698D02*
X11988039Y-18797174D01*
X11988039Y-18797174D02*
X12035658Y-18797174D01*
X12035658Y-18797174D02*
X12054705Y-18806698D01*
X12054705Y-18806698D02*
X12064229Y-18816222D01*
X12064229Y-18816222D02*
X12073753Y-18835270D01*
X12073753Y-18835270D02*
X12073753Y-18882889D01*
X12073753Y-18882889D02*
X12064229Y-18901936D01*
X12064229Y-18901936D02*
X12054705Y-18911460D01*
X12054705Y-18911460D02*
X12035658Y-18920984D01*
X12035658Y-18920984D02*
X11988039Y-18920984D01*
X11988039Y-18920984D02*
X11968991Y-18911460D01*
X11968991Y-18911460D02*
X11959467Y-18901936D01*
X12197562Y-18720984D02*
X12216610Y-18720984D01*
X12216610Y-18720984D02*
X12235658Y-18730508D01*
X12235658Y-18730508D02*
X12245182Y-18740031D01*
X12245182Y-18740031D02*
X12254705Y-18759079D01*
X12254705Y-18759079D02*
X12264229Y-18797174D01*
X12264229Y-18797174D02*
X12264229Y-18844793D01*
X12264229Y-18844793D02*
X12254705Y-18882889D01*
X12254705Y-18882889D02*
X12245182Y-18901936D01*
X12245182Y-18901936D02*
X12235658Y-18911460D01*
X12235658Y-18911460D02*
X12216610Y-18920984D01*
X12216610Y-18920984D02*
X12197562Y-18920984D01*
X12197562Y-18920984D02*
X12178515Y-18911460D01*
X12178515Y-18911460D02*
X12168991Y-18901936D01*
X12168991Y-18901936D02*
X12159467Y-18882889D01*
X12159467Y-18882889D02*
X12149943Y-18844793D01*
X12149943Y-18844793D02*
X12149943Y-18797174D01*
X12149943Y-18797174D02*
X12159467Y-18759079D01*
X12159467Y-18759079D02*
X12168991Y-18740031D01*
X12168991Y-18740031D02*
X12178515Y-18730508D01*
X12178515Y-18730508D02*
X12197562Y-18720984D01*
X12388039Y-18720984D02*
X12407086Y-18720984D01*
X12407086Y-18720984D02*
X12426134Y-18730508D01*
X12426134Y-18730508D02*
X12435658Y-18740031D01*
X12435658Y-18740031D02*
X12445182Y-18759079D01*
X12445182Y-18759079D02*
X12454705Y-18797174D01*
X12454705Y-18797174D02*
X12454705Y-18844793D01*
X12454705Y-18844793D02*
X12445182Y-18882889D01*
X12445182Y-18882889D02*
X12435658Y-18901936D01*
X12435658Y-18901936D02*
X12426134Y-18911460D01*
X12426134Y-18911460D02*
X12407086Y-18920984D01*
X12407086Y-18920984D02*
X12388039Y-18920984D01*
X12388039Y-18920984D02*
X12368991Y-18911460D01*
X12368991Y-18911460D02*
X12359467Y-18901936D01*
X12359467Y-18901936D02*
X12349943Y-18882889D01*
X12349943Y-18882889D02*
X12340420Y-18844793D01*
X12340420Y-18844793D02*
X12340420Y-18797174D01*
X12340420Y-18797174D02*
X12349943Y-18759079D01*
X12349943Y-18759079D02*
X12359467Y-18740031D01*
X12359467Y-18740031D02*
X12368991Y-18730508D01*
X12368991Y-18730508D02*
X12388039Y-18720984D01*
X12540420Y-18920984D02*
X12540420Y-18787650D01*
X12540420Y-18806698D02*
X12549943Y-18797174D01*
X12549943Y-18797174D02*
X12568991Y-18787650D01*
X12568991Y-18787650D02*
X12597563Y-18787650D01*
X12597563Y-18787650D02*
X12616610Y-18797174D01*
X12616610Y-18797174D02*
X12626134Y-18816222D01*
X12626134Y-18816222D02*
X12626134Y-18920984D01*
X12626134Y-18816222D02*
X12635658Y-18797174D01*
X12635658Y-18797174D02*
X12654705Y-18787650D01*
X12654705Y-18787650D02*
X12683277Y-18787650D01*
X12683277Y-18787650D02*
X12702324Y-18797174D01*
X12702324Y-18797174D02*
X12711848Y-18816222D01*
X12711848Y-18816222D02*
X12711848Y-18920984D01*
X12807086Y-18920984D02*
X12807086Y-18787650D01*
X12807086Y-18806698D02*
X12816610Y-18797174D01*
X12816610Y-18797174D02*
X12835658Y-18787650D01*
X12835658Y-18787650D02*
X12864229Y-18787650D01*
X12864229Y-18787650D02*
X12883277Y-18797174D01*
X12883277Y-18797174D02*
X12892801Y-18816222D01*
X12892801Y-18816222D02*
X12892801Y-18920984D01*
X12892801Y-18816222D02*
X12902324Y-18797174D01*
X12902324Y-18797174D02*
X12921372Y-18787650D01*
X12921372Y-18787650D02*
X12949943Y-18787650D01*
X12949943Y-18787650D02*
X12968991Y-18797174D01*
X12968991Y-18797174D02*
X12978515Y-18816222D01*
X12978515Y-18816222D02*
X12978515Y-18920984D01*
X13368991Y-18711460D02*
X13197563Y-18968603D01*
X13626134Y-18720984D02*
X13645182Y-18720984D01*
X13645182Y-18720984D02*
X13664229Y-18730508D01*
X13664229Y-18730508D02*
X13673753Y-18740031D01*
X13673753Y-18740031D02*
X13683277Y-18759079D01*
X13683277Y-18759079D02*
X13692801Y-18797174D01*
X13692801Y-18797174D02*
X13692801Y-18844793D01*
X13692801Y-18844793D02*
X13683277Y-18882889D01*
X13683277Y-18882889D02*
X13673753Y-18901936D01*
X13673753Y-18901936D02*
X13664229Y-18911460D01*
X13664229Y-18911460D02*
X13645182Y-18920984D01*
X13645182Y-18920984D02*
X13626134Y-18920984D01*
X13626134Y-18920984D02*
X13607086Y-18911460D01*
X13607086Y-18911460D02*
X13597563Y-18901936D01*
X13597563Y-18901936D02*
X13588039Y-18882889D01*
X13588039Y-18882889D02*
X13578515Y-18844793D01*
X13578515Y-18844793D02*
X13578515Y-18797174D01*
X13578515Y-18797174D02*
X13588039Y-18759079D01*
X13588039Y-18759079D02*
X13597563Y-18740031D01*
X13597563Y-18740031D02*
X13607086Y-18730508D01*
X13607086Y-18730508D02*
X13626134Y-18720984D01*
X13778515Y-18901936D02*
X13788039Y-18911460D01*
X13788039Y-18911460D02*
X13778515Y-18920984D01*
X13778515Y-18920984D02*
X13768991Y-18911460D01*
X13768991Y-18911460D02*
X13778515Y-18901936D01*
X13778515Y-18901936D02*
X13778515Y-18920984D01*
X13911848Y-18720984D02*
X13930896Y-18720984D01*
X13930896Y-18720984D02*
X13949944Y-18730508D01*
X13949944Y-18730508D02*
X13959467Y-18740031D01*
X13959467Y-18740031D02*
X13968991Y-18759079D01*
X13968991Y-18759079D02*
X13978515Y-18797174D01*
X13978515Y-18797174D02*
X13978515Y-18844793D01*
X13978515Y-18844793D02*
X13968991Y-18882889D01*
X13968991Y-18882889D02*
X13959467Y-18901936D01*
X13959467Y-18901936D02*
X13949944Y-18911460D01*
X13949944Y-18911460D02*
X13930896Y-18920984D01*
X13930896Y-18920984D02*
X13911848Y-18920984D01*
X13911848Y-18920984D02*
X13892801Y-18911460D01*
X13892801Y-18911460D02*
X13883277Y-18901936D01*
X13883277Y-18901936D02*
X13873753Y-18882889D01*
X13873753Y-18882889D02*
X13864229Y-18844793D01*
X13864229Y-18844793D02*
X13864229Y-18797174D01*
X13864229Y-18797174D02*
X13873753Y-18759079D01*
X13873753Y-18759079D02*
X13883277Y-18740031D01*
X13883277Y-18740031D02*
X13892801Y-18730508D01*
X13892801Y-18730508D02*
X13911848Y-18720984D01*
X14159467Y-18720984D02*
X14064229Y-18720984D01*
X14064229Y-18720984D02*
X14054706Y-18816222D01*
X14054706Y-18816222D02*
X14064229Y-18806698D01*
X14064229Y-18806698D02*
X14083277Y-18797174D01*
X14083277Y-18797174D02*
X14130896Y-18797174D01*
X14130896Y-18797174D02*
X14149944Y-18806698D01*
X14149944Y-18806698D02*
X14159467Y-18816222D01*
X14159467Y-18816222D02*
X14168991Y-18835270D01*
X14168991Y-18835270D02*
X14168991Y-18882889D01*
X14168991Y-18882889D02*
X14159467Y-18901936D01*
X14159467Y-18901936D02*
X14149944Y-18911460D01*
X14149944Y-18911460D02*
X14130896Y-18920984D01*
X14130896Y-18920984D02*
X14083277Y-18920984D01*
X14083277Y-18920984D02*
X14064229Y-18911460D01*
X14064229Y-18911460D02*
X14054706Y-18901936D01*
X14264229Y-18920984D02*
X14302325Y-18920984D01*
X14302325Y-18920984D02*
X14321372Y-18911460D01*
X14321372Y-18911460D02*
X14330896Y-18901936D01*
X14330896Y-18901936D02*
X14349944Y-18873365D01*
X14349944Y-18873365D02*
X14359467Y-18835270D01*
X14359467Y-18835270D02*
X14359467Y-18759079D01*
X14359467Y-18759079D02*
X14349944Y-18740031D01*
X14349944Y-18740031D02*
X14340420Y-18730508D01*
X14340420Y-18730508D02*
X14321372Y-18720984D01*
X14321372Y-18720984D02*
X14283277Y-18720984D01*
X14283277Y-18720984D02*
X14264229Y-18730508D01*
X14264229Y-18730508D02*
X14254706Y-18740031D01*
X14254706Y-18740031D02*
X14245182Y-18759079D01*
X14245182Y-18759079D02*
X14245182Y-18806698D01*
X14245182Y-18806698D02*
X14254706Y-18825746D01*
X14254706Y-18825746D02*
X14264229Y-18835270D01*
X14264229Y-18835270D02*
X14283277Y-18844793D01*
X14283277Y-18844793D02*
X14321372Y-18844793D01*
X14321372Y-18844793D02*
X14340420Y-18835270D01*
X14340420Y-18835270D02*
X14349944Y-18825746D01*
X14349944Y-18825746D02*
X14359467Y-18806698D01*
X14549944Y-18920984D02*
X14435658Y-18920984D01*
X14492801Y-18920984D02*
X14492801Y-18720984D01*
X14492801Y-18720984D02*
X14473753Y-18749555D01*
X14473753Y-18749555D02*
X14454706Y-18768603D01*
X14454706Y-18768603D02*
X14435658Y-18778127D01*
X14626134Y-18720984D02*
X14626134Y-18759079D01*
X14702325Y-18720984D02*
X14702325Y-18759079D01*
X14997563Y-18997174D02*
X14988039Y-18987650D01*
X14988039Y-18987650D02*
X14968991Y-18959079D01*
X14968991Y-18959079D02*
X14959468Y-18940031D01*
X14959468Y-18940031D02*
X14949944Y-18911460D01*
X14949944Y-18911460D02*
X14940420Y-18863841D01*
X14940420Y-18863841D02*
X14940420Y-18825746D01*
X14940420Y-18825746D02*
X14949944Y-18778127D01*
X14949944Y-18778127D02*
X14959468Y-18749555D01*
X14959468Y-18749555D02*
X14968991Y-18730508D01*
X14968991Y-18730508D02*
X14988039Y-18701936D01*
X14988039Y-18701936D02*
X14997563Y-18692412D01*
X15064229Y-18740031D02*
X15073753Y-18730508D01*
X15073753Y-18730508D02*
X15092801Y-18720984D01*
X15092801Y-18720984D02*
X15140420Y-18720984D01*
X15140420Y-18720984D02*
X15159468Y-18730508D01*
X15159468Y-18730508D02*
X15168991Y-18740031D01*
X15168991Y-18740031D02*
X15178515Y-18759079D01*
X15178515Y-18759079D02*
X15178515Y-18778127D01*
X15178515Y-18778127D02*
X15168991Y-18806698D01*
X15168991Y-18806698D02*
X15054706Y-18920984D01*
X15054706Y-18920984D02*
X15178515Y-18920984D01*
X15416610Y-18920984D02*
X15416610Y-18720984D01*
X15502325Y-18920984D02*
X15502325Y-18816222D01*
X15502325Y-18816222D02*
X15492801Y-18797174D01*
X15492801Y-18797174D02*
X15473753Y-18787650D01*
X15473753Y-18787650D02*
X15445182Y-18787650D01*
X15445182Y-18787650D02*
X15426134Y-18797174D01*
X15426134Y-18797174D02*
X15416610Y-18806698D01*
X15626134Y-18920984D02*
X15607087Y-18911460D01*
X15607087Y-18911460D02*
X15597563Y-18901936D01*
X15597563Y-18901936D02*
X15588039Y-18882889D01*
X15588039Y-18882889D02*
X15588039Y-18825746D01*
X15588039Y-18825746D02*
X15597563Y-18806698D01*
X15597563Y-18806698D02*
X15607087Y-18797174D01*
X15607087Y-18797174D02*
X15626134Y-18787650D01*
X15626134Y-18787650D02*
X15654706Y-18787650D01*
X15654706Y-18787650D02*
X15673753Y-18797174D01*
X15673753Y-18797174D02*
X15683277Y-18806698D01*
X15683277Y-18806698D02*
X15692801Y-18825746D01*
X15692801Y-18825746D02*
X15692801Y-18882889D01*
X15692801Y-18882889D02*
X15683277Y-18901936D01*
X15683277Y-18901936D02*
X15673753Y-18911460D01*
X15673753Y-18911460D02*
X15654706Y-18920984D01*
X15654706Y-18920984D02*
X15626134Y-18920984D01*
X15807087Y-18920984D02*
X15788039Y-18911460D01*
X15788039Y-18911460D02*
X15778515Y-18892412D01*
X15778515Y-18892412D02*
X15778515Y-18720984D01*
X15959468Y-18911460D02*
X15940420Y-18920984D01*
X15940420Y-18920984D02*
X15902325Y-18920984D01*
X15902325Y-18920984D02*
X15883277Y-18911460D01*
X15883277Y-18911460D02*
X15873753Y-18892412D01*
X15873753Y-18892412D02*
X15873753Y-18816222D01*
X15873753Y-18816222D02*
X15883277Y-18797174D01*
X15883277Y-18797174D02*
X15902325Y-18787650D01*
X15902325Y-18787650D02*
X15940420Y-18787650D01*
X15940420Y-18787650D02*
X15959468Y-18797174D01*
X15959468Y-18797174D02*
X15968991Y-18816222D01*
X15968991Y-18816222D02*
X15968991Y-18835270D01*
X15968991Y-18835270D02*
X15873753Y-18854317D01*
X16045182Y-18911460D02*
X16064230Y-18920984D01*
X16064230Y-18920984D02*
X16102325Y-18920984D01*
X16102325Y-18920984D02*
X16121372Y-18911460D01*
X16121372Y-18911460D02*
X16130896Y-18892412D01*
X16130896Y-18892412D02*
X16130896Y-18882889D01*
X16130896Y-18882889D02*
X16121372Y-18863841D01*
X16121372Y-18863841D02*
X16102325Y-18854317D01*
X16102325Y-18854317D02*
X16073753Y-18854317D01*
X16073753Y-18854317D02*
X16054706Y-18844793D01*
X16054706Y-18844793D02*
X16045182Y-18825746D01*
X16045182Y-18825746D02*
X16045182Y-18816222D01*
X16045182Y-18816222D02*
X16054706Y-18797174D01*
X16054706Y-18797174D02*
X16073753Y-18787650D01*
X16073753Y-18787650D02*
X16102325Y-18787650D01*
X16102325Y-18787650D02*
X16121372Y-18797174D01*
X16197563Y-18997174D02*
X16207087Y-18987650D01*
X16207087Y-18987650D02*
X16226134Y-18959079D01*
X16226134Y-18959079D02*
X16235658Y-18940031D01*
X16235658Y-18940031D02*
X16245182Y-18911460D01*
X16245182Y-18911460D02*
X16254706Y-18863841D01*
X16254706Y-18863841D02*
X16254706Y-18825746D01*
X16254706Y-18825746D02*
X16245182Y-18778127D01*
X16245182Y-18778127D02*
X16235658Y-18749555D01*
X16235658Y-18749555D02*
X16226134Y-18730508D01*
X16226134Y-18730508D02*
X16207087Y-18701936D01*
X16207087Y-18701936D02*
X16197563Y-18692412D01*
X11322500Y-18999500D02*
X11322500Y-19199500D01*
X11222500Y-19099500D02*
X11422500Y-19099500D01*
X11422500Y-19099500D02*
G75*
G02*
X11222500Y-19099500I-100000J0D01*
G01*
X11222500Y-19099500D02*
G75*
G02*
X11422500Y-19099500I100000J0D01*
G01*
X11768991Y-19057650D02*
X11768991Y-19190984D01*
X11721372Y-18981460D02*
X11673753Y-19124317D01*
X11673753Y-19124317D02*
X11797562Y-19124317D01*
X11873753Y-19171936D02*
X11883277Y-19181460D01*
X11883277Y-19181460D02*
X11873753Y-19190984D01*
X11873753Y-19190984D02*
X11864229Y-19181460D01*
X11864229Y-19181460D02*
X11873753Y-19171936D01*
X11873753Y-19171936D02*
X11873753Y-19190984D01*
X12064229Y-18990984D02*
X11968991Y-18990984D01*
X11968991Y-18990984D02*
X11959467Y-19086222D01*
X11959467Y-19086222D02*
X11968991Y-19076698D01*
X11968991Y-19076698D02*
X11988039Y-19067174D01*
X11988039Y-19067174D02*
X12035658Y-19067174D01*
X12035658Y-19067174D02*
X12054705Y-19076698D01*
X12054705Y-19076698D02*
X12064229Y-19086222D01*
X12064229Y-19086222D02*
X12073753Y-19105270D01*
X12073753Y-19105270D02*
X12073753Y-19152889D01*
X12073753Y-19152889D02*
X12064229Y-19171936D01*
X12064229Y-19171936D02*
X12054705Y-19181460D01*
X12054705Y-19181460D02*
X12035658Y-19190984D01*
X12035658Y-19190984D02*
X11988039Y-19190984D01*
X11988039Y-19190984D02*
X11968991Y-19181460D01*
X11968991Y-19181460D02*
X11959467Y-19171936D01*
X12254705Y-18990984D02*
X12159467Y-18990984D01*
X12159467Y-18990984D02*
X12149943Y-19086222D01*
X12149943Y-19086222D02*
X12159467Y-19076698D01*
X12159467Y-19076698D02*
X12178515Y-19067174D01*
X12178515Y-19067174D02*
X12226134Y-19067174D01*
X12226134Y-19067174D02*
X12245182Y-19076698D01*
X12245182Y-19076698D02*
X12254705Y-19086222D01*
X12254705Y-19086222D02*
X12264229Y-19105270D01*
X12264229Y-19105270D02*
X12264229Y-19152889D01*
X12264229Y-19152889D02*
X12254705Y-19171936D01*
X12254705Y-19171936D02*
X12245182Y-19181460D01*
X12245182Y-19181460D02*
X12226134Y-19190984D01*
X12226134Y-19190984D02*
X12178515Y-19190984D01*
X12178515Y-19190984D02*
X12159467Y-19181460D01*
X12159467Y-19181460D02*
X12149943Y-19171936D01*
X12388039Y-18990984D02*
X12407086Y-18990984D01*
X12407086Y-18990984D02*
X12426134Y-19000508D01*
X12426134Y-19000508D02*
X12435658Y-19010031D01*
X12435658Y-19010031D02*
X12445182Y-19029079D01*
X12445182Y-19029079D02*
X12454705Y-19067174D01*
X12454705Y-19067174D02*
X12454705Y-19114793D01*
X12454705Y-19114793D02*
X12445182Y-19152889D01*
X12445182Y-19152889D02*
X12435658Y-19171936D01*
X12435658Y-19171936D02*
X12426134Y-19181460D01*
X12426134Y-19181460D02*
X12407086Y-19190984D01*
X12407086Y-19190984D02*
X12388039Y-19190984D01*
X12388039Y-19190984D02*
X12368991Y-19181460D01*
X12368991Y-19181460D02*
X12359467Y-19171936D01*
X12359467Y-19171936D02*
X12349943Y-19152889D01*
X12349943Y-19152889D02*
X12340420Y-19114793D01*
X12340420Y-19114793D02*
X12340420Y-19067174D01*
X12340420Y-19067174D02*
X12349943Y-19029079D01*
X12349943Y-19029079D02*
X12359467Y-19010031D01*
X12359467Y-19010031D02*
X12368991Y-19000508D01*
X12368991Y-19000508D02*
X12388039Y-18990984D01*
X12540420Y-19190984D02*
X12540420Y-19057650D01*
X12540420Y-19076698D02*
X12549943Y-19067174D01*
X12549943Y-19067174D02*
X12568991Y-19057650D01*
X12568991Y-19057650D02*
X12597563Y-19057650D01*
X12597563Y-19057650D02*
X12616610Y-19067174D01*
X12616610Y-19067174D02*
X12626134Y-19086222D01*
X12626134Y-19086222D02*
X12626134Y-19190984D01*
X12626134Y-19086222D02*
X12635658Y-19067174D01*
X12635658Y-19067174D02*
X12654705Y-19057650D01*
X12654705Y-19057650D02*
X12683277Y-19057650D01*
X12683277Y-19057650D02*
X12702324Y-19067174D01*
X12702324Y-19067174D02*
X12711848Y-19086222D01*
X12711848Y-19086222D02*
X12711848Y-19190984D01*
X12807086Y-19190984D02*
X12807086Y-19057650D01*
X12807086Y-19076698D02*
X12816610Y-19067174D01*
X12816610Y-19067174D02*
X12835658Y-19057650D01*
X12835658Y-19057650D02*
X12864229Y-19057650D01*
X12864229Y-19057650D02*
X12883277Y-19067174D01*
X12883277Y-19067174D02*
X12892801Y-19086222D01*
X12892801Y-19086222D02*
X12892801Y-19190984D01*
X12892801Y-19086222D02*
X12902324Y-19067174D01*
X12902324Y-19067174D02*
X12921372Y-19057650D01*
X12921372Y-19057650D02*
X12949943Y-19057650D01*
X12949943Y-19057650D02*
X12968991Y-19067174D01*
X12968991Y-19067174D02*
X12978515Y-19086222D01*
X12978515Y-19086222D02*
X12978515Y-19190984D01*
X13368991Y-18981460D02*
X13197563Y-19238603D01*
X13626134Y-18990984D02*
X13645182Y-18990984D01*
X13645182Y-18990984D02*
X13664229Y-19000508D01*
X13664229Y-19000508D02*
X13673753Y-19010031D01*
X13673753Y-19010031D02*
X13683277Y-19029079D01*
X13683277Y-19029079D02*
X13692801Y-19067174D01*
X13692801Y-19067174D02*
X13692801Y-19114793D01*
X13692801Y-19114793D02*
X13683277Y-19152889D01*
X13683277Y-19152889D02*
X13673753Y-19171936D01*
X13673753Y-19171936D02*
X13664229Y-19181460D01*
X13664229Y-19181460D02*
X13645182Y-19190984D01*
X13645182Y-19190984D02*
X13626134Y-19190984D01*
X13626134Y-19190984D02*
X13607086Y-19181460D01*
X13607086Y-19181460D02*
X13597563Y-19171936D01*
X13597563Y-19171936D02*
X13588039Y-19152889D01*
X13588039Y-19152889D02*
X13578515Y-19114793D01*
X13578515Y-19114793D02*
X13578515Y-19067174D01*
X13578515Y-19067174D02*
X13588039Y-19029079D01*
X13588039Y-19029079D02*
X13597563Y-19010031D01*
X13597563Y-19010031D02*
X13607086Y-19000508D01*
X13607086Y-19000508D02*
X13626134Y-18990984D01*
X13778515Y-19171936D02*
X13788039Y-19181460D01*
X13788039Y-19181460D02*
X13778515Y-19190984D01*
X13778515Y-19190984D02*
X13768991Y-19181460D01*
X13768991Y-19181460D02*
X13778515Y-19171936D01*
X13778515Y-19171936D02*
X13778515Y-19190984D01*
X13978515Y-19190984D02*
X13864229Y-19190984D01*
X13921372Y-19190984D02*
X13921372Y-18990984D01*
X13921372Y-18990984D02*
X13902325Y-19019555D01*
X13902325Y-19019555D02*
X13883277Y-19038603D01*
X13883277Y-19038603D02*
X13864229Y-19048127D01*
X14045182Y-18990984D02*
X14178515Y-18990984D01*
X14178515Y-18990984D02*
X14092801Y-19190984D01*
X14264229Y-19190984D02*
X14302325Y-19190984D01*
X14302325Y-19190984D02*
X14321372Y-19181460D01*
X14321372Y-19181460D02*
X14330896Y-19171936D01*
X14330896Y-19171936D02*
X14349944Y-19143365D01*
X14349944Y-19143365D02*
X14359467Y-19105270D01*
X14359467Y-19105270D02*
X14359467Y-19029079D01*
X14359467Y-19029079D02*
X14349944Y-19010031D01*
X14349944Y-19010031D02*
X14340420Y-19000508D01*
X14340420Y-19000508D02*
X14321372Y-18990984D01*
X14321372Y-18990984D02*
X14283277Y-18990984D01*
X14283277Y-18990984D02*
X14264229Y-19000508D01*
X14264229Y-19000508D02*
X14254706Y-19010031D01*
X14254706Y-19010031D02*
X14245182Y-19029079D01*
X14245182Y-19029079D02*
X14245182Y-19076698D01*
X14245182Y-19076698D02*
X14254706Y-19095746D01*
X14254706Y-19095746D02*
X14264229Y-19105270D01*
X14264229Y-19105270D02*
X14283277Y-19114793D01*
X14283277Y-19114793D02*
X14321372Y-19114793D01*
X14321372Y-19114793D02*
X14340420Y-19105270D01*
X14340420Y-19105270D02*
X14349944Y-19095746D01*
X14349944Y-19095746D02*
X14359467Y-19076698D01*
X14549944Y-19190984D02*
X14435658Y-19190984D01*
X14492801Y-19190984D02*
X14492801Y-18990984D01*
X14492801Y-18990984D02*
X14473753Y-19019555D01*
X14473753Y-19019555D02*
X14454706Y-19038603D01*
X14454706Y-19038603D02*
X14435658Y-19048127D01*
X14626134Y-18990984D02*
X14626134Y-19029079D01*
X14702325Y-18990984D02*
X14702325Y-19029079D01*
X14997563Y-19267174D02*
X14988039Y-19257650D01*
X14988039Y-19257650D02*
X14968991Y-19229079D01*
X14968991Y-19229079D02*
X14959468Y-19210031D01*
X14959468Y-19210031D02*
X14949944Y-19181460D01*
X14949944Y-19181460D02*
X14940420Y-19133841D01*
X14940420Y-19133841D02*
X14940420Y-19095746D01*
X14940420Y-19095746D02*
X14949944Y-19048127D01*
X14949944Y-19048127D02*
X14959468Y-19019555D01*
X14959468Y-19019555D02*
X14968991Y-19000508D01*
X14968991Y-19000508D02*
X14988039Y-18971936D01*
X14988039Y-18971936D02*
X14997563Y-18962412D01*
X15064229Y-19010031D02*
X15073753Y-19000508D01*
X15073753Y-19000508D02*
X15092801Y-18990984D01*
X15092801Y-18990984D02*
X15140420Y-18990984D01*
X15140420Y-18990984D02*
X15159468Y-19000508D01*
X15159468Y-19000508D02*
X15168991Y-19010031D01*
X15168991Y-19010031D02*
X15178515Y-19029079D01*
X15178515Y-19029079D02*
X15178515Y-19048127D01*
X15178515Y-19048127D02*
X15168991Y-19076698D01*
X15168991Y-19076698D02*
X15054706Y-19190984D01*
X15054706Y-19190984D02*
X15178515Y-19190984D01*
X15416610Y-19190984D02*
X15416610Y-18990984D01*
X15502325Y-19190984D02*
X15502325Y-19086222D01*
X15502325Y-19086222D02*
X15492801Y-19067174D01*
X15492801Y-19067174D02*
X15473753Y-19057650D01*
X15473753Y-19057650D02*
X15445182Y-19057650D01*
X15445182Y-19057650D02*
X15426134Y-19067174D01*
X15426134Y-19067174D02*
X15416610Y-19076698D01*
X15626134Y-19190984D02*
X15607087Y-19181460D01*
X15607087Y-19181460D02*
X15597563Y-19171936D01*
X15597563Y-19171936D02*
X15588039Y-19152889D01*
X15588039Y-19152889D02*
X15588039Y-19095746D01*
X15588039Y-19095746D02*
X15597563Y-19076698D01*
X15597563Y-19076698D02*
X15607087Y-19067174D01*
X15607087Y-19067174D02*
X15626134Y-19057650D01*
X15626134Y-19057650D02*
X15654706Y-19057650D01*
X15654706Y-19057650D02*
X15673753Y-19067174D01*
X15673753Y-19067174D02*
X15683277Y-19076698D01*
X15683277Y-19076698D02*
X15692801Y-19095746D01*
X15692801Y-19095746D02*
X15692801Y-19152889D01*
X15692801Y-19152889D02*
X15683277Y-19171936D01*
X15683277Y-19171936D02*
X15673753Y-19181460D01*
X15673753Y-19181460D02*
X15654706Y-19190984D01*
X15654706Y-19190984D02*
X15626134Y-19190984D01*
X15807087Y-19190984D02*
X15788039Y-19181460D01*
X15788039Y-19181460D02*
X15778515Y-19162412D01*
X15778515Y-19162412D02*
X15778515Y-18990984D01*
X15959468Y-19181460D02*
X15940420Y-19190984D01*
X15940420Y-19190984D02*
X15902325Y-19190984D01*
X15902325Y-19190984D02*
X15883277Y-19181460D01*
X15883277Y-19181460D02*
X15873753Y-19162412D01*
X15873753Y-19162412D02*
X15873753Y-19086222D01*
X15873753Y-19086222D02*
X15883277Y-19067174D01*
X15883277Y-19067174D02*
X15902325Y-19057650D01*
X15902325Y-19057650D02*
X15940420Y-19057650D01*
X15940420Y-19057650D02*
X15959468Y-19067174D01*
X15959468Y-19067174D02*
X15968991Y-19086222D01*
X15968991Y-19086222D02*
X15968991Y-19105270D01*
X15968991Y-19105270D02*
X15873753Y-19124317D01*
X16045182Y-19181460D02*
X16064230Y-19190984D01*
X16064230Y-19190984D02*
X16102325Y-19190984D01*
X16102325Y-19190984D02*
X16121372Y-19181460D01*
X16121372Y-19181460D02*
X16130896Y-19162412D01*
X16130896Y-19162412D02*
X16130896Y-19152889D01*
X16130896Y-19152889D02*
X16121372Y-19133841D01*
X16121372Y-19133841D02*
X16102325Y-19124317D01*
X16102325Y-19124317D02*
X16073753Y-19124317D01*
X16073753Y-19124317D02*
X16054706Y-19114793D01*
X16054706Y-19114793D02*
X16045182Y-19095746D01*
X16045182Y-19095746D02*
X16045182Y-19086222D01*
X16045182Y-19086222D02*
X16054706Y-19067174D01*
X16054706Y-19067174D02*
X16073753Y-19057650D01*
X16073753Y-19057650D02*
X16102325Y-19057650D01*
X16102325Y-19057650D02*
X16121372Y-19067174D01*
X16197563Y-19267174D02*
X16207087Y-19257650D01*
X16207087Y-19257650D02*
X16226134Y-19229079D01*
X16226134Y-19229079D02*
X16235658Y-19210031D01*
X16235658Y-19210031D02*
X16245182Y-19181460D01*
X16245182Y-19181460D02*
X16254706Y-19133841D01*
X16254706Y-19133841D02*
X16254706Y-19095746D01*
X16254706Y-19095746D02*
X16245182Y-19048127D01*
X16245182Y-19048127D02*
X16235658Y-19019555D01*
X16235658Y-19019555D02*
X16226134Y-19000508D01*
X16226134Y-19000508D02*
X16207087Y-18971936D01*
X16207087Y-18971936D02*
X16197563Y-18962412D01*
M02*
